<?xml version="1.0" encoding="utf-8"?>
<!-- Generator: Adobe Illustrator 21.1.0, SVG Export Plug-In . SVG Version: 6.00 Build 0)  -->
<svg version="1.1" id="Layer_1" xmlns="http://www.w3.org/2000/svg" xmlns:xlink="http://www.w3.org/1999/xlink" x="0px" y="0px"
	 viewBox="0 0 519.3 234.1" style="enable-background:new 0 0 519.3 234.1;" xml:space="preserve">
<style type="text/css">
	.st0{fill:#FFFFFF;}
</style>
<path class="st0" d="M210.3,0c0,38.4,0,76.8,0,115.2c0,1.7,0,1.8,1.8,1.8c27.5,0,55,0,82.6,0c1.6,0,1.6,0,1.6-1.7
	c0-11.9,0-23.8,0-35.8c0-1.7,0-1.7-1.7-1.7c-27,0-53.9,0-80.9,0c-0.8,0-1.7,0-2.7,0c0.2-0.4,0.3-0.6,0.5-0.8
	c12.3-12.3,24.7-24.7,37-37c0.6-0.6,1.2-0.8,2-0.8c27.6,0,55.2,0,82.8,0c0.5,0,1,0,1.6,0c0,0.5,0.1,1,0.1,1.4c0,27.6,0,55.1,0,82.7
	c0,1-0.3,1.7-1,2.4c-9.8,9.7-19.6,19.4-29.4,29.2c-0.6,0.6-1.3,0.9-2.2,0.9c-43.1,0-86.2,0-129.2,0c-0.6,0-1.1,0-1.8,0
	c0-38.7,0-77.3,0-115.8c-25.7,25.7-51.4,51.4-76.9,77c25.2,0,50.7,0,76.5,0c-0.4,0.4-0.6,0.7-0.8,0.9c-12.5,12.4-25,24.9-37.5,37.3
	c-0.4,0.4-1,0.6-1.6,0.6c-13.6,0-27.2,0-40.8,0c-29.6,0-59.1,0-88.7,0c-0.4,0-0.9,0-1.6,0c0.4-0.5,0.7-0.8,1-1.1
	c36.5-36.5,72.9-72.9,109.4-109.4C125.2,30.5,140,15.8,154.8,1c0.3-0.3,0.5-0.6,0.7-1C173.8,0,192,0,210.3,0z"/>
<path class="st0" d="M506.7,124.8c-0.5,0.4-0.9,0.7-1.3,1.1c-9.6,9.6-19.2,19.2-28.8,28.9c-0.6,0.6-1.3,0.9-2.2,0.9
	c-43.2,0-86.5,0-129.7,0c-0.5,0-0.9,0-1.6,0c0-0.6,0-1.1,0-1.7c0-50.8,0-101.5,0-152.3c0-0.6,0-1.2,0-1.8c13,0,25.9,0,38.9,0
	c0,0.4-0.1,0.8-0.1,1.2c0,38,0,76.1,0,114.1c0,0.5,0,1,0,1.6c28.8,0,57.4,0,86.1,0c0-0.5,0.1-0.9,0.1-1.3c0-12.1,0-24.2,0-36.4
	c0-1.2-0.3-1.6-1.5-1.5c-0.3,0-0.6,0-0.8,0c-27.1,0-54.2,0-81.2,0c-0.6,0-1.2,0-1.8,0c0.2-0.7,0.6-1,0.9-1.3
	C395.9,64.2,408,52.1,420.2,40c0.7-0.7,1.5-1,2.5-1c19.9,0,39.8,0,59.6,0c8.2,0,16.4,0,24.6,0C506.7,67.7,506.7,96.3,506.7,124.8z"
	/>
<path class="st0" d="M506.7,187.2c-2.9,2.3-5.8,4.5-8.6,6.8c-4.8,3.9-9.6,7.8-14.4,11.6c-0.7,0.5-0.8,0.9-0.4,1.8
	c3.9,8.3,7.8,16.7,11.7,25.1c0.2,0.4,0.3,0.8,0.6,1.4c-0.8,0-1.4,0-2.1,0c-3.4,0-6.8,0-10.2,0c-1,0-1.5-0.2-1.9-1.2
	c-2.5-5.9-5-11.8-7.5-17.8c-0.2-0.4-0.3-0.8-0.6-1.3c-2.2,1.8-4.4,3.6-6.5,5.3c-0.3,0.2-0.4,0.8-0.5,1.2c-1.2,4.3-2.3,8.5-3.6,12.8
	c-0.1,0.4-0.5,0.9-0.8,0.9c-3.4,0.1-6.8,0-10.3,0c0.1-0.5,0.2-0.9,0.3-1.2c4-14.7,7.9-29.4,11.9-44.1c0.3-1.2,0.7-1.6,2-1.5
	c3,0.1,6.1,0,9.3,0c-1.7,6.3-3.3,12.5-5,18.7c0.1,0,0.1,0.1,0.2,0.1c1.1-0.9,2.3-1.9,3.4-2.8c6.1-5.1,12.3-10.1,18.4-15.2
	c0.7-0.6,1.4-0.8,2.4-0.8c4.1,0,8.2,0,12.2,0C506.7,187.1,506.7,187.2,506.7,187.2z"/>
<path class="st0" d="M162.8,187.1c-0.8,3-1.5,5.7-2.3,8.5c-0.1,0.3-0.8,0.6-1.2,0.6c-5.1,0-10.2,0-15.4,0c-2.7,0-5.4,0-8,0
	c-0.6,0-1,0.1-1.1,0.8c-0.6,2.5-1.3,4.9-2.1,7.6c0.6,0,1,0,1.5,0c4.6,0.1,9.1,0.1,13.7,0.2c1.3,0,2.5,0.4,3.7,0.8
	c5.1,1.7,7.5,5.7,6.8,11.1c-1.3,9.6-7.5,15.7-17.3,16.9c-1.8,0.2-3.7,0.3-5.5,0.3c-6.7,0-13.4,0-20,0c-0.5,0-0.9,0-1.6,0
	c0.4-1.6,0.8-3,1.1-4.4c3.7-13.7,7.3-27.4,11-41.1c0.3-1,0.6-1.3,1.7-1.3c11.2,0,22.5,0,33.7,0C161.8,187.1,162.2,187.1,162.8,187.1
	z M127.2,224.6c4.2,0,8.2,0,12.2,0c0.8,0,1.6-0.3,2.4-0.6c2.3-0.8,3.6-2.4,4.2-4.7c0.7-3.2-0.4-5.1-3.6-5.4
	c-3.8-0.3-7.6-0.2-11.4-0.2c-0.2,0-0.6,0.3-0.7,0.6C129.2,217.7,128.2,221.1,127.2,224.6z"/>
<path class="st0" d="M332.1,204.5c3.8,0,7.5,0,11.1,0c1.8,0,3.7,0.1,5.5,0.5c7.3,1.3,10.4,6.1,8.8,13.3c-1.9,8.7-7.9,14.1-17.1,15.2
	c-1.7,0.2-3.5,0.3-5.3,0.3c-6.8,0-13.5,0-20.3,0c-0.5,0-0.9,0-1.6,0c0.7-2.5,1.3-4.8,1.9-7.1c3.4-12.8,6.8-25.5,10.2-38.3
	c0.3-1.1,0.7-1.4,1.9-1.4c11.2,0,22.4,0,33.6,0c0.4,0,0.8,0,1.4,0c-0.4,1.7-0.9,3.2-1.3,4.7c-0.3,1.1-0.7,2.2-0.9,3.4
	c-0.2,0.9-0.6,1-1.4,1c-7.5,0-15,0-22.6-0.1c-1.4,0-1.9,0.4-2.2,1.7C333.4,200,332.8,202.2,332.1,204.5z M326.7,224.9
	c4.5-0.2,8.8-0.2,13.1-0.6c2.5-0.2,4.4-1.7,5.4-4.2c1.4-3.4,0.1-5.7-3.6-6.3c-0.4-0.1-0.8-0.1-1.2-0.1c-3.3,0-6.6,0-9.9-0.1
	c-0.7,0-0.9,0.3-1,0.9c-0.7,2.7-1.4,5.3-2.1,8C327.1,223.2,326.9,223.9,326.7,224.9z"/>
<path class="st0" d="M404.3,233.9c0.7-2.8,1.4-5.3,2.1-7.9c3.4-12.6,6.8-25.1,10.2-37.7c0.3-1,0.7-1.3,1.7-1.3c2.7,0.1,5.4,0,8.2,0
	c0.4,0,0.8,0,1.4,0c-1.6,5.9-3.1,11.7-4.7,17.6c0.4,0,0.7,0.1,1,0.1c5,0,10,0,15,0c0.8,0,1.2-0.3,1.4-1.1c1.4-5.2,2.8-10.4,4.2-15.6
	c0.2-0.8,0.5-1,1.3-1c3.2,0,6.5,0,9.8,0c-0.9,3.4-1.6,6.6-2.5,9.8c-3.2,11.8-6.4,23.7-9.5,35.5c-0.3,1.3-0.8,1.6-2.1,1.6
	c-2.6-0.1-5.3,0-7.9,0c-0.4,0-0.9,0-1.5,0c1.8-6.7,3.6-13.3,5.4-20c-0.4,0-0.6-0.1-0.8-0.1c-5.1,0-10.2,0-15.2,0c-0.8,0-1,0.4-1.2,1
	c-1.6,5.9-3.2,11.8-4.8,17.7c-0.3,1.1-0.8,1.4-1.9,1.4c-2.7-0.1-5.4,0-8,0C405.4,233.9,404.9,233.9,404.3,233.9z"/>
<path class="st0" d="M93.8,233.9c-4.5,0-8.8,0-13,0c-0.4,0-0.8-0.6-1-1.1c-2.4-5.6-4.8-11.3-7.2-17c-0.3-0.7-0.6-1.3-0.9-2.2
	c-0.9,0.7-1.6,1.4-2.4,2c-3.4,2-5.1,5-5.8,8.8c-0.5,2.9-1.5,5.7-2.3,8.5c-0.1,0.3-0.4,0.8-0.8,0.9c-0.5,0.1-1,0-1.5,0
	c-2.9,0-5.7,0-8.8,0c0.8-3.1,1.6-6.1,2.4-9c3.2-12.1,6.5-24.2,9.7-36.3c0.3-1.1,0.7-1.5,1.9-1.5c2.7,0.1,5.4,0,8,0
	c0.4,0,0.8,0,1.3,0c-1.7,6.3-3.3,12.4-5,18.6c0.1,0.1,0.2,0.1,0.3,0.2c1.6-1.3,3.2-2.6,4.8-3.9c5.7-4.7,11.4-9.4,17.1-14.1
	c0.5-0.4,1.3-0.7,1.9-0.7c4-0.1,8.1,0,12.4,0c-0.4,0.4-0.6,0.6-0.9,0.8c-7.3,5.9-14.7,11.9-22,17.8c-0.7,0.6-0.8,1-0.4,1.9
	c3.9,8.3,7.8,16.6,11.7,25C93.4,232.9,93.6,233.3,93.8,233.9z"/>
<path class="st0" d="M205.9,233.9c1-3.7,1.9-7.2,2.9-10.7c3.1-11.5,6.2-23.1,9.2-34.6c0.3-1.1,0.7-1.5,1.9-1.5
	c6.6,0.1,13.1-0.1,19.7,0.1c2.6,0,5.2,0.3,7.7,0.9c5,1.2,7.5,4.6,7.1,9.7c-0.9,10.6-7,18.9-19,19.8c-4.1,0.3-8.3,0.2-12.5,0.2
	c-0.5,0-1,0-1.7,0c-0.6,2.2-1.2,4.4-1.7,6.6c-0.7,2.8-1.5,5.6-2.2,8.5c-0.2,0.8-0.5,1.2-1.4,1.2
	C212.6,233.8,209.3,233.9,205.9,233.9z M223.6,208.6c3.6,0,7.1,0.1,10.6,0c4.3-0.2,7.1-2.8,7.9-7c0.6-3.2-0.7-5.1-4-5.3
	c-3.5-0.2-6.9-0.1-10.4-0.1c-0.3,0-0.8,0.4-0.9,0.7C225.7,200.7,224.7,204.6,223.6,208.6z"/>
<path class="st0" d="M45.9,233.9c-2.5,0-4.9,0-7.3,0c-0.2,0-0.4,0-0.6,0c-1.2-0.1-2.9,0.3-3.5-0.3c-0.7-0.7-0.4-2.3-0.5-3.5
	c-0.1-1.3-0.2-2.6-0.3-3.9c0-0.7-0.2-1-1-1c-5.1,0-10.2,0-15.4,0.1c-0.4,0-1,0.5-1.2,0.9c-1.5,2.3-2.8,4.7-4.3,7.1
	c-0.2,0.4-0.7,0.8-1,0.8c-3.6,0.1-7.1,0-10.8,0c0.2-0.4,0.2-0.6,0.4-0.8c9.6-15,19.2-29.9,28.8-44.9c0.5-0.8,1.1-1.1,2-1.1
	c2.9,0.1,5.8,0.1,8.6,0c0.8,0,1.2,0.2,1.3,1.1c1.1,10.6,2.3,21.2,3.4,31.8c0.5,4.4,1,8.7,1.4,13.1C45.9,233.3,45.9,233.5,45.9,233.9
	z M33.3,217.2c-0.4-5.9-0.8-11.7-1.2-17.4c-0.1,0-0.2,0-0.3-0.1c-3.5,5.8-7.1,11.5-10.7,17.5C25.4,217.2,29.3,217.2,33.3,217.2z"/>
<path class="st0" d="M190,225.1c-2.1,0-4.1,0-6,0c-3.4,0-6.7,0-10.1,0c-0.8,0-1.2,0.2-1.6,0.9c-1.4,2.4-2.8,4.7-4.3,7.1
	c-0.2,0.3-0.6,0.8-0.9,0.8c-3.6,0.1-7.2,0-11,0c0.3-0.6,0.6-1,0.8-1.4c9.6-14.9,19.1-29.7,28.6-44.6c0.4-0.6,0.8-0.9,1.6-0.9
	c3,0.1,6,0,9,0c0.8,0,1.1,0.3,1.2,1.1c1.4,13,2.8,26.1,4.3,39.1c0.2,2.1,0.4,4.3,0.7,6.6c-3.9,0-7.7,0-11.7,0
	C190.3,230.9,190.2,228.1,190,225.1z M188.4,199.4c-3.7,6.1-7.3,11.9-10.9,17.8c4.2,0,8.1,0,12.1,0
	C189.2,211.3,188.8,205.5,188.4,199.4z"/>
<path class="st0" d="M401.2,233.9c-3.2,0-6.3,0-9.3,0c-2.5,0-2.5,0-2.6-2.5c-0.1-2-0.2-4.1-0.4-6.2c-0.4,0-0.8-0.1-1.1-0.1
	c-5,0-10,0-15,0c-0.8,0-1.2,0.3-1.6,1c-1.4,2.4-2.8,4.7-4.3,7.1c-0.2,0.3-0.7,0.7-1.1,0.7c-3.4,0.1-6.9,0-10.3,0
	c-0.1,0-0.2-0.1-0.4-0.1c0.2-0.3,0.3-0.6,0.5-0.8c8.7-13.6,17.4-27.2,26.1-40.8c0.9-1.4,1.9-2.9,2.9-4.3c0.3-0.4,0.9-0.7,1.3-0.7
	c3.1-0.1,6.2,0,9.2-0.1c0.8,0,1,0.3,1.1,1c1.2,11.3,2.4,22.6,3.6,33.8C400.3,225.8,400.7,229.7,401.2,233.9z M388.6,217.2
	c-0.4-5.9-0.8-11.6-1.2-17.4c-0.1,0-0.2-0.1-0.3-0.1c-3.5,5.8-7.1,11.5-10.7,17.5C380.6,217.2,384.5,217.2,388.6,217.2z"/>
<path class="st0" d="M287.5,203.4c0-0.8,0-1.5,0-2.2c-0.1-2.7-1.6-4.5-4.2-5.2c-4-1-7.9-0.3-10.8,2.6c-5.7,5.5-8.2,12.3-7.5,20.2
	c0.4,4.4,3.5,6.7,8,6.5c5.1-0.2,8.6-2.9,10.8-7.3c0.4-0.8,0.8-1,1.6-1c3,0,6,0,9.4,0c-1.4,2.4-2.4,4.6-3.8,6.6
	c-4.6,6.5-11.1,9.7-18.9,10.2c-3.4,0.2-6.7,0.1-10-1c-5.2-1.7-8.6-5.1-8.8-10.8c-0.4-11.9,3.2-22.3,12.8-29.7
	c7.3-5.6,15.7-6.8,24.4-3.9c5.1,1.7,7.8,6.2,7.4,11.6c-0.2,3.3-0.2,3.3-3.5,3.3C292.2,203.4,290,203.4,287.5,203.4z"/>
</svg>
