<?xml version="1.0" encoding="utf-8"?>
<!-- Generator: Adobe Illustrator 21.1.0, SVG Export Plug-In . SVG Version: 6.00 Build 0)  -->
<svg version="1.1" id="Ebene_1" xmlns="http://www.w3.org/2000/svg" xmlns:xlink="http://www.w3.org/1999/xlink" x="0px" y="0px"
	 viewBox="0 0 329.1 109.1" style="enable-background:new 0 0 329.1 109.1;" xml:space="preserve">
<style type="text/css">
	.st0{fill:#3EA2CB;}
</style>
<g>
	<path class="st0" d="M88.2,80V45.8h10c6.4,0,10.4,2.6,10.4,8.3c0,3.9-1.9,6.6-5.6,7.6v0.1c5.1,1,7.2,3.9,7.2,8.7
		c0,6.9-5.1,9.4-11.9,9.4H88.2V80z M96.4,59.9c3.9,0,6.2-1.4,6.2-5.1c0-3.5-2.2-4.6-5.9-4.6h-2.6v9.7C94.1,59.9,96.4,59.9,96.4,59.9
		z M97.1,75.4c4.3,0,7.1-1.3,7.1-5.5c0-4.1-2.9-5.5-7-5.5h-3.1v11.1L97.1,75.4L97.1,75.4z"/>
	<path class="st0" d="M115.5,80V56.4h5.5v4.3h0.1c1.4-3.1,3.7-4.8,7.6-4.8v5.4c-0.4,0-0.7,0-1.1,0c-3.8,0.4-5.6,2.6-6.2,5.7
		c-0.2,1.1-0.3,2.3-0.3,3.6v9.3L115.5,80L115.5,80z"/>
	<path class="st0" d="M144.6,80v-3h-0.1c-1.5,2.6-4,3.5-6.6,3.5c-4.1,0-6.7-2.3-6.7-6c0-5.8,5.4-8.3,12.1-8.3h1.2v-2
		c0-3-0.6-4.7-3.3-4.7c-2.1,0-3.6,0.8-3.8,3.6H132c0-5,4-7.2,9.2-7.2c5.8,0,8.9,2.1,8.9,8V80H144.6z M139.5,76.5
		c1.7,0,3.3-1.1,4.1-2.7c0.5-1.1,0.8-2.5,0.8-3.8v-0.5h-0.7c-3.7,0-6.8,1.3-6.8,4.4C136.9,75.8,138,76.5,139.5,76.5z"/>
	<path class="st0" d="M169.5,80V66.1c0-3.8-0.4-5.6-2.7-5.6c-2.1,0-3.5,1.9-4.3,4.3c-0.6,1.7-0.9,3.7-0.9,5.6V80h-5.5V56.4h5.4v4.4
		h0.1c1.1-2.6,3-4.9,6.8-4.9c4.3,0,6.6,3,6.6,7.6V80H169.5z"/>
	<path class="st0" d="M194.4,80v-3.1h-0.1c-1.2,2.4-3.3,3.6-5.8,3.6c-6.7,0-8.7-5.8-8.7-12.2c0-6.8,2.6-12.4,8.9-12.4
		c2.5,0,4.2,0.8,5.5,3.1h0.1V45.9h5.5v34.2h-5.4V80z M193.7,72.7c0.5-1.5,0.7-3.2,0.7-4.7s-0.1-3.6-0.7-5.2c-0.6-1.7-1.7-3-3.6-3
		c-3.5,0-4.2,4.8-4.2,8.9c0,3.9,0.8,7.9,4.1,7.9C192,76.5,193.1,74.8,193.7,72.7z"/>
</g>
<g>
	<path class="st0" d="M235,80V53.3h-0.1L226.3,80h-5.9l-8.6-26.7h-0.1V80h-5.3V45.8h8.4l8.6,26.8h0.1l8.6-26.8h8.2V80H235z"/>
	<path class="st0" d="M259.1,80v-3H259c-1.5,2.6-4,3.5-6.6,3.5c-4.1,0-6.7-2.3-6.7-6c0-5.8,5.4-8.3,12.1-8.3h1.2v-2
		c0-3-0.6-4.7-3.3-4.7c-2.1,0-3.6,0.8-3.8,3.6h-5.6c0-5,4-7.2,9.2-7.2c5.8,0,8.9,2.1,8.9,8V80H259.1z M254,76.5
		c1.7,0,3.3-1.1,4.1-2.7c0.5-1.1,0.8-2.5,0.8-3.8v-0.5h-0.7c-3.7,0-6.8,1.3-6.8,4.4C251.4,75.8,252.5,76.5,254,76.5z"/>
	<path class="st0" d="M283.6,80l-7.2-11.4h-0.1V80h-5.5V45.8h5.5v19.7h0.1l6.6-9.1h6.6l-8.3,10.4l9,13.2H283.6z"/>
	<path class="st0" d="M310,79.7c-1.9,0.6-4.1,0.8-6.1,0.8c-8.6,0-12.3-5.3-12.3-13.3c0-6.5,3.1-11.3,10.1-11.3c5.9,0,9,4,9,9.5V67
		h-13.4v0.6c0,4.9,2.9,9,8.1,9c1.4,0,3-0.2,4.6-0.7L310,79.7L310,79.7z M305.2,63.6c0-2.5-1.4-4.2-3.7-4.2c-2.5,0-3.9,1.9-4.1,4.2
		H305.2z"/>
	<path class="st0" d="M315.9,80V56.4h5.5v4.3h0.1c1.4-3.1,3.7-4.8,7.6-4.8v5.4c-0.4,0-0.7,0-1.1,0c-3.8,0.4-5.6,2.6-6.2,5.7
		c-0.2,1.1-0.3,2.3-0.3,3.6v9.3L315.9,80L315.9,80z"/>
</g>
<path class="st0" d="M51.8,46.1c-4,0.2-7,3.6-6.8,7.5c0.2,4,3.5,7,7.5,6.8s7-3.5,6.8-7.5C59.2,49,55.8,46,51.8,46.1 M62.1,55.3
	c-0.7,3.4-0.4,7.8,0.6,10.9c4.6,13.4,15.4,13.7,23,22.9c4.4,5.3,2.5,13.3-2.8,16c-3.1,1.6-7.1,1.4-9.6-0.3
	c-8.2-5.6-4.8-15.6-8.2-25.5C62.5,71.7,57,66.1,49.2,64h0.1c-7.9-1.2-15.2,1.7-20.6,7.6c-7.1,7.7-7.9,18.3-17.7,20.1
	c-2.9,0.5-6.7-0.9-8.9-3.6C-1.7,83.5-0.2,75.4,6,72.3c10.6-5.4,20.6-1.4,30.2-11.8c2.2-2.4,4.2-6.3,4.9-9.7v0.1
	c0.7-3.4,0.4-7.8-0.6-10.9c-4.6-13.4-15.4-13.7-23-22.9c-4.4-5.3-2.5-13.3,2.8-16c3.1-1.6,7.1-1.4,9.6,0.3C38.1,7,34.7,17,38.1,26.9
	c2.6,7.6,8.1,13.2,15.9,15.3h-0.1c7.9,1.2,15.2-1.7,20.6-7.6c7.1-7.7,7.9-18.3,17.7-20.1c2.9-0.5,6.7,0.9,8.9,3.6
	c3.8,4.6,2.3,12.7-3.9,15.8C86.6,39.3,76.6,35.3,67,45.7c-2.2,2.4-4.2,6.3-4.9,9.7V55.3z"/>
<g>
	<path class="st0" d="M115.3,104.7V90h7.5v1.7h-5.4v4.5h5.2v1.7h-5.2v5.1h5.6v1.7L115.3,104.7L115.3,104.7z"/>
	<path class="st0" d="M131.3,104.7v-6c0-1.6-0.2-2.6-1.3-2.6s-1.8,1-2.2,2.2c-0.3,0.7-0.4,1.6-0.4,2.4v4.1h-1.9V94.7h1.9v2l0,0
		c0.5-1.2,1.3-2.3,3-2.3c1.8,0,2.7,1.3,2.7,3.2v7.1L131.3,104.7L131.3,104.7z"/>
	<path class="st0" d="M141.9,103.1L141.9,103.1c-0.5,1-1.4,1.6-2.6,1.6c-2.8,0-3.6-2.6-3.6-5.1c0-2.7,1-5.3,3.7-5.3
		c1.2,0,2,0.5,2.4,1.5l0,0v-1.3h1.9v10.2c0,3-1.6,4.4-4.6,4.4c-1,0-2-0.1-2.9-0.3V107c0.9,0.4,1.9,0.7,2.8,0.7
		c2.2,0,2.7-1.3,2.7-3.3v-1.3C141.7,103.1,141.9,103.1,141.9,103.1z M141.8,99.4c0-1.8-0.5-3.7-2.1-3.7c-1.7,0-2,2.4-2,3.9
		c0,1.4,0.2,3.6,1.9,3.6C141.4,103.2,141.8,101,141.8,99.4z"/>
	<path class="st0" d="M152.2,104.7v-1.3h-0.1c-0.6,1.1-1.7,1.6-3,1.6c-1.8,0-2.8-1-2.8-2.5c0-2.3,2.1-3.5,5.4-3.5h0.3v-0.8
		c0-1.4-0.3-2.3-1.7-2.3c-1.1,0-1.7,0.4-1.8,1.6h-2c0-2.1,1.8-3,3.8-3c2.4,0,3.6,0.9,3.6,3.3v7L152.2,104.7L152.2,104.7z
		 M149.7,103.4c0.9,0,1.7-0.6,2-1.4c0.3-0.5,0.4-1.1,0.4-1.7V100h-0.5c-1.6,0-3.2,0.6-3.2,2.1C148.4,103.1,148.9,103.4,149.7,103.4z
		"/>
	<path class="st0" d="M162.7,103.1L162.7,103.1c-0.5,1-1.4,1.6-2.6,1.6c-2.8,0-3.6-2.6-3.6-5.1c0-2.7,1-5.3,3.7-5.3
		c1.2,0,2,0.5,2.4,1.5l0,0v-1.3h1.9v10.2c0,3-1.6,4.4-4.6,4.4c-1,0-2-0.1-2.9-0.3V107c0.9,0.4,1.9,0.7,2.8,0.7
		c2.2,0,2.7-1.3,2.7-3.3v-1.3C162.5,103.1,162.7,103.1,162.7,103.1z M162.6,99.4c0-1.8-0.5-3.7-2.1-3.7c-1.7,0-2,2.4-2,3.9
		c0,1.4,0.2,3.6,1.9,3.6C162.2,103.2,162.6,101,162.6,99.4z"/>
	<path class="st0" d="M174.7,104.6c-0.8,0.2-1.6,0.3-2.4,0.3c-3.6,0-5.1-2.3-5.1-5.7c0-2.7,1.2-4.9,4.1-4.9c2.4,0,3.7,1.7,3.7,4v0.6
		h-5.8c0,2.3,1,4.5,3.6,4.5c0.7,0,1.3-0.1,2-0.3v1.5H174.7z M173,97.6c0-1.1-0.7-1.9-1.8-1.9c-1.2,0-1.8,0.9-2,1.9H173z"/>
	<path class="st0" d="M183.2,90h1.9v6h0.1c0.6-1.1,1.5-1.7,2.7-1.7c2.7,0,3.6,2.7,3.6,5.2c0,3-1.2,5.4-4.3,5.4c-2.9,0-4-1.8-4-4.4
		V90L183.2,90z M189.4,99.7c0-1.7-0.3-3.9-2-3.9c-0.9,0-1.5,0.7-1.8,1.5c-0.3,0.9-0.4,1.9-0.4,2.7c0,1.5,0.3,3.5,2.1,3.5
		C189,103.4,189.4,101.3,189.4,99.7z"/>
	<path class="st0" d="M201,104.6c-0.8,0.2-1.6,0.3-2.4,0.3c-3.6,0-5.1-2.3-5.1-5.7c0-2.7,1.2-4.9,4.1-4.9c2.4,0,3.7,1.7,3.7,4v0.6
		h-5.8c0,2.3,1,4.5,3.6,4.5c0.7,0,1.3-0.1,2-0.3v1.5H201z M199.3,97.6c0-1.1-0.7-1.9-1.8-1.9c-1.2,0-1.8,0.9-2,1.9H199.3z"/>
	<path class="st0" d="M208.8,104.8c-0.5,0.1-1,0.1-1.4,0.1c-2,0-3-0.7-3-2.7V96h-1.6v-1.5h1.6v-2.4l1.9-1v3.4h2.7V96h-2.7v5.7
		c0,1.1,0.4,1.7,1.5,1.7c0.3,0,0.7,0,1-0.1V104.8z"/>
	<path class="st0" d="M216.2,104.8c-0.5,0.1-1,0.1-1.4,0.1c-2,0-3-0.7-3-2.7V96h-1.6v-1.5h1.6v-2.4l1.9-1v3.4h2.7V96h-2.7v5.7
		c0,1.1,0.4,1.7,1.5,1.7c0.3,0,0.7,0,1-0.1V104.8z"/>
	<path class="st0" d="M225.3,104.6c-0.8,0.2-1.6,0.3-2.4,0.3c-3.6,0-5.1-2.3-5.1-5.7c0-2.7,1.2-4.9,4.1-4.9c2.4,0,3.7,1.7,3.7,4v0.6
		h-5.8c0,2.3,1,4.5,3.6,4.5c0.7,0,1.3-0.1,2-0.3v1.5H225.3z M223.6,97.6c0-1.1-0.7-1.9-1.8-1.9c-1.2,0-1.8,0.9-2,1.9H223.6z"/>
	<path class="st0" d="M228.2,104.7V94.6h1.9v1.9l0,0c0.6-1.4,1.7-2.1,3.3-2.1v1.9c-1.9,0-2.9,1-3.2,2.7c-0.1,0.5-0.1,1-0.1,1.6v4.1
		H228.2z"/>
	<path class="st0" d="M234.5,104.7v-2.4h2.5v2.4H234.5z"/>
	<path class="st0" d="M249.2,104.9c-1.2,0-2.5-0.2-3.6-0.5v-2.1c1.2,0.6,2.4,1,3.8,1c1.6,0,2.8-0.7,2.8-2.3c0-1.5-1.2-2.1-2.5-2.8
		l-1.3-0.7c-1.7-1-3-1.9-3-3.8c0-2.8,2.3-3.8,4.9-3.8c1.1,0,2.1,0.1,3.3,0.4v2c-1.1-0.4-2.2-0.7-3.4-0.7c-1.4,0-2.5,0.6-2.5,2
		c0,1.1,1.4,1.9,2.5,2.5l1.3,0.7c1.7,0.9,3,2,3,4.1C254.5,103.7,252.1,104.9,249.2,104.9z"/>
	<path class="st0" d="M263.9,104.6c-0.8,0.2-1.6,0.3-2.4,0.3c-3.6,0-5.1-2.3-5.1-5.7c0-2.7,1.2-4.9,4.1-4.9c2.4,0,3.7,1.7,3.7,4v0.6
		h-5.8c0,2.3,1,4.5,3.6,4.5c0.7,0,1.3-0.1,2-0.3L263.9,104.6L263.9,104.6z M262.2,97.6c0-1.1-0.7-1.9-1.8-1.9c-1.2,0-1.8,0.9-2,1.9
		H262.2z"/>
	<path class="st0" d="M266.9,104.7V90h1.9v14.7H266.9z"/>
	<path class="st0" d="M272.3,104.7V90h1.9v14.7H272.3z"/>
	<path class="st0" d="M290.4,104.7h-1.9V99c0-1.7-0.1-3-1.3-3c-1,0-1.7,1.2-2,2.6c-0.1,0.6-0.2,1.3-0.2,1.9v4.1h-1.9V94.5h1.9v1.9
		l0,0c0.5-1.2,1.4-2.1,2.8-2.1s2.1,0.7,2.4,2.1l0,0c0.6-1.4,1.6-2.1,2.9-2.1c1.8,0,2.7,1.3,2.7,3.3v7h-1.9v-5.9
		c0-1.6-0.1-2.8-1.3-2.8c-1,0-1.6,1-2,2.3c-0.2,0.7-0.3,1.5-0.3,2.2L290.4,104.7L290.4,104.7z"/>
	<path class="st0" d="M298.3,99.6c0-2.9,1.1-5.3,4.4-5.3c3.2,0,4.4,2.4,4.4,5.3s-1.2,5.3-4.4,5.3S298.3,102.5,298.3,99.6z
		 M304.9,99.6c0-1.7-0.4-3.8-2.2-3.8c-1.9,0-2.2,2.1-2.2,3.8c0,1.7,0.4,3.8,2.2,3.8S304.9,101.3,304.9,99.6z"/>
	<path class="st0" d="M309.6,104.7V94.6h1.9v1.9l0,0c0.6-1.4,1.7-2.1,3.3-2.1v1.9c-1.9,0-2.9,1-3.2,2.7c-0.1,0.5-0.1,1-0.1,1.6v4.1
		H309.6z"/>
	<path class="st0" d="M323.7,104.6c-0.8,0.2-1.6,0.3-2.4,0.3c-3.6,0-5.1-2.3-5.1-5.7c0-2.7,1.2-4.9,4.1-4.9c2.4,0,3.7,1.7,3.7,4v0.6
		h-5.8c0,2.3,1,4.5,3.6,4.5c0.7,0,1.3-0.1,2-0.3L323.7,104.6L323.7,104.6z M322,97.6c0-1.1-0.7-1.9-1.8-1.9c-1.2,0-1.8,0.9-2,1.9
		H322z"/>
	<path class="st0" d="M326.6,104.7v-2.4h2.5v2.4H326.6z"/>
</g>
</svg>
