<?xml version="1.0" encoding="utf-8"?>
<!-- Generator: Adobe Illustrator 21.1.0, SVG Export Plug-In . SVG Version: 6.00 Build 0)  -->
<svg version="1.1" id="svg2" xmlns:svg="http://www.w3.org/2000/svg"
	 xmlns="http://www.w3.org/2000/svg" xmlns:xlink="http://www.w3.org/1999/xlink" x="0px" y="0px" viewBox="0 0 250 55"
	 style="enable-background:new 0 0 250 55;" xml:space="preserve">
<style type="text/css">
	.st0{fill:#FFFFFF;}
</style>
<g id="layer1" transform="translate(-182.578,-514.8209)">
	<g id="g2422" transform="matrix(2.1423054,0,0,2.1423054,184.3056,517.08031)">
		<polygon id="polygon2384" class="st0" points="59,10.8 54.2,0.3 47.9,0.3 52.9,10.8 		"/>
		<polygon id="polygon2386" class="st0" points="36.3,10.8 38.1,5.9 40.2,10.8 46,10.8 41.4,0.3 34.7,0.3 30.5,10.8 		"/>
		<rect id="rect2388" x="16.8" y="0.3" class="st0" width="5.7" height="10.5"/>
		<rect id="rect2390" x="0" y="0.3" class="st0" width="5.7" height="10.5"/>
		<path id="path2392" class="st0" d="M111.3,10.8c-3.5-2-8.1-2.5-8.1-4.7c0-1.2,1.3-1.9,3.4-1.9c2,0,4,0.6,7.3,2.1V1.8
			C110.9,0.5,108.6,0,106,0c-5.3,0-8.8,2.6-8.8,6.6c0,1.8,0.5,3.1,1.4,4.2H111.3L111.3,10.8z"/>
		<polygon id="polygon2394" class="st0" points="67.4,10.8 72.2,0.3 66,0.3 61.4,10.8 		"/>
		<polygon id="polygon2396" class="st0" points="80.3,10.8 82.2,5.9 84.2,10.8 90,10.8 85.4,0.3 78.7,0.3 74.5,10.8 		"/>
		<polygon id="polygon2398" class="st0" points="73.4,13.6 69.4,23.4 75.5,23.4 79.2,13.6 		"/>
		<polygon id="polygon2400" class="st0" points="85.3,13.6 89.4,23.4 95.6,23.4 91.3,13.6 		"/>
		<polygon id="polygon2402" class="st0" points="54.2,13.6 59.1,23.7 61.6,23.7 66.2,13.6 		"/>
		<path id="path2404" class="st0" d="M102.9,13.6c3,1.2,6.1,1.8,6.1,3.7c0,1.4-1.2,2.1-3.4,2.1c-2.5,0-4.6-0.8-7.9-3v5
			c2.3,1.2,4.3,2.2,8.3,2.2c5.1,0,8.9-2.6,8.9-7c0-1.2-0.3-2.2-0.7-3.1H102.9L102.9,13.6z"/>
		<rect id="rect2406" x="16.8" y="13.6" class="st0" width="5.7" height="9.8"/>
		<rect id="rect2408" x="0" y="13.6" class="st0" width="5.7" height="9.8"/>
		<polygon id="polygon2410" class="st0" points="29.3,13.6 25.4,23.4 31.5,23.4 35.2,13.6 		"/>
		<polygon id="polygon2412" class="st0" points="41.3,13.6 45.4,23.4 51.6,23.4 47.2,13.6 		"/>
	</g>
</g>
</svg>
