<?xml version="1.0" encoding="utf-8"?>
<!-- Generator: Adobe Illustrator 21.1.0, SVG Export Plug-In . SVG Version: 6.00 Build 0)  -->
<svg version="1.1" id="Layer_1" xmlns="http://www.w3.org/2000/svg" xmlns:xlink="http://www.w3.org/1999/xlink" x="0px" y="0px"
	 viewBox="0 0 100 34.4" style="enable-background:new 0 0 100 34.4;" xml:space="preserve">
<style type="text/css">
	.st0{fill:#FFFFFF;}
</style>
<g>
	<path class="st0" d="M32.9,23c0-1.6,0-3.2,0-4.9c0-0.4,0.1-0.5,0.5-0.5c0.5,0,1,0,1.5,0c0.3,0,0.4,0.1,0.4,0.4c0,1.1,0,2.2,0,3.3
		c0,0.3,0.1,0.5,0.4,0.5c1.1,0,2.2,0,3.3,0c0.3,0,0.4-0.1,0.4-0.4c0-1.1,0-2.1,0-3.2c0-0.4,0.1-0.6,0.5-0.5c0.5,0,1,0,1.4,0
		c0.3,0,0.4,0.1,0.4,0.4c0,3.3,0,6.5,0,9.8c0,0.4-0.1,0.5-0.5,0.4c-0.5,0-1,0-1.4,0s-0.4-0.1-0.4-0.5c0-1.2,0-2.4,0-3.6
		c0-0.4-0.1-0.5-0.5-0.5c-1.1,0-2.1,0-3.2,0c-0.4,0-0.5,0.1-0.5,0.5c0,1.2,0,2.3,0,3.5c0,0.4-0.1,0.6-0.5,0.5c-0.5,0-0.9,0-1.4,0
		c-0.4,0-0.5-0.1-0.5-0.5C32.9,26.3,32.9,24.7,32.9,23z"/>
	<path class="st0" d="M95.9,32.6c-0.6,0-1.2,0-1.9,0c-0.3,0-0.4-0.1-0.4-0.4c0-0.5,0-1,0-1.5c0-0.3,0.1-0.5,0.4-0.5
		c0.7,0,1.4,0,2.1,0c0.3,0,0.4-0.1,0.5-0.4c0.9-3,1.1-6,0.9-9.1c-0.1-1.6-0.4-3.1-0.8-4.6c-0.1-0.3-0.2-0.5-0.6-0.5
		c-0.7,0-1.3-0.1-2-0.1c-0.3,0-0.5-0.1-0.4-0.5c0-0.5,0-1,0-1.4c0-0.3,0.1-0.4,0.4-0.4c1.3,0.1,2.6,0.1,3.8,0.2
		c0.3,0,0.3,0.2,0.4,0.4c0.7,1.8,1.1,3.6,1.4,5.5c0.5,4,0.2,8-1,11.9c-0.4,1.3-0.4,1.3-1.8,1.3C96.6,32.6,96.3,32.6,95.9,32.6
		L95.9,32.6z"/>
	<path class="st0" d="M82.6,23.1c0.1-3.1,0.5-6.2,1.6-9.1c0.1-0.4,0.3-0.5,0.7-0.5c1.2,0,2.3-0.1,3.5-0.2c0.4,0,0.5,0.1,0.5,0.5
		s0,0.9,0,1.3s-0.1,0.5-0.5,0.5c-0.7,0-1.3,0.1-2,0.1c-0.3,0-0.4,0.1-0.4,0.3c-0.8,2.9-1.1,5.8-0.9,8.7c0.1,1.7,0.4,3.3,0.8,4.9
		c0.1,0.4,0.3,0.6,0.7,0.6c0.6,0,1.3,0,1.9,0c0.3,0,0.4,0.1,0.4,0.4c0,0.5,0,1,0,1.5c0,0.3-0.1,0.4-0.4,0.4c-1.3,0-2.5-0.1-3.8-0.1
		c-0.3,0-0.4-0.2-0.5-0.4c-0.8-1.9-1.2-3.9-1.4-5.9C82.7,25.2,82.7,24.1,82.6,23.1z"/>
	<path class="st0" d="M4.5,28.5c-1.9,0-3.4-0.7-4.4-2.3c-0.2-0.3-0.2-0.4,0.1-0.6l0.1-0.1c0.4-0.2,0.7-0.6,1.2-0.6
		C2,24.8,2,25.5,2.4,25.8c0.9,0.7,1.9,1,3,0.7c0.6-0.2,1-0.5,1-1c0-0.6-0.3-0.9-0.8-1.1C5,24.1,4.4,24,3.8,23.8s-1.3-0.4-1.9-0.7
		c-2.1-1-1.8-3.9-0.2-4.9c2-1.3,5.2-0.7,6.5,1.2c0.2,0.3,0.2,0.4-0.1,0.5C8.1,20,8,20,8,20.1c-0.3,0.3-0.6,0.6-1,0.7
		c-0.5,0.1-0.6-0.5-0.9-0.7c-0.8-0.5-1.6-0.8-2.6-0.5c-0.4,0.1-0.7,0.4-0.8,0.8c-0.1,0.5,0.2,0.8,0.6,1.1c0.6,0.3,1.2,0.5,1.8,0.7
		c0.7,0.2,1.4,0.4,2,0.7c2.2,1.1,1.9,4,0.2,5C6.4,28.4,5.4,28.5,4.5,28.5z"/>
	<path class="st0" d="M42.8,20.7c0.7,0,1.3,0,1.9,0c0.4,0,0.5,0.1,0.6,0.4c0.4,1.3,0.9,2.6,1.3,3.9c0.1,0.2,0.1,0.4,0.3,0.5
		c0.5-1.5,1-3,1.5-4.4c0.1-0.3,0.2-0.5,0.6-0.4c0.6,0,1.2,0,1.8,0c-0.5,1.4-1,2.7-1.5,4c-0.5,1.4-1.1,2.8-1.6,4.2
		c-0.7,1.9-1.6,2.5-3.7,2.3c-1.4-0.1-1.3-0.1-1-1.4c0.1-0.5,0.3-0.7,0.8-0.5c0.3,0.1,0.6,0.1,0.9,0.1c0.8,0,1.2-0.7,0.9-1.4
		c-0.8-2.2-1.7-4.4-2.5-6.6C43,21.2,42.9,21,42.8,20.7z"/>
	<path class="st0" d="M74,20.6c1,0,1.9,0.2,2.8,0.8c0.2,0.2,0.4,0.3,0.1,0.6c-0.2,0.3-0.4,0.7-0.7,0.9c-0.3,0.1-0.6-0.3-0.9-0.4
		c-0.6-0.2-1.1-0.4-1.7-0.3c-0.3,0.1-0.6,0.2-0.7,0.6c0,0.4,0.2,0.6,0.6,0.7c0.6,0.1,1.1,0.3,1.7,0.4c0.3,0.1,0.5,0.1,0.8,0.2
		c0.7,0.3,1.3,0.7,1.4,1.6c0.1,0.9-0.1,1.7-0.9,2.3c-1,0.7-2.1,0.7-3.3,0.6c-0.9-0.1-1.7-0.4-2.4-0.8c-0.3-0.2-0.4-0.3-0.1-0.6
		c0.2-0.3,0.4-0.7,0.6-0.8c0.3-0.1,0.6,0.3,0.9,0.4c0.7,0.3,1.4,0.5,2.2,0.4c0.4,0,0.8-0.2,0.8-0.7s-0.3-0.7-0.7-0.8
		c-0.5-0.1-1.1-0.2-1.6-0.4c-0.3-0.1-0.5-0.1-0.8-0.2c-0.8-0.3-1.3-0.8-1.4-1.7c-0.1-1,0.3-1.7,1.1-2.2C72.6,20.6,73.3,20.5,74,20.6
		z"/>
	<path class="st0" d="M91.3,21.9c0.3-0.8,0.6-1.6,0.9-2.3c0.1-0.3,0.3-0.4,0.6-0.4c0.6,0.1,1.3,0.1,2,0.1c-0.6,1.8-1.2,3.5-2,5.1
		c-0.2,0.4-0.2,0.6,0,1c0.4,0.7,0.8,1.5,1.2,2.3c-0.9,0-1.6,0-2.4,0c-0.2,0-0.3-0.1-0.4-0.3c-1.4-2.5-2.5-5.1-3.3-7.8
		c-0.1-0.3,0-0.4,0.3-0.4c0.5,0,1.1,0,1.6-0.1c0.3,0,0.4,0.1,0.5,0.4c0.3,0.8,0.6,1.6,0.8,2.4C91.2,21.9,91.2,21.9,91.3,21.9z"/>
	<path class="st0" d="M63.2,21.9c0.5-0.6,1-1.1,1.6-1.2c0.1,0,0.2-0.1,0.3-0.1c0.7-0.1,0.7-0.1,0.7,0.6c0,0.1,0,0.1,0,0.2
		c0,0.4,0.1,0.8-0.1,1c-0.2,0.3-0.6,0-0.9,0.1c-0.5,0.1-1,0.3-1.4,0.7c-0.2,0.2-0.3,0.4-0.3,0.7c0,1.3,0,2.6,0,3.9
		c0,0.4-0.1,0.5-0.4,0.5c-0.5,0-1,0-1.5,0c-0.3,0-0.4,0-0.4-0.3c0-2.3,0-4.7,0-7c0-0.3,0.1-0.3,0.3-0.3c0.5,0,1,0,1.5,0
		c0.3,0,0.5,0.1,0.4,0.4C63.2,21.4,63.2,21.6,63.2,21.9z"/>
	<path class="st0" d="M67,24.5c0-1.1,0-2.2,0-3.3c0-0.4,0.1-0.5,0.5-0.5c0.5,0,1,0,1.5,0c0.3,0,0.4,0.1,0.4,0.4c0,2.3,0,4.6,0,6.9
		c0,0.3-0.1,0.4-0.4,0.4c-0.5,0-1,0-1.5,0c-0.3,0-0.4-0.1-0.4-0.4C67,26.8,67,25.6,67,24.5z"/>
	<path class="st0" d="M68.2,17.8c1.1,0,1.1,0,1.1,1.2c0,0.7,0,0.7-0.7,0.7c-0.4,0-0.8,0-1.3,0c-0.3,0-0.4-0.1-0.4-0.4
		c0-0.1,0-0.2,0-0.3C67,17.8,67,17.8,68.2,17.8z"/>
	<path class="st0" d="M58.9,22.1c-0.8-1.7-3-2-4.3-0.7c-0.1,0.1-0.2,0.3-0.4,0.3c0-1.1,0-2.1,0-3.2c0-0.8,0-0.8-0.8-0.8
		c-0.5,0-1.1-0.2-1.4,0.1c-0.3,0.3-0.1,0.9-0.1,1.4c0,2.9,0,5.7,0,8.6c0,0.2-0.1,0.5,0.3,0.5c0.6,0,1.1,0,1.7,0
		c0.2,0,0.3-0.1,0.3-0.3s0-0.3,0-0.6c0.2,0.2,0.4,0.3,0.5,0.4c1.4,1,3.5,0.6,4.2-1C59.7,25.3,59.7,23.7,58.9,22.1z M56.9,25.8
		c-0.2,0.5-0.5,0.9-1,0.9c-0.7,0.1-1.2-0.2-1.7-0.6c-0.1-0.1-0.1-0.2-0.1-0.4c0-0.4,0-0.7,0-1.1c0-0.2,0-0.5,0-0.7
		c0-0.8,0.4-1.3,1.2-1.4c0.8-0.1,1.4,0.2,1.6,1C57.2,24.3,57.2,25,56.9,25.8z"/>
	<path class="st0" d="M25.3,17.8c-1.6-0.2-3.2,0-4.7-0.1c-0.4,0-0.5,0.1-0.5,0.5c0,1.6,0,3.2,0,4.8c0,1.6,0,3.2,0,4.9
		c0,0.4,0.1,0.5,0.5,0.5c0.5,0,0.9,0,1.4,0c0.4,0,0.5-0.1,0.5-0.5c0-1,0-1.9,0-2.9c0-0.4,0.1-0.5,0.5-0.5c0.9,0,1.7,0.1,2.6-0.1
		c1.1-0.2,2-0.7,2.5-1.7C29.1,20.5,27.8,18.1,25.3,17.8z M24.9,22.6c-0.8,0.2-1.6,0.1-2.3,0.1c-0.2,0-0.2-0.2-0.2-0.3
		c0-0.4,0-0.9,0-1.3c0-0.4,0-0.8,0-1.2c0-0.2,0-0.3,0.3-0.3c0.7,0,1.5-0.1,2.2,0.1s1.1,0.6,1.1,1.4C26,22,25.7,22.4,24.9,22.6z"/>
	<path class="st0" d="M18.7,27.7c-1.1-3-2.1-6-3.2-9c-0.4-1-0.4-1-1.5-1c-0.3,0-0.5,0-0.8,0c-0.2,0-0.4,0.1-0.5,0.3
		c-1.2,3.3-2.3,6.7-3.5,10c-0.1,0.3-0.1,0.4,0.3,0.4c0.5,0,0.9,0,1.4,0c0.3,0,0.4-0.1,0.5-0.4c0.2-0.5,0.4-1.1,0.5-1.6
		c0.1-0.3,0.3-0.4,0.6-0.4c0.8,0,1.6,0,2.4,0c0.6,0,0.9,0.1,1,0.7c0.1,0.5,0.2,1.2,0.6,1.6c0.4,0.3,1.1,0.1,1.7,0.1
		C18.9,28.4,18.9,28.4,18.7,27.7z M14.8,24.3c-0.6,0-1.2,0-1.8,0c-0.2,0-0.3-0.1-0.2-0.3c0.4-1.1,0.7-2.1,1.2-3.3
		c0.4,1.2,0.8,2.2,1.1,3.3C15.1,24.2,15.1,24.3,14.8,24.3z"/>
</g>
</svg>
