<?xml version="1.0" encoding="utf-8"?>
<!-- Generator: Adobe Illustrator 21.1.0, SVG Export Plug-In . SVG Version: 6.00 Build 0)  -->
<svg version="1.1" id="Layer_1" xmlns:svg="http://www.w3.org/2000/svg"
	 xmlns="http://www.w3.org/2000/svg" xmlns:xlink="http://www.w3.org/1999/xlink" x="0px" y="0px" viewBox="0 0 355 140"
	 style="enable-background:new 0 0 355 140;" xml:space="preserve">
<style type="text/css">
	.st0{fill:#FFFFFF;}
</style>
<path class="st0" d="M5,51.3v18.8l50.6-5.6V44.2L5,51.3 M21.2,71.3v64.3h18.5V69.4L21.2,71.3 M62.5,43.3v92.3H82V40.5L62.5,43.3
	 M85.7,40v21.2l28.2-3.1V36L85.7,40 M85.7,77.1v21.6l18.5-1V75.5L85.7,77.1 M85.7,114.3v21.3h28.2v-22.2L85.7,114.3 M186.8,25.8
	v109.8h25.6V22.2L186.8,25.8 M217.2,21.5v25.3l37.3-4.1V16.2L217.2,21.5 M217.2,65.8v25.7l24.5-1.3V63.7L217.2,65.8 M217.2,110.3
	v25.3h37.3v-26.4L217.2,110.3 M121.3,35v100.6h22.3V31.9L121.3,35 M147.8,112.4v23.2h32.3v-24.2L147.8,112.4 M338.2,15
	c-8.1-7.6-20-10.8-32.9-8.9v28c5.3-0.3,9.5,1.7,11.4,5.6c3,6.2-0.1,15.5-7.4,24.1c-11.3,13.3-41.2,40.5-41.2,40.5l43-1.4
	c26.3-25.7,35.7-41.2,37.4-60.7C349.4,31.9,345.6,22,338.2,15 M350,135.6v-29.3l-87.2,2.6 M262.8,108.9l0,26.7H350 M300.3,6.7
	c-25.3,5.4-37.8,24-36.3,54.4l27-2.4c-1.2-17.2,4-21.2,9.3-23.5L300.3,6.7"/>
</svg>
