<?xml version="1.0" encoding="UTF-8"?>
<svg width="113px" height="67px" viewBox="0 0 113 67" version="1.1" xmlns="http://www.w3.org/2000/svg" xmlns:xlink="http://www.w3.org/1999/xlink">
    <!-- Generator: Sketch 55.2 (78181) - https://sketchapp.com -->
    <title>Logo</title>
    <desc>Created with Sketch.</desc>
    <g id="Page-1" stroke="none" stroke-width="1" fill="none" fill-rule="evenodd">
        <g id="Adoptomedia-home" transform="translate(-35.000000, -42.000000)" fill-rule="nonzero">
            <g id="Logo" transform="translate(34.000000, 36.000000)">
                <path d="M14.3769231,17.2984615 L12.7153846,12.3876923 C12.5923071,12.0758959 12.4610263,11.7087201 12.3215385,11.2861538 C12.1820506,10.8635876 12.0425648,10.4061563 11.9030769,9.91384615 C11.7799994,10.4143615 11.6487186,10.8779466 11.5092308,11.3046154 C11.3697429,11.7312842 11.2384622,12.1005113 11.1153846,12.4123077 L9.46615385,17.2984615 L14.3769231,17.2984615 Z M20.9861538,24.1538462 L17.7615385,24.1538462 C17.400511,24.1538462 17.1092319,24.0697444 16.8876923,23.9015385 C16.6661527,23.7333325 16.4979493,23.51795 16.3830769,23.2553846 L15.3246154,20.1292308 L8.50615385,20.1292308 L7.44769231,23.2553846 C7.35743545,23.4851294 7.19538578,23.6923068 6.96153846,23.8769231 C6.72769114,24.0615394 6.43846326,24.1538462 6.09384615,24.1538462 L2.84461538,24.1538462 L9.78615385,6.22153846 L14.0446154,6.22153846 L20.9861538,24.1538462 Z M38.6723077,15.1815385 C38.6723077,16.4779552 38.4487202,17.6738407 38.0015385,18.7692308 C37.5543567,19.8646209 36.9246194,20.8123037 36.1123077,21.6123077 C35.2999959,22.4123117 34.3215442,23.0358952 33.1769231,23.4830769 C32.032302,23.9302586 30.7625711,24.1538462 29.3676923,24.1538462 L22.4015385,24.1538462 L22.4015385,6.22153846 L29.3676923,6.22153846 C30.7625711,6.22153846 32.032302,6.44717723 33.1769231,6.89846154 C34.3215442,7.34974585 35.2999959,7.97332935 36.1123077,8.76923077 C36.9246194,9.56513218 37.5543567,10.5107638 38.0015385,11.6061538 C38.4487202,12.7015439 38.6723077,13.8933269 38.6723077,15.1815385 Z M34.4138462,15.1815385 C34.4138462,14.2953802 34.2989755,13.4953882 34.0692308,12.7815385 C33.839486,12.0676887 33.5092329,11.4625666 33.0784615,10.9661538 C32.6476902,10.4697411 32.1205159,10.0882065 31.4969231,9.82153846 C30.8733302,9.55487046 30.1635937,9.42153846 29.3676923,9.42153846 L26.5861538,9.42153846 L26.5861538,20.9538462 L29.3676923,20.9538462 C30.1635937,20.9538462 30.8733302,20.8205142 31.4969231,20.5538462 C32.1205159,20.2871782 32.6476902,19.9056435 33.0784615,19.4092308 C33.5092329,18.912818 33.839486,18.3076959 34.0692308,17.5938462 C34.2989755,16.8799964 34.4138462,16.0759019 34.4138462,15.1815385 Z M58.7338462,15.1815385 C58.7338462,16.4779552 58.5102586,17.684097 58.0630769,18.8 C57.6158952,19.915903 56.9861579,20.8861497 56.1738462,21.7107692 C55.3615344,22.5353887 54.3830826,23.1815361 53.2384615,23.6492308 C52.0938404,24.1169254 50.8241095,24.3507692 49.4292308,24.3507692 C48.034352,24.3507692 46.7625698,24.1169254 45.6138462,23.6492308 C44.4651225,23.1815361 43.4825682,22.5353887 42.6661538,21.7107692 C41.8497395,20.8861497 41.217951,19.915903 40.7707692,18.8 C40.3235875,17.684097 40.1,16.4779552 40.1,15.1815385 C40.1,13.8851217 40.3235875,12.6789799 40.7707692,11.5630769 C41.217951,10.4471739 41.8497395,9.47897846 42.6661538,8.65846154 C43.4825682,7.83794462 44.4651225,7.19384849 45.6138462,6.72615385 C46.7625698,6.2584592 48.034352,6.02461538 49.4292308,6.02461538 C50.8241095,6.02461538 52.0938404,6.26051046 53.2384615,6.73230769 C54.3830826,7.20410492 55.3615344,7.85025231 56.1738462,8.67076923 C56.9861579,9.49128615 57.6158952,10.4594816 58.0630769,11.5753846 C58.5102586,12.6912876 58.7338462,13.8933269 58.7338462,15.1815385 Z M54.4753846,15.1815385 C54.4753846,14.2953802 54.360514,13.4974394 54.1307692,12.7876923 C53.9010245,12.0779452 53.5707714,11.4769255 53.14,10.9846154 C52.7092286,10.4923052 52.1820544,10.1148731 51.5584615,9.85230769 C50.9348687,9.58974228 50.2251322,9.45846154 49.4292308,9.45846154 C48.6251242,9.45846154 47.9092339,9.58974228 47.2815385,9.85230769 C46.653843,10.1148731 46.1246175,10.4923052 45.6938462,10.9846154 C45.2630748,11.4769255 44.9328217,12.0779452 44.7030769,12.7876923 C44.4733322,13.4974394 44.3584615,14.2953802 44.3584615,15.1815385 C44.3584615,16.0759019 44.4733322,16.8779452 44.7030769,17.5876923 C44.9328217,18.2974394 45.2630748,18.8984591 45.6938462,19.3907692 C46.1246175,19.8830794 46.653843,20.2584602 47.2815385,20.5169231 C47.9092339,20.7753859 48.6251242,20.9046154 49.4292308,20.9046154 C50.2251322,20.9046154 50.9348687,20.7753859 51.5584615,20.5169231 C52.1820544,20.2584602 52.7092286,19.8830794 53.14,19.3907692 C53.5707714,18.8984591 53.9010245,18.2974394 54.1307692,17.5876923 C54.360514,16.8779452 54.4753846,16.0759019 54.4753846,15.1815385 Z M67.5092308,15.0215385 C68.5923131,15.0215385 69.3717925,14.7630795 69.8476923,14.2461538 C70.3235921,13.7292282 70.5615385,13.0071841 70.5615385,12.08 C70.5615385,11.6697415 70.5000006,11.2964119 70.3769231,10.96 C70.2538455,10.6235881 70.0671807,10.3343602 69.8169231,10.0923077 C69.5666654,9.8502552 69.2507711,9.6635904 68.8692308,9.53230769 C68.4876904,9.40102498 68.0343616,9.33538462 67.5092308,9.33538462 L65.3430769,9.33538462 L65.3430769,15.0215385 L67.5092308,15.0215385 Z M67.5092308,6.22153846 C68.7728268,6.22153846 69.8579442,6.37128055 70.7646154,6.67076923 C71.6712866,6.97025791 72.4179458,7.38256148 73.0046154,7.90769231 C73.591285,8.43282314 74.0241012,9.05230412 74.3030769,9.76615385 C74.5820527,10.4800036 74.7215385,11.2512779 74.7215385,12.08 C74.7215385,12.9743634 74.5779502,13.7948681 74.2907692,14.5415385 C74.0035883,15.2882089 73.5646183,15.9282025 72.9738462,16.4615385 C72.383074,16.9948745 71.6343635,17.4112806 70.7276923,17.7107692 C69.8210211,18.0102579 68.7482113,18.16 67.5092308,18.16 L65.3430769,18.16 L65.3430769,24.1538462 L61.1830769,24.1538462 L61.1830769,6.22153846 L67.5092308,6.22153846 Z M89.7246154,9.52 L84.6784615,9.52 L84.6784615,24.1538462 L80.5184615,24.1538462 L80.5184615,9.52 L75.4723077,9.52 L75.4723077,6.22153846 L89.7246154,6.22153846 L89.7246154,9.52 Z M109.429231,15.1815385 C109.429231,16.4779552 109.205643,17.684097 108.758462,18.8 C108.31128,19.915903 107.681543,20.8861497 106.869231,21.7107692 C106.056919,22.5353887 105.078467,23.1815361 103.933846,23.6492308 C102.789225,24.1169254 101.519494,24.3507692 100.124615,24.3507692 C98.7297366,24.3507692 97.4579545,24.1169254 96.3092308,23.6492308 C95.1605071,23.1815361 94.1779528,22.5353887 93.3615385,21.7107692 C92.5451241,20.8861497 91.9133356,19.915903 91.4661538,18.8 C91.0189721,17.684097 90.7953846,16.4779552 90.7953846,15.1815385 C90.7953846,13.8851217 91.0189721,12.6789799 91.4661538,11.5630769 C91.9133356,10.4471739 92.5451241,9.47897846 93.3615385,8.65846154 C94.1779528,7.83794462 95.1605071,7.19384849 96.3092308,6.72615385 C97.4579545,6.2584592 98.7297366,6.02461538 100.124615,6.02461538 C101.519494,6.02461538 102.789225,6.26051046 103.933846,6.73230769 C105.078467,7.20410492 106.056919,7.85025231 106.869231,8.67076923 C107.681543,9.49128615 108.31128,10.4594816 108.758462,11.5753846 C109.205643,12.6912876 109.429231,13.8933269 109.429231,15.1815385 Z M105.170769,15.1815385 C105.170769,14.2953802 105.055899,13.4974394 104.826154,12.7876923 C104.596409,12.0779452 104.266156,11.4769255 103.835385,10.9846154 C103.404613,10.4923052 102.877439,10.1148731 102.253846,9.85230769 C101.630253,9.58974228 100.920517,9.45846154 100.124615,9.45846154 C99.3205088,9.45846154 98.6046185,9.58974228 97.9769231,9.85230769 C97.3492276,10.1148731 96.8200022,10.4923052 96.3892308,10.9846154 C95.9584594,11.4769255 95.6282063,12.0779452 95.3984615,12.7876923 C95.1687168,13.4974394 95.0538462,14.2953802 95.0538462,15.1815385 C95.0538462,16.0759019 95.1687168,16.8779452 95.3984615,17.5876923 C95.6282063,18.2974394 95.9584594,18.8984591 96.3892308,19.3907692 C96.8200022,19.8830794 97.3492276,20.2584602 97.9769231,20.5169231 C98.6046185,20.7753859 99.3205088,20.9046154 100.124615,20.9046154 C100.920517,20.9046154 101.630253,20.7753859 102.253846,20.5169231 C102.877439,20.2584602 103.404613,19.8830794 103.835385,19.3907692 C104.266156,18.8984591 104.596409,18.2974394 104.826154,17.5876923 C105.055899,16.8779452 105.170769,16.0759019 105.170769,15.1815385 Z" id="ADOPTO" fill="#032A50"></path>
                <path d="M32.3880769,32.5188462 L32.3880769,56.6153846 L27.4596154,56.6153846 L27.4596154,42.7561538 C27.4596154,42.4364087 27.4678845,42.0891044 27.4844231,41.7142308 C27.5009616,41.3393571 27.5312818,40.9589763 27.5753846,40.5730769 L21.175,52.9603846 C20.9765375,53.346284 20.7091683,53.6384605 20.3728846,53.8369231 C20.0366009,54.0353856 19.6534637,54.1346154 19.2234615,54.1346154 L18.4626923,54.1346154 C18.0326902,54.1346154 17.649553,54.0353856 17.3132692,53.8369231 C16.9769855,53.6384605 16.7096164,53.346284 16.5111538,52.9603846 L10.1107692,40.54 C10.1438463,40.9369251 10.1714101,41.325575 10.1934615,41.7059615 C10.2155129,42.0863481 10.2265385,42.4364087 10.2265385,42.7561538 L10.2265385,56.6153846 L5.29807692,56.6153846 L5.29807692,32.5188462 L9.565,32.5188462 C9.80756532,32.5188462 10.0198068,32.5243589 10.2017308,32.5353846 C10.3836548,32.5464103 10.5462813,32.5794869 10.6896154,32.6346154 C10.8329494,32.6897439 10.9624994,32.7751917 11.0782692,32.8909615 C11.194039,33.0067313 11.3070507,33.1693579 11.4173077,33.3788462 L17.6192308,45.6007692 C17.8397447,46.0197457 18.0519862,46.4552541 18.2559615,46.9073077 C18.4599369,47.3593612 18.6556401,47.8224335 18.8430769,48.2965385 C19.0305138,47.8114078 19.2262169,47.33731 19.4301923,46.8742308 C19.6341677,46.4111515 19.8519219,45.9701303 20.0834615,45.5511538 L26.2688462,33.3788462 C26.3791031,33.1693579 26.4921148,33.0067313 26.6078846,32.8909615 C26.7236544,32.7751917 26.8532044,32.6897439 26.9965385,32.6346154 C27.1398725,32.5794869 27.3024991,32.5464103 27.4844231,32.5353846 C27.6663471,32.5243589 27.8785885,32.5188462 28.1211538,32.5188462 L32.3880769,32.5188462 Z M42.675,36.8188462 L42.675,42.4419231 L50.2496154,42.4419231 L50.2496154,46.5765385 L42.675,46.5765385 L42.675,52.3153846 L52.565,52.3153846 L52.565,56.6153846 L37.0519231,56.6153846 L37.0519231,32.5188462 L52.565,32.5188462 L52.565,36.8188462 L42.675,36.8188462 Z M77.8688462,44.5588462 C77.8688462,46.3009061 77.5684004,47.9078773 76.9675,49.3798077 C76.3665996,50.8517381 75.5203901,52.1251869 74.4288462,53.2001923 C73.3373022,54.2751977 72.0225077,55.113138 70.4844231,55.7140385 C68.9463385,56.3149389 67.2401376,56.6153846 65.3657692,56.6153846 L56.005,56.6153846 L56.005,32.5188462 L65.3657692,32.5188462 C67.2401376,32.5188462 68.9463385,32.8220482 70.4844231,33.4284615 C72.0225077,34.0348748 73.3373022,34.8728152 74.4288462,35.9423077 C75.5203901,37.0118002 76.3665996,38.2824926 76.9675,39.7544231 C77.5684004,41.2263535 77.8688462,42.8278119 77.8688462,44.5588462 Z M72.1465385,44.5588462 C72.1465385,43.368071 71.992181,42.2930817 71.6834615,41.3338462 C71.374742,40.3746106 70.9309644,39.5614777 70.3521154,38.8944231 C69.7732663,38.2273685 69.064876,37.7146813 68.2269231,37.3563462 C67.3889702,36.998011 66.4352618,36.8188462 65.3657692,36.8188462 L61.6280769,36.8188462 L61.6280769,52.3153846 L65.3657692,52.3153846 C66.4352618,52.3153846 67.3889702,52.1362197 68.2269231,51.7778846 C69.064876,51.4195495 69.7732663,50.9068623 70.3521154,50.2398077 C70.9309644,49.5727531 71.374742,48.7596202 71.6834615,47.8003846 C71.992181,46.841149 72.1465385,45.760647 72.1465385,44.5588462 Z M86.7996154,56.6153846 L81.1765385,56.6153846 L81.1765385,32.5188462 L86.7996154,32.5188462 L86.7996154,56.6153846 Z M104.198077,47.4034615 L101.965385,40.8046154 C101.799999,40.3856389 101.623591,39.8922464 101.436154,39.3244231 C101.248717,38.7565997 101.061283,38.1419264 100.873846,37.4803846 C100.708461,38.1529521 100.532052,38.7758946 100.344615,39.3492308 C100.157179,39.922567 99.9807701,40.4187159 99.8153846,40.8376923 L97.5992308,47.4034615 L104.198077,47.4034615 Z M113.079231,56.6153846 L108.746154,56.6153846 C108.261023,56.6153846 107.869617,56.5023729 107.571923,56.2763462 C107.274229,56.0503194 107.048206,55.7608992 106.893846,55.4080769 L105.471538,51.2073077 L96.3092308,51.2073077 L94.8869231,55.4080769 C94.7656404,55.7167964 94.5478862,55.9951911 94.2336538,56.2432692 C93.9194215,56.4913474 93.5307715,56.6153846 93.0676923,56.6153846 L88.7015385,56.6153846 L98.0292308,32.5188462 L103.751538,32.5188462 L113.079231,56.6153846 Z" id="MEDIA" fill="#032A50"></path>
                <path d="M1.00153846,71.5723077 C1.00153846,71.4246146 1.02923049,71.2871801 1.08461538,71.16 C1.14000028,71.0328199 1.21589695,70.9220518 1.31230769,70.8276923 C1.40871843,70.7333329 1.52256345,70.6584618 1.65384615,70.6030769 C1.78512886,70.547692 1.92871717,70.52 2.08461538,70.52 C2.23641102,70.52 2.37794806,70.547692 2.50923077,70.6030769 C2.64051348,70.6584618 2.75538412,70.7333329 2.85384615,70.8276923 C2.95230818,70.9220518 3.02923049,71.0328199 3.08461538,71.16 C3.14000028,71.2871801 3.16769231,71.4246146 3.16769231,71.5723077 C3.16769231,71.7200007 3.14000028,71.8584609 3.08461538,71.9876923 C3.02923049,72.1169237 2.95230818,72.2287175 2.85384615,72.3230769 C2.75538412,72.4174364 2.64051348,72.4912818 2.50923077,72.5446154 C2.37794806,72.597949 2.23641102,72.6246154 2.08461538,72.6246154 C1.92871717,72.6246154 1.78512886,72.597949 1.65384615,72.5446154 C1.52256345,72.4912818 1.40871843,72.4174364 1.31230769,72.3230769 C1.21589695,72.2287175 1.14000028,72.1169237 1.08461538,71.9876923 C1.02923049,71.8584609 1.00153846,71.7200007 1.00153846,71.5723077 Z M10.4661538,70.2184615 C10.5153849,70.2184615 10.5646151,70.2276922 10.6138462,70.2461538 C10.6630772,70.2646155 10.7102562,70.29641 10.7553846,70.3415385 L11.58,71.2092308 C11.2189726,71.681028 10.7666694,72.0369219 10.2230769,72.2769231 C9.67948446,72.5169243 9.03641397,72.6369231 8.29384615,72.6369231 C7.61281711,72.6369231 7.0025668,72.5210268 6.46307692,72.2892308 C5.92358705,72.0574347 5.46615572,71.7374379 5.09076923,71.3292308 C4.71538274,70.9210236 4.42718049,70.4369259 4.22615385,69.8769231 C4.0251272,69.3169203 3.92461538,68.7087212 3.92461538,68.0523077 C3.92461538,67.3835864 4.03333225,66.7692336 4.25076923,66.2092308 C4.46820622,65.649228 4.77384418,65.1661559 5.16769231,64.76 C5.56154043,64.3538441 6.03333058,64.0379498 6.58307692,63.8123077 C7.13282326,63.5866655 7.73794542,63.4738462 8.39846154,63.4738462 C8.73487348,63.4738462 9.05179338,63.5035894 9.34923077,63.5630769 C9.64666815,63.6225644 9.92461538,63.7046149 10.1830769,63.8092308 C10.4415398,63.9138467 10.6794861,64.0399993 10.8969231,64.1876923 C11.1143601,64.3353854 11.3071786,64.4953838 11.4753846,64.6676923 L10.7738462,65.6092308 C10.7287177,65.666667 10.6753849,65.7189741 10.6138462,65.7661538 C10.5523074,65.8133336 10.4661544,65.8369231 10.3553846,65.8369231 C10.2815381,65.8369231 10.2117952,65.820513 10.1461538,65.7876923 C10.0805125,65.7548716 10.0107696,65.714872 9.93692308,65.6676923 C9.86307655,65.6205126 9.78205172,65.569231 9.69384615,65.5138462 C9.60564058,65.4584613 9.50102625,65.4071797 9.38,65.36 C9.25897375,65.3128203 9.11743671,65.2728207 8.95538462,65.24 C8.79333252,65.2071793 8.60359083,65.1907692 8.38615385,65.1907692 C8.04153674,65.1907692 7.72666809,65.2543583 7.44153846,65.3815385 C7.15640883,65.5087186 6.91025745,65.6943578 6.70307692,65.9384615 C6.4958964,66.1825653 6.335898,66.4820495 6.22307692,66.8369231 C6.11025585,67.1917966 6.05384615,67.5969208 6.05384615,68.0523077 C6.05384615,68.5117972 6.11640963,68.9199982 6.24153846,69.2769231 C6.36666729,69.6338479 6.536922,69.9343578 6.75230769,70.1784615 C6.96769338,70.4225653 7.21897292,70.6082045 7.50615385,70.7353846 C7.79333477,70.8625647 8.101024,70.9261538 8.42923077,70.9261538 C8.61794966,70.9261538 8.79025563,70.9169232 8.94615385,70.8984615 C9.10205206,70.8799999 9.24769163,70.849231 9.38307692,70.8061538 C9.51846222,70.7630767 9.64564043,70.7056414 9.76461538,70.6338462 C9.88359034,70.5620509 10.0046148,70.4707698 10.1276923,70.36 C10.1769233,70.3189742 10.2302561,70.2851283 10.2876923,70.2584615 C10.3451285,70.2317947 10.4046151,70.2184615 10.4661538,70.2184615 Z M21.2907692,68.0523077 C21.2907692,68.7005161 21.1789755,69.303587 20.9553846,69.8615385 C20.7317938,70.41949 20.4169251,70.9046133 20.0107692,71.3169231 C19.6046134,71.7292328 19.1153875,72.0523065 18.5430769,72.2861538 C17.9707664,72.5200012 17.3359009,72.6369231 16.6384615,72.6369231 C15.9410222,72.6369231 15.3051311,72.5200012 14.7307692,72.2861538 C14.1564074,72.0523065 13.6651302,71.7292328 13.2569231,71.3169231 C12.8487159,70.9046133 12.5328216,70.41949 12.3092308,69.8615385 C12.0856399,69.303587 11.9738462,68.7005161 11.9738462,68.0523077 C11.9738462,67.4040993 12.0856399,66.8010284 12.3092308,66.2430769 C12.5328216,65.6851254 12.8487159,65.2010277 13.2569231,64.7907692 C13.6651302,64.3805108 14.1564074,64.0584627 14.7307692,63.8246154 C15.3051311,63.5907681 15.9410222,63.4738462 16.6384615,63.4738462 C17.3359009,63.4738462 17.9707664,63.5917937 18.5430769,63.8276923 C19.1153875,64.0635909 19.6046134,64.3866646 20.0107692,64.7969231 C20.4169251,65.2071815 20.7317938,65.6912793 20.9553846,66.2492308 C21.1789755,66.8071823 21.2907692,67.4082019 21.2907692,68.0523077 Z M19.1615385,68.0523077 C19.1615385,67.6092286 19.1041031,67.2102582 18.9892308,66.8553846 C18.8743584,66.500511 18.7092318,66.2000012 18.4938462,65.9538462 C18.2784605,65.7076911 18.0148734,65.518975 17.7030769,65.3876923 C17.3912805,65.2564096 17.0364122,65.1907692 16.6384615,65.1907692 C16.2364082,65.1907692 15.8784631,65.2564096 15.5646154,65.3876923 C15.2507677,65.518975 14.9861549,65.7076911 14.7707692,65.9538462 C14.5553835,66.2000012 14.390257,66.500511 14.2753846,66.8553846 C14.1605122,67.2102582 14.1030769,67.6092286 14.1030769,68.0523077 C14.1030769,68.4994894 14.1605122,68.900511 14.2753846,69.2553846 C14.390257,69.6102582 14.5553835,69.910768 14.7707692,70.1569231 C14.9861549,70.4030782 15.2507677,70.5907686 15.5646154,70.72 C15.8784631,70.8492314 16.2364082,70.9138462 16.6384615,70.9138462 C17.0364122,70.9138462 17.3912805,70.8492314 17.7030769,70.72 C18.0148734,70.5907686 18.2784605,70.4030782 18.4938462,70.1569231 C18.7092318,69.910768 18.8743584,69.6102582 18.9892308,69.2553846 C19.1041031,68.900511 19.1615385,68.4994894 19.1615385,68.0523077 Z M32.5953846,63.5723077 L32.5953846,72.5384615 L30.7615385,72.5384615 L30.7615385,67.3815385 C30.7615385,67.2625635 30.7646154,67.133334 30.7707692,66.9938462 C30.7769231,66.8543583 30.788205,66.7128212 30.8046154,66.5692308 L28.4230769,71.1784615 C28.3492304,71.322052 28.2497442,71.4307689 28.1246154,71.5046154 C27.9994866,71.5784619 27.8569239,71.6153846 27.6969231,71.6153846 L27.4138462,71.6153846 C27.2538454,71.6153846 27.1112827,71.5784619 26.9861538,71.5046154 C26.861025,71.4307689 26.7615388,71.322052 26.6876923,71.1784615 L24.3061538,66.5569231 C24.3184616,66.7046161 24.3287179,66.8492301 24.3369231,66.9907692 C24.3451282,67.1323084 24.3492308,67.2625635 24.3492308,67.3815385 L24.3492308,72.5384615 L22.5153846,72.5384615 L22.5153846,63.5723077 L24.1030769,63.5723077 C24.1933338,63.5723077 24.2723074,63.574359 24.34,63.5784615 C24.4076926,63.5825641 24.4682049,63.5948717 24.5215385,63.6153846 C24.5748721,63.6358975 24.6230767,63.6676921 24.6661538,63.7107692 C24.709231,63.7538464 24.7512818,63.8143586 24.7923077,63.8923077 L27.1,68.44 C27.1820517,68.5958982 27.2610253,68.7579479 27.3369231,68.9261538 C27.4128209,69.0943598 27.4856407,69.2666658 27.5553846,69.4430769 C27.6251286,69.2625632 27.6979483,69.0861547 27.7738462,68.9138462 C27.849744,68.7415376 27.9307688,68.5774367 28.0169231,68.4215385 L30.3184615,63.8923077 C30.3594874,63.8143586 30.4015382,63.7538464 30.4446154,63.7107692 C30.4876925,63.6676921 30.5358972,63.6358975 30.5892308,63.6153846 C30.6425644,63.5948717 30.7030766,63.5825641 30.7707692,63.5784615 C30.8384619,63.574359 30.9174354,63.5723077 31.0076923,63.5723077 L32.5953846,63.5723077 Z" id=".COM" fill="#2DC3F5"></path>
            </g>
        </g>
    </g>
</svg>