<?xml version="1.0" encoding="UTF-8"?>
<svg width="289px" height="40px" viewBox="0 0 289 40" version="1.1" xmlns="http://www.w3.org/2000/svg" xmlns:xlink="http://www.w3.org/1999/xlink">
    <!-- Generator: Sketch 57.1 (83088) - https://sketch.com -->
    <title>logo/new</title>
    <desc>Created with Sketch.</desc>
    <g id="logo/new" stroke="none" stroke-width="1" fill="none" fill-rule="evenodd">
        <g id="Group" transform="translate(1.000000, 0.000000)">
            <path d="M44.3772268,1.88467109 L35.5949904,24.7277896 C33.6931909,29.6744831 28.9678437,32.9464661 23.6898211,33.0057892 L23.3724947,33.0054811 L32.108327,10.2041688 C34.012683,5.23362734 38.7574521,1.9440749 44.0585138,1.88436546 L44.3772268,1.88467109 Z M30.2167721,8.38764703 L23.8199349,24.7405683 C21.9090707,29.6255156 17.2556807,32.8735884 12.0326373,33.0015573 L11.7121659,33.0054811 L17.6905254,17.0675146 C19.6113028,11.9468314 24.4496013,8.52132872 29.895728,8.39147236 L30.2167721,8.38764703 Z M15.6919646,15.703495 L12.1850454,24.6829704 C10.2641369,29.6014615 5.580374,32.8726493 0.322602956,33.0015294 L-4.64517314e-13,33.0054811 L3.23384492,24.348635 C5.13857972,19.2497524 9.9523122,15.8366923 15.3724509,15.7073064 L15.6919646,15.703495 Z" id="Combined-Shape" fill="#2DC3F5"></path>
            <path d="M69.5733741,32.899128 L64.0060352,32.899128 C63.3827168,32.899128 62.8691951,32.7537394 62.4654548,32.4629578 C62.0617144,32.1721762 61.7819336,31.7998395 61.626104,31.3459366 L59.7986569,25.9416812 L48.0264975,25.9416812 L46.1990504,31.3459366 C46.0573871,31.7431017 45.7811479,32.1012541 45.3703244,32.4204046 C44.9595009,32.7395552 44.4566038,32.899128 43.8616181,32.899128 L38.2517804,32.899128 L50.2364336,1.89912804 L57.5887209,1.89912804 L69.5733741,32.899128 Z M49.6839496,21.0480642 L58.1412049,21.0480642 L55.2937873,12.5587025 C55.109625,12.0196927 54.8935918,11.3849473 54.645681,10.6544472 C54.3977703,9.92394709 54.1534048,9.13317485 53.9125772,8.28210677 C53.685916,9.14735932 53.4521751,9.94876975 53.2113475,10.6863621 C52.97052,11.4239544 52.7438621,12.0622459 52.5313672,12.6012557 L49.6839496,21.0480642 Z M85.5104129,32.899128 C85.0995894,32.899128 84.7560611,32.8069304 84.4798177,32.6225323 C84.2035743,32.4381342 84.0087902,32.1615412 83.8954596,31.7927451 L83.3854743,30.111894 C82.9463182,30.5799814 82.4859195,31.0055091 82.0042643,31.3884897 C81.5226092,31.7714704 81.0020044,32.1012543 80.4424345,32.3778514 C79.8828646,32.6544486 79.2808047,32.8672124 78.6362368,33.0161493 C77.9916689,33.1650862 77.2939877,33.2395536 76.5431723,33.2395536 C75.3956998,33.2395536 74.3332412,32.984237 73.3557646,32.4735961 C72.378288,31.9629553 71.5354041,31.225374 70.8270877,30.2608302 C70.1187713,29.2962863 69.5627513,28.1154471 69.159011,26.718277 C68.7552707,25.3211069 68.5534035,23.7289242 68.5534035,21.9416812 C68.5534035,20.2962829 68.7800614,18.7679294 69.2333838,17.3565749 C69.6867063,15.9452203 70.327723,14.7253743 71.1564532,13.6970004 C71.9851834,12.6686264 72.9803529,11.86367 74.1419918,11.2821068 C75.3036307,10.7005436 76.5856641,10.4097663 77.9881305,10.4097663 C79.1214367,10.4097663 80.081191,10.5764313 80.8674222,10.9097663 C81.6536534,11.2431013 82.3655007,11.6792672 83.0029854,12.218277 L83.0029854,1.04806421 L89.5902948,1.04806421 L89.5902948,32.899128 L85.5104129,32.899128 Z M78.8381059,28.1757238 C79.3197611,28.1757238 79.7553691,28.129625 80.1449431,28.0374259 C80.5345171,27.9452269 80.8922115,27.8140217 81.2180371,27.6438089 C81.5438626,27.4735953 81.8519756,27.2608302 82.1423853,27.005511 C82.432795,26.7501919 82.7196603,26.4523212 83.0029854,26.111894 L83.0029854,16.7501919 C82.4929976,16.1969976 81.9511437,15.8104767 81.3774075,15.5906174 C80.8036712,15.3707582 80.1980698,15.2608302 79.560585,15.2608302 C78.9514329,15.2608302 78.3918714,15.3813963 77.8818836,15.6225323 C77.3718958,15.8636683 76.9292047,16.2501892 76.553797,16.7821068 C76.1783893,17.3140243 75.8844425,18.0055068 75.6719475,18.8565749 C75.4594526,19.7076429 75.3532068,20.7360014 75.3532068,21.9416812 C75.3532068,23.1048076 75.4382035,24.0835212 75.6081994,24.8778514 C75.7781945,25.6721817 76.0154777,26.3140192 76.3200538,26.8033834 C76.6246298,27.2927475 76.9894073,27.6438078 77.4143971,27.8565749 C77.839387,28.0693419 78.3139518,28.1757238 78.8381059,28.1757238 Z M102.467422,10.4948727 C104.139049,10.4948727 105.661906,10.7572814 107.03604,11.2821068 C108.410174,11.8069321 109.589503,12.5586976 110.574063,13.5374259 C111.558622,14.5161542 112.323593,15.7040856 112.868996,17.1012557 C113.4144,18.4984258 113.687097,20.0693321 113.687097,21.8140217 C113.687097,23.5728957 113.4144,25.1579862 112.868996,26.5693408 C112.323593,27.9806954 111.558622,29.179265 110.574063,30.1650855 C109.589503,31.150906 108.410174,31.9097637 107.03604,32.4416812 C105.661906,32.9735988 104.139049,33.2395536 102.467422,33.2395536 C100.781629,33.2395536 99.2481472,32.9735988 97.8669302,32.4416812 C96.4857133,31.9097637 95.2957596,31.150906 94.2970335,30.1650855 C93.2983074,29.179265 92.5262542,27.9806954 91.9808506,26.5693408 C91.4354469,25.1579862 91.1627492,23.5728957 91.1627492,21.8140217 C91.1627492,20.0693321 91.4354469,18.4984258 91.9808506,17.1012557 C92.5262542,15.7040856 93.2983074,14.5161542 94.2970335,13.5374259 C95.2957596,12.5586976 96.4857133,11.8069321 97.8669302,11.2821068 C99.2481472,10.7572814 100.781629,10.4948727 102.467422,10.4948727 Z M102.467422,28.3459366 C103.983219,28.3459366 105.098801,27.8104809 105.8142,26.7395536 C106.5296,25.6686262 106.887294,24.0409829 106.887294,21.8565749 C106.887294,19.6721668 106.5296,18.0480695 105.8142,16.9842344 C105.098801,15.9203993 103.983219,15.3884897 102.467422,15.3884897 C100.909126,15.3884897 99.7687538,15.9203993 99.0462711,16.9842344 C98.3237884,18.0480695 97.9625525,19.6721668 97.9625525,21.8565749 C97.9625525,24.0409829 98.3237884,25.6686262 99.0462711,26.7395536 C99.7687538,27.8104809 100.909126,28.3459366 102.467422,28.3459366 Z M115.259552,39.899128 L115.259552,10.8352983 L119.339434,10.8352983 C119.750257,10.8352983 120.093786,10.9274959 120.370029,11.111894 C120.646272,11.2962921 120.841057,11.5728851 120.954387,11.9416812 L121.443123,13.5587025 C121.868113,13.0906151 122.32497,12.6650874 122.813708,12.2821068 C123.302447,11.8991261 123.826593,11.5693422 124.386163,11.2927451 C124.945733,11.0161479 125.547793,10.799838 126.192361,10.6438089 C126.836928,10.4877797 127.541693,10.4097663 128.306674,10.4097663 C129.454147,10.4097663 130.516606,10.6650829 131.494082,11.1757238 C132.471559,11.6863646 133.314443,12.4239459 134.022759,13.3884897 C134.731075,14.3530336 135.287095,15.5338728 135.690836,16.9310429 C136.094576,18.328213 136.296443,19.9133036 136.296443,21.6863621 C136.296443,23.3459449 136.066244,24.8778444 135.605838,26.2821068 C135.145433,27.6863691 134.500874,28.9062151 133.672144,29.9416812 C132.843414,30.9771474 131.851786,31.78565 130.69723,32.3672132 C129.542675,32.9487763 128.264183,33.2395536 126.861716,33.2395536 C125.714244,33.2395536 124.750948,33.0764346 123.9718,32.7501919 C123.192652,32.4239491 122.484346,31.9842372 121.846861,31.4310429 L121.846861,39.899128 L115.259552,39.899128 Z M126.011741,15.4523195 C125.530086,15.4523195 125.094478,15.4984184 124.704904,15.5906174 C124.31533,15.6828164 123.954094,15.8140208 123.621185,15.9842344 C123.288276,16.154448 122.980163,16.3707579 122.696837,16.6331706 C122.413512,16.8955833 122.130186,17.1969987 121.846861,17.5374259 L121.846861,26.899128 C122.342683,27.4523195 122.880995,27.8388433 123.461815,28.0587025 C124.042634,28.2785618 124.651777,28.3884897 125.289262,28.3884897 C125.898414,28.3884897 126.457975,28.2679236 126.967963,28.0267876 C127.477951,27.7856517 127.920642,27.3991307 128.29605,26.8672132 C128.671457,26.3352956 128.965404,25.6438132 129.177899,24.7927451 C129.390394,23.941677 129.49664,22.9062263 129.49664,21.6863621 C129.49664,20.5232357 129.411643,19.5445221 129.241647,18.7501919 C129.071652,17.9558617 128.834369,17.3140241 128.529793,16.82466 C128.225217,16.3352958 127.860439,15.9842355 127.43545,15.7714685 C127.01046,15.5587014 126.535895,15.4523195 126.011741,15.4523195 Z M145.518676,33.2395536 C144.470368,33.2395536 143.546029,33.0870728 142.745632,32.7821068 C141.945234,32.4771407 141.272344,32.0445209 140.72694,31.4842344 C140.181536,30.9239479 139.767177,30.2466497 139.483851,29.4523195 C139.200524,28.6579893 139.058863,27.7714734 139.058863,26.7927451 L139.058863,15.3884897 L137.188917,15.3884897 C136.848925,15.3884897 136.55852,15.2785618 136.317693,15.0587025 C136.076865,14.8388433 135.956453,14.5161514 135.956453,14.0906174 L135.956453,11.5161493 L139.462602,10.8352983 L140.758814,5.45231953 C140.92881,4.77146507 141.410458,4.43104294 142.203772,4.43104294 L145.646173,4.43104294 L145.646173,10.8778514 L151.001018,10.8778514 L151.001018,15.3884897 L145.646173,15.3884897 L145.646173,26.3459366 C145.646173,26.8565774 145.770126,27.278559 146.018037,27.611894 C146.265948,27.945229 146.623642,28.111894 147.091131,28.111894 C147.331958,28.111894 147.533825,28.0870716 147.696738,28.0374259 C147.859651,27.9877803 148.001312,27.9310429 148.121726,27.8672132 C148.24214,27.803383 148.355469,27.746646 148.461716,27.6970004 C148.567964,27.6473547 148.691917,27.6225323 148.83358,27.6225323 C149.031909,27.6225323 149.191278,27.6686311 149.311692,27.7608302 C149.432105,27.8530292 149.556059,27.9984178 149.683556,28.1970004 L151.680998,31.32466 C150.831018,31.962961 149.874806,32.4416796 148.812331,32.7608302 C147.749856,33.0799807 146.651982,33.2395536 145.518676,33.2395536 Z M162.560683,10.4948727 C164.23231,10.4948727 165.755167,10.7572814 167.129301,11.2821068 C168.503435,11.8069321 169.682764,12.5586976 170.667324,13.5374259 C171.651883,14.5161542 172.416853,15.7040856 172.962257,17.1012557 C173.507661,18.4984258 173.780358,20.0693321 173.780358,21.8140217 C173.780358,23.5728957 173.507661,25.1579862 172.962257,26.5693408 C172.416853,27.9806954 171.651883,29.179265 170.667324,30.1650855 C169.682764,31.150906 168.503435,31.9097637 167.129301,32.4416812 C165.755167,32.9735988 164.23231,33.2395536 162.560683,33.2395536 C160.87489,33.2395536 159.341408,32.9735988 157.960191,32.4416812 C156.578974,31.9097637 155.389021,31.150906 154.390294,30.1650855 C153.391568,29.179265 152.619515,27.9806954 152.074112,26.5693408 C151.528708,25.1579862 151.25601,23.5728957 151.25601,21.8140217 C151.25601,20.0693321 151.528708,18.4984258 152.074112,17.1012557 C152.619515,15.7040856 153.391568,14.5161542 154.390294,13.5374259 C155.389021,12.5586976 156.578974,11.8069321 157.960191,11.2821068 C159.341408,10.7572814 160.87489,10.4948727 162.560683,10.4948727 Z M162.560683,28.3459366 C164.07648,28.3459366 165.192062,27.8104809 165.907461,26.7395536 C166.622861,25.6686262 166.980555,24.0409829 166.980555,21.8565749 C166.980555,19.6721668 166.622861,18.0480695 165.907461,16.9842344 C165.192062,15.9203993 164.07648,15.3884897 162.560683,15.3884897 C161.002387,15.3884897 159.862015,15.9203993 159.139532,16.9842344 C158.417049,18.0480695 158.055813,19.6721668 158.055813,21.8565749 C158.055813,24.0409829 158.417049,25.6686262 159.139532,26.7395536 C159.862015,27.8104809 161.002387,28.3459366 162.560683,28.3459366 Z" id="Adopto" fill="#032A50" fill-rule="nonzero"></path>
            <path d="M193.861028,17.8085106 C194.144354,18.3475204 194.417052,18.9077985 194.679129,19.4893617 C194.941206,20.0709249 195.192655,20.6666636 195.433482,21.2765957 C195.67431,20.6524791 195.9293,20.0461022 196.19846,19.4574468 C196.46762,18.8687914 196.74386,18.2978751 197.027186,17.7446809 L204.974456,2.08510638 C205.11612,1.81560149 205.261322,1.60638372 205.410069,1.45744681 C205.558815,1.30850989 205.725268,1.19858191 205.909429,1.12765957 C206.093591,1.05673723 206.302542,1.01418447 206.536286,1 C206.77003,0.985815532 207.042728,0.978723404 207.354387,0.978723404 L212.836729,0.978723404 L212.836729,31.9787234 L206.504412,31.9787234 L206.504412,14.1489362 C206.504412,13.2836836 206.54691,12.3475228 206.631908,11.3404255 L198.429646,27.2765957 C198.174652,27.7730521 197.831123,28.1489349 197.39905,28.4042553 C196.966977,28.6595757 196.474705,28.787234 195.922218,28.787234 L194.944746,28.787234 C194.39226,28.787234 193.899987,28.6595757 193.467914,28.4042553 C193.035841,28.1489349 192.692312,27.7730521 192.437319,27.2765957 L184.192558,11.3191489 C184.249223,11.8156053 184.291721,12.3085082 184.320054,12.7978723 C184.348387,13.2872365 184.362553,13.7375866 184.362553,14.1489362 L184.362553,31.9787234 L178.030236,31.9787234 L178.030236,0.978723404 L183.512577,0.978723404 C183.824236,0.978723404 184.096934,0.985815532 184.330679,1 C184.564423,1.01418447 184.773373,1.05673723 184.957535,1.12765957 C185.141698,1.19858191 185.30815,1.30850989 185.456896,1.45744681 C185.605642,1.60638372 185.750846,1.81560149 185.892508,2.08510638 L193.861028,17.8085106 Z M225.331367,9.57446809 C226.790499,9.57446809 228.125655,9.80141617 229.336876,10.2553191 C230.548097,10.7092221 231.589307,11.36879 232.460536,12.2340426 C233.331765,13.0992951 234.011739,14.1595682 234.500477,15.4148936 C234.989215,16.670219 235.233581,18.0921906 235.233581,19.6808511 C235.233581,20.1773074 235.212331,20.5815587 235.169832,20.893617 C235.127333,21.2056753 235.04942,21.4538998 234.936089,21.6382979 C234.822759,21.822696 234.670473,21.9503543 234.479227,22.0212766 C234.287982,22.0921989 234.043617,22.1276596 233.746124,22.1276596 L221.038991,22.1276596 C221.251485,23.9716404 221.811048,25.3085065 222.717693,26.1382979 C223.624338,26.9680893 224.793042,27.3829787 226.223841,27.3829787 C226.988823,27.3829787 227.647547,27.2907811 228.200034,27.106383 C228.752521,26.9219849 229.244793,26.7163132 229.676866,26.4893617 C230.108939,26.2624102 230.505591,26.0567385 230.866832,25.8723404 C231.228073,25.6879423 231.607017,25.5957447 232.003674,25.5957447 C232.527828,25.5957447 232.924479,25.7872321 233.19364,26.1702128 L235.106084,28.5319149 C234.426101,29.3120606 233.693004,29.9468061 232.906773,30.4361702 C232.120542,30.9255344 231.313073,31.3085093 230.484343,31.5851064 C229.655613,31.8617035 228.826895,32.053191 227.998165,32.1595745 C227.169435,32.265958 226.379674,32.3191489 225.628859,32.3191489 C224.084729,32.3191489 222.636244,32.0673784 221.283359,31.5638298 C219.930475,31.0602812 218.747604,30.3120617 217.734712,29.3191489 C216.72182,28.3262362 215.921434,27.092206 215.333531,25.6170213 C214.745629,24.1418366 214.451682,22.4255417 214.451682,20.4680851 C214.451682,18.9929004 214.70313,17.5957513 215.206035,16.2765957 C215.70894,14.9574402 216.431412,13.8014234 217.373472,12.8085106 C218.315533,11.8155979 219.455905,11.0283717 220.794623,10.4468085 C222.133341,9.86524532 223.645574,9.57446809 225.331367,9.57446809 Z M225.458863,14.1276596 C224.19806,14.1276596 223.213515,14.485812 222.505199,15.2021277 C221.796883,15.9184433 221.329401,16.9503479 221.102739,18.2978723 L229.326252,18.2978723 C229.326252,17.773047 229.258962,17.2624138 229.124382,16.7659574 C228.989802,16.2695011 228.770227,15.8262431 228.465651,15.4361702 C228.161075,15.0460973 227.760883,14.7304977 227.265061,14.4893617 C226.76924,14.2482257 226.16718,14.1276596 225.458863,14.1276596 Z M252.445582,31.9787234 C252.034759,31.9787234 251.691231,31.8865257 251.414987,31.7021277 C251.138744,31.5177296 250.94396,31.2411366 250.830629,30.8723404 L250.320644,29.1914894 C249.881488,29.6595768 249.421089,30.0851045 248.939434,30.4680851 C248.457779,30.8510657 247.937174,31.1808497 247.377604,31.4574468 C246.818034,31.7340439 246.215974,31.9468078 245.571406,32.0957447 C244.926838,32.2446816 244.229157,32.3191489 243.478342,32.3191489 C242.330869,32.3191489 241.268411,32.0638323 240.290934,31.5531915 C239.313458,31.0425506 238.470574,30.3049694 237.762257,29.3404255 C237.053941,28.3758817 236.497921,27.1950424 236.094181,25.7978723 C235.69044,24.4007022 235.488573,22.8085196 235.488573,21.0212766 C235.488573,19.3758783 235.715231,17.8475248 236.168553,16.4361702 C236.621876,15.0248156 237.262893,13.8049697 238.091623,12.7765957 C238.920353,11.7482218 239.915523,10.9432653 241.077161,10.3617021 C242.2388,9.78013894 243.520834,9.4893617 244.9233,9.4893617 C246.056606,9.4893617 247.016361,9.6560267 247.802592,9.9893617 C248.588823,10.3226967 249.30067,10.7588626 249.938155,11.2978723 L249.938155,0.127659574 L256.525464,0.127659574 L256.525464,31.9787234 L252.445582,31.9787234 Z M245.773276,27.2553191 C246.254931,27.2553191 246.690539,27.2092203 247.080113,27.1170213 C247.469687,27.0248222 247.827381,26.893617 248.153207,26.7234043 C248.479032,26.5531906 248.787145,26.3404255 249.077555,26.0851064 C249.367965,25.8297872 249.654828,25.5319166 249.938155,25.1914894 L249.938155,15.8297872 C249.428167,15.276593 248.886313,14.890072 248.312577,14.6702128 C247.738841,14.4503535 247.133239,14.3404255 246.495755,14.3404255 C245.886603,14.3404255 245.327041,14.4609917 244.817053,14.7021277 C244.307065,14.9432636 243.864374,15.3297846 243.488967,15.8617021 C243.113559,16.3936197 242.819612,17.0851021 242.607117,17.9361702 C242.394622,18.7872383 242.288376,19.8155968 242.288376,21.0212766 C242.288376,22.184403 242.373373,23.1631166 242.543369,23.9574468 C242.713364,24.751777 242.950647,25.3936146 243.255223,25.8829787 C243.559799,26.3723429 243.924577,26.7234032 244.349567,26.9361702 C244.774557,27.1489372 245.249121,27.2553191 245.773276,27.2553191 Z M266.385179,9.91489362 L266.385179,31.9787234 L259.79787,31.9787234 L259.79787,9.91489362 L266.385179,9.91489362 Z M267.150157,3.87234043 C267.150157,4.39716574 267.043911,4.89006862 266.831416,5.35106383 C266.618921,5.81205904 266.328516,6.21631032 265.960191,6.56382979 C265.591867,6.91134926 265.163342,7.18794223 264.674604,7.39361702 C264.185865,7.59929181 263.665261,7.70212766 263.112774,7.70212766 C262.574453,7.70212766 262.071556,7.59929181 261.604067,7.39361702 C261.136579,7.18794223 260.72222,6.91134926 260.360978,6.56382979 C259.999737,6.21631032 259.716415,5.81205904 259.511003,5.35106383 C259.305591,4.89006862 259.202887,4.39716574 259.202887,3.87234043 C259.202887,3.33333064 259.305591,2.82978957 259.511003,2.36170213 C259.716415,1.89361468 259.999737,1.48227128 260.360978,1.12765957 C260.72222,0.773047872 261.136579,0.496453901 261.604067,0.29787234 C262.071556,0.0992897872 262.574453,-2.55795385e-13 263.112774,-2.55795385e-13 C263.665261,-2.55795385e-13 264.185865,0.0992897872 264.674604,0.29787234 C265.163342,0.496453901 265.591867,0.773047872 265.960191,1.12765957 C266.328516,1.48227128 266.618921,1.89361468 266.831416,2.36170213 C267.043911,2.82978957 267.150157,3.33333064 267.150157,3.87234043 Z M284.872144,31.9787234 C284.248826,31.9787234 283.777802,31.8936179 283.45906,31.7234043 C283.140318,31.5531906 282.874703,31.1985843 282.662208,30.6595745 L282.194722,29.4468085 C281.642235,29.914896 281.111005,30.3262394 280.601018,30.6808511 C280.09103,31.0354628 279.563342,31.3368782 279.017938,31.5851064 C278.472535,31.8333346 277.891724,32.0177299 277.275489,32.1382979 C276.659254,32.2588659 275.975739,32.3191489 275.224923,32.3191489 C274.219114,32.3191489 273.3054,32.1879446 272.483753,31.9255319 C271.662106,31.6631193 270.964424,31.2765983 270.390688,30.7659574 C269.816952,30.2553166 269.374261,29.6205712 269.062602,28.8617021 C268.750942,28.1028331 268.595115,27.2269553 268.595115,26.2340426 C268.595115,25.4538968 268.793441,24.6524864 269.190098,23.8297872 C269.586755,23.0070881 270.273812,22.2588686 271.251288,21.5851064 C272.228765,20.9113441 273.546213,20.34752 275.203674,19.893617 C276.861134,19.439714 278.950636,19.1843974 281.472242,19.1276596 L281.472242,18.1914894 C281.472242,16.9007028 281.206628,15.968088 280.67539,15.393617 C280.144153,14.8191461 279.389808,14.5319149 278.412331,14.5319149 C277.633183,14.5319149 276.995708,14.6170204 276.499886,14.787234 C276.004065,14.9574477 275.561374,15.1489351 275.1718,15.3617021 C274.782226,15.5744691 274.403282,15.7659566 274.034958,15.9361702 C273.666633,16.1063838 273.227484,16.1914894 272.717496,16.1914894 C272.264173,16.1914894 271.878147,16.0815614 271.559404,15.8617021 C271.240662,15.6418429 270.989213,15.368796 270.805051,15.0425532 L269.615086,12.9787234 C270.94672,11.8014126 272.423538,10.9255348 274.045582,10.3510638 C275.667627,9.77659287 277.406517,9.4893617 279.262306,9.4893617 C280.593941,9.4893617 281.794519,9.7056716 282.864077,10.1382979 C283.933635,10.5709241 284.840266,11.173755 285.583998,11.9468085 C286.327731,12.719862 286.897917,13.6382926 287.294574,14.7021277 C287.691231,15.7659628 287.889557,16.9290717 287.889557,18.1914894 L287.889557,31.9787234 L284.872144,31.9787234 Z M277.307363,27.9574468 C278.157343,27.9574468 278.901064,27.8085121 279.538548,27.5106383 C280.176033,27.2127645 280.820591,26.7304998 281.472242,26.0638298 L281.472242,23 C280.154774,23.0567379 279.071066,23.1702119 278.221087,23.3404255 C277.371107,23.5106391 276.698216,23.723403 276.202395,23.9787234 C275.706573,24.2340438 275.363045,24.5248211 275.1718,24.8510638 C274.980554,25.1773066 274.884933,25.531913 274.884933,25.9148936 C274.884933,26.6666704 275.090342,27.1950339 275.501165,27.5 C275.911989,27.8049661 276.514049,27.9574468 277.307363,27.9574468 Z" id="Media" fill="#2DC3F5" fill-rule="nonzero"></path>
        </g>
    </g>
</svg>