<?xml version="1.0" encoding="UTF-8"?>
<svg width="34px" height="34px" viewBox="0 0 34 34" version="1.1" xmlns="http://www.w3.org/2000/svg" xmlns:xlink="http://www.w3.org/1999/xlink">
    <!-- Generator: Sketch 55.2 (78181) - https://sketchapp.com -->
    <title>Path</title>
    <desc>Created with Sketch.</desc>
    <g id="Page-1" stroke="none" stroke-width="1" fill="none" fill-rule="evenodd">
        <g id="Adoptomedia-home" transform="translate(-517.000000, -3431.000000)" fill="#3EB5E6">
            <g id="Group-13" transform="translate(55.000000, 3213.000000)">
                <g id="Group-10" transform="translate(231.000000, 111.000000)">
                    <path d="M230.662259,127.983112 C233.680738,130.019212 236.946632,132.055312 239.717695,134.488699 C241.152709,135.730224 242.439274,137.120731 243.527905,138.709882 C244.567054,140.299033 245.160853,142.18615 246.298968,143.72564 C247.882432,145.861062 250.75246,145.165809 251.296776,142.732421 C254.958537,137.07107 259.461513,130.764126 264.657255,126.592604 C265.597437,125.84769 264.409839,124.407522 263.420174,124.953792 C258.719264,127.734807 254.760604,130.96277 251.296776,134.836326 C251.395743,131.012431 251.544192,127.138875 251.593676,123.31498 C251.643159,119.888373 251.692642,116.412105 251.742126,112.985498 C251.791609,110.154822 252.335925,107.125503 251.989542,104.294827 C251.643159,100.917881 246.002068,99.3783909 245.457752,103.40093 C244.616537,109.608551 245.606202,116.511427 245.705168,122.768709 C245.754652,126.046334 245.903101,129.323958 246.002068,132.601582 C245.358786,132.055312 244.715503,131.558702 244.121704,131.111753 C240.360977,128.330739 236.30335,126.443622 231.800374,125.35108 C230.167426,124.953792 229.326211,127.039553 230.662259,127.983112 Z" id="Path" transform="translate(247.500000, 123.000000) rotate(45.000000) translate(-247.500000, -123.000000) "></path>
                </g>
            </g>
        </g>
    </g>
</svg>