<?xml version="1.0" encoding="UTF-8"?>
<svg width="72px" height="61px" viewBox="0 0 72 61" version="1.1" xmlns="http://www.w3.org/2000/svg" xmlns:xlink="http://www.w3.org/1999/xlink">
    <!-- Generator: Sketch 55.2 (78181) - https://sketchapp.com -->
    <title>firewark</title>
    <desc>Created with Sketch.</desc>
    <g id="Page-1" stroke="none" stroke-width="1" fill="none" fill-rule="evenodd">
        <g id="Adoptomedia-home" transform="translate(-605.000000, -4228.000000)" fill="#3EB5E6">
            <g id="Group-14" transform="translate(181.000000, 4228.000000)">
                <g id="firewark" transform="translate(416.000000, 0.000000)">
                    <path d="M77.3079731,31.8390001 C71.6290671,33.2166473 65.9907247,32.3252285 60.392946,31.0286194 C59.1354739,30.7449862 58.1619472,32.6493808 59.4599828,33.2166473 C62.1371814,34.4322183 64.7738163,35.323637 67.4915784,35.8098655 C62.9890173,37.9168552 58.9732195,40.9557828 57.1478568,45.4939146 C49.562461,45.7775479 45.0193362,51.5717697 45.7900449,59.1488291 C45.9117357,60.242843 47.5748439,60.3238811 47.5342803,59.1488291 C47.4937167,55.0969257 50.2114788,50.3967177 54.186713,49.3027038 C54.7951672,49.1406277 55.4847486,49.0190706 56.2148937,48.9380325 C55.8092576,52.1795553 56.5799662,55.3400399 58.9326558,57.811701 C61.2447819,60.242843 64.4087438,60.0402479 67.0048151,57.9332581 C69.7225772,55.6641922 69.3980683,52.3416314 67.5321421,49.5863371 C66.0312883,47.3577902 63.8814168,46.3042953 61.5287272,45.8180669 C62.2994358,44.6835339 63.2323989,43.6705581 64.4087438,42.8601774 C66.9236878,41.0773399 69.8442681,39.7807308 72.8054119,38.7272359 C71.426249,41.6446064 70.371595,44.764572 70.4527223,47.5603854 C70.5338495,50.1941226 74.3468292,50.1536035 74.5090837,47.5603854 C74.793029,43.1032916 77.0645914,38.2815265 79.417281,34.5537754 C80.3502441,33.1761282 78.8493904,31.4743288 77.3079731,31.8390001 Z M65.5781888,52.8584923 C66.2594078,55.148147 64.0955358,58.031416 61.651162,56.6321825 C59.3670749,55.3177511 59.48729,51.3320558 60.0482939,49 C60.7695845,49.084802 61.4908752,49.2544061 62.0919507,49.4664112 C63.534532,50.0176243 65.0973284,51.2472537 65.5781888,52.8584923 Z" id="Shape"></path>
                    <path d="M42.9562814,11.357818 C43.12483,11.8307718 43.5196931,12.181846 44.0410936,12.1837495 C48.2429063,12.1990846 50.7981835,11.9846649 55,12 C56.0265228,12.0037464 51.0142152,13.6189836 48.3658082,15.2107728 C47.5695893,15.6893304 46.4885842,16.0715974 46.1380136,17.0291627 C45.7586496,18.065368 46.8139474,19.7129586 47.1242311,20.6426728 C48.1658609,23.7637742 49,26 49,27 C49,27.8620256 46.9663179,25.6311525 44.8041666,23.9064935 C44.0596674,23.3126367 42.8432901,21.7339776 41.7015512,21.7185548 C40.64937,21.7043412 39.8533189,22.5677484 39.0374353,23.1348756 C37.3194445,24.3290615 35.306966,25.9507696 33,28 C33.3635214,23.6412807 34.2181114,20.6424351 35.56377,19.0034631 C35.9833829,18.4923852 36.0470025,17.5770524 35.3360841,17.236564 C32.6970193,15.972606 28,13 28,13 C28,12 35.353975,14.5266908 37.9864518,12.7551683 C40.792299,10.8669733 40.6279183,0.6940823 40,2 C38.8778305,4.3338356 38.9716317,5.68876391 37.8655945,7.92717111 C35.8243843,12.0581773 30.8178192,11.2557329 26.8586193,11.2122873 C26.0800491,11.2037424 25.3566605,12.2057565 25.8872143,12.9050935 C27.954847,15.630504 33.3828417,18.5337105 33,19 C30.4836998,22.0647774 31.4611222,25.3226922 30.7666699,29.0974076 C30.5960156,30.0250046 31.519098,30.898063 32.4192921,30.3678811 C34.8406063,28.9418176 38.5858208,24.9953912 41.3327538,25.0001405 C44.1284615,25.0049737 47.5184762,28.9316438 49.6996361,30.6714624 C50.5985962,31.3885263 51.7684952,30.7229074 51.5799462,29.5768999 C51.1615598,27.0339314 48.4834251,20.1877184 48.7992285,17.8347365 C48.8259795,17.6354213 48.874213,17.4683466 48.9471223,17.338859 C49.3556573,16.613296 52.5950257,15.4989504 53.3779199,15.0205683 C54.9066675,14.0864329 56.1691568,13.1411356 57.4420297,11.9002527 C58.145086,11.214866 57.6115434,9.98327961 56.6465356,9.97975861 C54.8457582,9.97318591 53.0449807,9.96661321 51.2442033,9.96004041 C50.1235902,9.95594911 46.8615663,10.3798917 45.841871,9.94032221 C43.3055703,8.84697471 42.923414,3.51757741 42.418741,1.03952531 C42.1299912,-0.378288888 39.9607598,0.221784012 40.2491128,1.63766421 C41.2956623,5.99016895 42.1980518,9.23022021 42.9562814,11.357818 Z" id="Path"></path>
                    <path d="M25.3777325,29.329801 C26.1073743,29.2513758 26.1457765,28.2318475 25.3777325,28.1534222 C16.430019,27.2515318 6.71426145,37.1723264 9.47922012,46.4265064 C11.6681457,53.6024171 19.2717821,55.9551747 26.0689721,54.8572211 C23.8032421,56.347301 21.6143165,57.915806 19.6942063,59.8372248 C17.9661071,61.5625803 20.6158592,64.2682516 22.3439584,62.542896 C25.9921677,58.8569091 30.0628013,55.8767494 34.3254459,53.0142277 C35.3623054,52.347613 35.1702944,50.7791079 33.9798261,50.3869817 C29.1027462,48.8184766 25.2625259,46.0735927 20.961479,43.3287088 C19.8862173,42.6620942 18.9261622,44.152174 19.6558041,45.0540644 C21.6911209,47.4852473 24.3792752,49.3282407 27.2594404,50.7791079 C22.3823606,52.033912 15.8155837,51.5241479 13.2810383,46.8970579 C9.17200249,39.2505956 18.1581182,30.1924788 25.3777325,29.329801 Z" id="Path" transform="translate(22.000000, 45.596194) rotate(-225.000000) translate(-22.000000, -45.596194) "></path>
                </g>
            </g>
        </g>
    </g>
</svg>