<?xml version="1.0" encoding="UTF-8"?>
<svg width="122px" height="32px" viewBox="0 0 122 32" version="1.1" xmlns="http://www.w3.org/2000/svg" xmlns:xlink="http://www.w3.org/1999/xlink">
    <!-- Generator: Sketch 55.2 (78181) - https://sketchapp.com -->
    <title>Shape</title>
    <desc>Created with Sketch.</desc>
    <g id="Page-1" stroke="none" stroke-width="1" fill="none" fill-rule="evenodd">
        <g id="Adoptomedia-home" transform="translate(-576.000000, -4752.000000)" fill="#3EB5E6" fill-rule="nonzero">
            <path d="M606.350901,4783.91619 C604.283344,4783.60936 602.474999,4782.71694 601.094098,4781.32206 C599.942225,4780.15863 599.19537,4778.87922 598.644886,4777.12621 C597.785308,4774.38914 597.785052,4770.87016 598.644033,4768.18891 C599.476581,4765.59052 601.351093,4763.32869 603.645205,4762.1544 C606.822258,4760.52815 611.293836,4760.63032 614.236404,4762.39637 C616.884544,4763.98575 618.488589,4766.80994 618.934962,4770.66844 C619.071219,4771.84648 618.982797,4774.33488 618.76818,4775.36198 C617.889758,4779.56618 615.331574,4782.50297 611.583573,4783.60979 C611.179663,4783.729 610.553376,4783.86863 610.191843,4783.91984 C609.426742,4784.02844 607.091446,4784.02618 606.350901,4783.91619 Z M608.960546,4782.8711 C609.584655,4782.68484 610.354308,4781.95952 610.764772,4781.1709 C611.612042,4779.54295 611.990438,4777.13549 611.999864,4773.31273 C612.011582,4768.5219 611.26413,4765.47333 609.686589,4763.87715 C609.024155,4763.20681 608.554399,4762.99868 607.707393,4763 C605.827576,4763.00302 604.634508,4764.975 604.163166,4768.85787 C603.946525,4770.64279 603.945379,4774.89492 604.161139,4776.45542 C604.828771,4781.28502 606.552825,4783.58951 608.960546,4782.8711 L608.960546,4782.8711 Z M644.101799,4783.91256 C643.226675,4783.8241 640.552525,4783.38044 639.618389,4783.16869 L638.972169,4783.02218 L639.022536,4779.58173 C639.143912,4771.29829 639.159172,4766.77627 639.080578,4762.37861 C639.003659,4758.07064 638.981254,4757.6152 638.814539,4756.9779 C638.603366,4756.17044 638.298603,4755.60728 637.932094,4755.34707 C637.789724,4755.24603 637.402839,4755.10277 637.072407,4755.02873 C635.974114,4754.78276 636.033744,4754.82216 636.004458,4754.32266 C635.98761,4754.03493 636.018836,4753.8448 636.092667,4753.7865 C636.191638,4753.70823 645.200268,4751.99517 645.487212,4752 C645.569688,4752.00142 645.581331,4753.14973 645.539079,4757.10234 C645.509088,4759.9076 645.505207,4762.20282 645.530523,4762.20282 C645.555751,4762.20282 645.884948,4762.06071 646.262042,4761.88703 C647.398617,4761.36352 648.44619,4761.13638 649.967711,4761.08344 C650.980617,4761.04826 651.449978,4761.07033 651.969618,4761.17744 C655.367702,4761.87841 657.88237,4764.65122 658.76111,4768.66627 C658.990365,4769.71362 659.075575,4772.3168 658.923503,4773.62059 C658.793747,4774.73188 658.423621,4776.22922 658.0385,4777.20086 C656.585077,4780.86749 653.46697,4783.25953 649.330311,4783.88117 C648.377475,4784.02425 645.385331,4784.04227 644.101799,4783.91256 L644.101799,4783.91256 Z M647.259898,4782.92818 C647.931187,4782.80417 648.452603,4782.5442 649.01255,4782.05419 C650.415836,4780.82652 651.470864,4778.2915 651.885835,4775.15074 C652.054835,4773.87155 652.032105,4770.95668 651.844809,4769.88899 C651.338177,4767.00137 650.24933,4765.10348 648.661058,4764.33929 C648.002243,4764.0223 647.900695,4764 647.11908,4764 C646.560149,4764 646.07939,4764.05818 645.670517,4764.17545 L645.058549,4764.35089 L645.013458,4767.6376 C644.955523,4771.84776 645.096249,4782.38809 645.214429,4782.69051 C645.289735,4782.88349 645.372803,4782.9245 645.746933,4782.95309 C646.627417,4783.02045 646.77304,4783.01793 647.259898,4782.92818 L647.259898,4782.92818 Z M669.435556,4783.86903 C665.221635,4783.09087 662.20799,4780.03097 661.223289,4775.53096 C661.096645,4774.95224 661.04067,4774.30446 661.008902,4773.05152 C660.958618,4771.06931 661.116096,4769.83889 661.615708,4768.31007 C662.575012,4765.37471 664.294183,4763.29465 666.791567,4762.04798 C669.427487,4760.73215 673.03129,4760.64596 675.364061,4761.84298 C677.990553,4763.19072 679.535938,4765.88177 679.928017,4769.79001 C679.98085,4770.31629 680.011343,4770.94241 679.996054,4771.18159 L679.968109,4771.61646 L673.682604,4771.63872 L667.397099,4771.66107 L667.420967,4772.42148 C667.476517,4774.18305 667.846343,4775.74126 668.530528,4777.09579 C668.841491,4777.71156 669.089004,4778.04719 669.690374,4778.66879 C671.048722,4780.07324 672.400106,4780.61683 674.531912,4780.61683 C676.077551,4780.61683 677.189066,4780.30102 678.35163,4779.53148 C678.677202,4779.31588 679.007191,4779.13958 679.084741,4779.13958 C679.262179,4779.13958 679.670736,4779.67803 679.670736,4779.91199 C679.670736,4780.29537 678.452028,4781.53118 677.263388,4782.35334 C676.289899,4783.02669 674.745958,4783.63655 673.407231,4783.87625 C672.469671,4784.04437 670.363433,4784.04045 669.435556,4783.86903 Z M672.556123,4768.89597 L674,4768.84404 L673.947965,4767.78319 C673.764721,4764.04255 672.879622,4761.99828 671.444126,4762 C669.883979,4762.0018 668.637205,4764.07628 668.118843,4767.53307 C668.055106,4767.95795 668.002324,4768.46181 668.001494,4768.65279 L668,4769 L669.556081,4768.97399 C670.411967,4768.95949 671.761982,4768.92446 672.556123,4768.89597 Z M686.535847,4783.97869 C684.944966,4783.81242 682.413094,4783.27206 681.57006,4782.91871 L681.15832,4782.74634 L681.102154,4780.75747 C681.071257,4779.6637 681.035718,4778.20108 681.023038,4777.50742 L681,4776.24625 L681.246812,4776.1309 C681.38254,4776.06752 681.656408,4776.00824 681.855536,4775.99919 L682.217449,4775.98282 L682.525785,4776.72279 C683.728857,4779.60955 685.139808,4781.16602 686.98268,4781.63943 C687.6857,4781.82015 689.003873,4781.82172 689.524285,4781.64247 C690.982116,4781.14086 691.781575,4780.06459 691.78854,4778.59448 C691.796755,4776.85337 690.815134,4776.01686 687.106621,4774.60456 C684.809059,4773.72956 684.007547,4773.27931 683.053251,4772.32701 C682.023768,4771.29967 681.529698,4770.13043 681.436921,4768.5017 C681.324855,4766.53373 681.956529,4764.87462 683.356586,4763.46093 C684.765394,4762.03818 686.594336,4761.26704 689.085846,4761.0454 C691.279826,4760.85022 694.647589,4761.30387 696.412149,4762.03226 L696.734057,4762.16511 L696.791474,4763.93773 C696.823085,4764.91267 696.855767,4766.21954 696.864071,4766.84199 L696.879251,4767.97362 L696.446885,4768.13015 C695.76342,4768.37756 695.718415,4768.34657 695.338197,4767.36441 C694.272371,4764.61137 693.034117,4763.30875 691.104718,4762.91082 C689.928881,4762.66829 688.946635,4762.92902 688.232632,4763.67317 C687.675699,4764.25366 687.458355,4764.7692 687.40576,4765.63488 C687.348611,4766.57281 687.520593,4767.07983 688.108423,4767.70689 C688.832873,4768.47977 690.019873,4769.14687 692.384495,4770.11023 C695.280691,4771.29009 696.662443,4772.29175 697.413682,4773.75568 C697.90159,4774.7065 698.03973,4775.46588 697.990707,4776.92763 C697.953828,4778.02453 697.917842,4778.24992 697.661833,4778.98632 C696.827282,4781.38731 694.943513,4782.96807 692.033208,4783.70926 C691.04748,4783.96024 690.906751,4783.97312 688.946635,4783.99419 C687.817142,4784.00603 686.732207,4783.99924 686.535847,4783.97869 Z M576.11653,4783.94955 C576.043666,4783.91993 576.006927,4783.70032 576.006927,4783.29378 C576.006927,4782.56346 575.960718,4782.59615 577.366009,4782.33414 C578.44398,4782.13312 578.82952,4781.92761 579.30555,4781.30039 C580.22841,4780.08413 580.427888,4777.74254 580.429992,4768.10071 C580.431921,4759.04582 580.25831,4757.14101 579.303884,4755.74152 C578.880376,4755.12065 578.166727,4754.78347 576.971349,4754.63964 L576.050681,4754.52887 L576.025428,4753.80638 L576,4753.08399 L576.288476,4753.03235 C576.447182,4753.00397 582.020907,4752.99199 588.674708,4753.00565 L600.772551,4753.03067 L600.829194,4753.38319 C600.860409,4753.57707 600.911616,4755.56579 600.943006,4757.8025 L601,4761.8693 L600.376313,4762.05974 C599.437407,4762.34634 599.443019,4762.34986 599.020651,4761.22657 C597.983189,4758.46743 596.793511,4756.87759 595.165594,4756.07473 C594.042817,4755.52102 593.523736,4755.45413 590.353042,4755.45413 L587.593668,4755.45413 L587.546056,4755.91681 C587.456795,4756.78444 587.316065,4762.36573 587.317029,4764.99408 L587.317994,4767.61592 L588.129058,4767.61124 C588.575188,4767.60869 589.454821,4767.57573 590.083856,4767.53792 C591.029339,4767.48108 591.310362,4767.43067 591.705986,4767.24657 C592.677949,4766.79429 593.339164,4765.79896 593.744345,4764.17827 L593.953469,4763.34158 L594.669135,4763.31593 L595.384801,4763.29029 L595.384801,4773.88012 L594.668872,4773.85447 L593.952942,4773.82883 L593.749694,4772.9916 C593.367924,4771.4185 592.633055,4770.29239 591.725013,4769.88867 C591.305627,4769.70228 590.26799,4769.59626 588.260582,4769.53492 L587.317994,4769.50602 L587.317994,4771.49526 C587.317994,4773.66288 587.436628,4776.59537 587.588582,4778.18689 C587.800424,4780.40562 588.364574,4781.63149 589.377572,4782.07522 C589.571,4782.15991 590.183113,4782.29739 590.737618,4782.38094 C591.292211,4782.4644 591.815063,4782.56857 591.899414,4782.61245 C592.113447,4782.7235 592.126074,4783.87261 591.914232,4783.95422 C591.748337,4784.01837 576.274534,4784.01353 576.11653,4783.94955 Z M620.103845,4782.94468 C620.024923,4782.89312 619.999135,4782.68808 620.017308,4782.25691 L620.043269,4781.64274 L620.346151,4781.57661 C620.512735,4781.54017 620.870569,4781.46773 621.141258,4781.41583 C621.979202,4781.25504 622.460697,4780.78797 622.731733,4779.87293 C622.952491,4779.12766 623.049759,4776.74315 623.054778,4771.95465 C623.061009,4766.09834 622.942193,4764.71525 622.365679,4763.93132 C622.053192,4763.50638 621.827934,4763.38559 621.069692,4763.23609 C620.695503,4763.16232 620.301757,4763.08321 620.19471,4763.06028 C620.021288,4763.02322 620,4762.96518 620,4762.52957 C620,4762.10605 620.026048,4762.02952 620.19471,4761.95824 C620.45363,4761.84891 629.026567,4760.08888 629.300459,4760.08888 L629.51412,4760.08888 L629.472236,4761.39988 C629.44913,4762.12089 629.412352,4763.17085 629.390371,4763.73302 L629.350391,4764.75516 L629.660974,4764.17992 C630.655205,4762.33847 631.770156,4761.19528 633.252805,4760.49747 C634.066692,4760.1143 634.609802,4760 635.615283,4760 C636.807771,4760 638,4760.39961 638,4760.7994 C638,4761.06818 635.898953,4766.77011 635.783079,4766.8157 C635.72657,4766.83792 635.316295,4766.67687 634.871405,4766.45751 C633.943549,4766.00021 633.073153,4765.77668 632.2282,4765.77854 C631.175902,4765.78085 630.000462,4766.17895 629.536447,4766.6902 C629.337929,4766.90885 629.336978,4766.922 629.287651,4770.1876 C629.238844,4773.42155 629.343727,4777.36629 629.520783,4778.95283 C629.671619,4780.30445 630.021317,4780.96982 630.743474,4781.27975 C630.984394,4781.38303 632.508668,4781.59759 633.006086,4781.59812 C633.043817,4781.59812 633.063201,4781.90814 633.049355,4782.28695 L633.024086,4782.97578 L626.620302,4782.99694 C623.098047,4783.00876 620.16572,4782.9853 620.103845,4782.94468 Z" id="Shape"></path>
        </g>
    </g>
</svg>