<?xml version="1.0" encoding="UTF-8"?>
<svg width="1067px" height="629px" viewBox="0 0 1067 629" version="1.1" xmlns="http://www.w3.org/2000/svg" xmlns:xlink="http://www.w3.org/1999/xlink">
    <!-- Generator: Sketch 55.2 (78181) - https://sketchapp.com -->
    <title>hero-section</title>
    <desc>Created with Sketch.</desc>
    <g id="hero-section" stroke="none" stroke-width="1" fill="none" fill-rule="evenodd">
        <g id="Group-8" transform="translate(224.854427, 125.794834) rotate(-7.000000) translate(-224.854427, -125.794834) translate(17.354427, -2.205166)">
            <g id="Group-6" transform="translate(324.179463, 83.500000) rotate(-347.000000) translate(-324.179463, -83.500000) translate(245.679463, 20.000000)" fill="#3EB5E6" font-family="IndieFlower, Indie Flower" font-size="40" font-weight="normal">
                <text id="ROMI" transform="translate(59.086123, 43.705247) rotate(-26.000000) translate(-59.086123, -43.705247) ">
                    <tspan x="21.0861226" y="53.2052472">ROMI</tspan>
                </text>
                <text id="Forecast" transform="translate(78.500000, 64.115742) rotate(-30.000000) translate(-78.500000, -64.115742) ">
                    <tspan x="5" y="73.6157417">Forecast</tspan>
                </text>
            </g>
            <path d="M252.269315,169.315053 L247.251728,154.448045 C246.986816,153.663116 247.408373,152.812052 248.193302,152.54714 C248.978231,152.282228 249.829295,152.703785 250.094207,153.488713 L255.964532,170.88237 C256.338574,171.990647 255.356551,173.081569 254.215183,172.82571 L236.302186,168.810173 C235.49382,168.628962 234.985411,167.826753 235.166621,167.018388 C235.347832,166.210022 236.150041,165.701613 236.958406,165.882823 L252.269315,169.315053 L252.269315,169.315053 Z M-6.6761203,93.090366 C-7.48500574,93.2692398 -8.28574283,92.7585145 -8.46461665,91.949629 C-8.64349047,91.1407436 -8.13276514,90.3400065 -7.3238797,90.1611327 C-5.02559419,89.6528987 -2.73185286,89.172317 -0.442656804,88.7193896 C0.370016426,88.5585987 1.15916505,89.0870537 1.31995597,89.899727 C1.4807469,90.7124002 0.952291878,91.5015488 0.139618648,91.6623397 C-2.12765134,92.110929 -4.39956396,92.5869371 -6.6761203,93.090366 Z M9.93920083,89.8894465 C9.12167837,90.0234186 8.35033963,89.4692916 8.21636754,88.6517691 C8.08239545,87.8342466 8.63652251,87.0629079 9.45404497,86.9289358 C11.7750948,86.5485721 14.0914132,86.1969701 16.4029984,85.8741319 C17.2234625,85.7595451 17.981471,86.3317717 18.0960578,87.1522358 C18.2106446,87.9726999 17.638418,88.7307085 16.8179539,88.8452953 C14.5298556,89.1648533 12.2369384,89.5129031 9.93920083,89.8894465 Z M26.700569,87.6391174 C25.8766142,87.7250828 25.1389782,87.1268243 25.0530127,86.3028696 C24.9670472,85.4789148 25.5653057,84.7412787 26.3892605,84.6553133 C28.7281231,84.4112932 31.0620751,84.1970747 33.3911139,84.0126594 C34.2169563,83.9472685 34.9394435,84.5637361 35.0048345,85.3895784 C35.0702254,86.2154208 34.4537577,86.937908 33.6279154,87.003299 C31.3237805,87.1857424 29.0146658,87.3976813 26.700569,87.6391174 Z M43.5747719,86.3976043 C42.7470916,86.4327733 42.0476141,85.7903159 42.0124452,84.9626356 C41.9772762,84.1349553 42.6197336,83.4354778 43.4474139,83.4003089 C45.7979709,83.3004314 48.1434521,83.2312866 50.4838544,83.1928759 C51.31217,83.1792816 51.9946728,83.8397437 52.0082671,84.6680593 C52.0218614,85.4963749 51.3613994,86.1788777 50.5330838,86.192472 C48.2187668,86.2304546 45.8993305,86.2988315 43.5747719,86.3976043 Z M60.4586461,86.2165922 C59.6304085,86.1988745 58.9733522,85.5130922 58.9910699,84.6848546 C59.0087876,83.8566169 59.6945699,83.1995607 60.5228076,83.2172784 C62.8733508,83.2675614 65.2186943,83.349237 67.5588344,83.4623062 C68.3862962,83.5022868 69.0246758,84.2054879 68.9846951,85.0329497 C68.9447145,85.8604115 68.2415134,86.4987911 67.4140516,86.4588104 C65.1007952,86.3470402 62.7823279,86.2663006 60.4586461,86.2165922 Z M77.3470658,87.1322543 C76.5217852,87.0601196 75.9112398,86.3326207 75.9833745,85.5073401 C76.0555092,84.6820595 76.7830081,84.0715141 77.6082887,84.1436488 C79.9478087,84.3481375 82.2820468,84.5844084 84.6109991,84.8524616 C85.433993,84.9471849 86.024373,85.6911417 85.9296496,86.5141357 C85.8349263,87.3371296 85.0909695,87.9275095 84.2679756,87.8327862 C81.9662631,87.5678683 79.6592944,87.3343576 77.3470658,87.1322543 Z M94.1423435,89.1669641 C93.323725,89.0398603 92.7631417,88.2732009 92.8902456,87.4545825 C93.0173494,86.635964 93.7840088,86.0753807 94.6026272,86.2024846 C96.9226377,86.562704 99.2373189,86.9548759 101.546667,87.3789995 C102.361467,87.5286417 102.900683,88.3104764 102.751041,89.1252762 C102.601399,89.940076 101.819564,90.4792928 101.004764,90.3296506 C98.7225574,89.9105115 96.435085,89.5229496 94.1423435,89.1669641 Z M110.766307,92.3221864 C109.958037,92.1405499 109.450051,91.3380724 109.631687,90.5298029 C109.813324,89.7215333 110.615801,89.2135469 111.424071,89.3951835 C113.711756,89.9092784 115.994124,90.4551442 118.271169,91.0327794 C119.074162,91.2364805 119.559984,92.0525672 119.356282,92.8555599 C119.152581,93.6585527 118.336495,94.1443745 117.533502,93.9406733 C115.28299,93.369769 113.027259,92.8302739 110.766307,92.3221864 Z M127.083778,96.5611501 C126.289254,96.326579 125.835323,95.4923328 126.069894,94.6978091 C126.304465,93.9032855 127.138711,93.4493542 127.933235,93.6839253 C130.180532,94.3474057 132.422562,95.0422413 134.659324,95.7684301 C135.447264,96.0242437 135.878639,96.8703739 135.622825,97.6583149 C135.367012,98.4462558 134.520882,98.8776302 133.732941,98.6218167 C131.52169,97.9039102 129.305304,97.217022 127.083778,96.5611501 Z M143.129882,101.870703 C142.352164,101.585314 141.953053,100.723496 142.238442,99.9457783 C142.523831,99.1680607 143.385649,98.7689493 144.163366,99.0543381 C146.360611,99.860632 148.552691,100.697585 150.739605,101.565196 C151.509646,101.870693 151.886233,102.742588 151.580736,103.512629 C151.275239,104.28267 150.403343,104.659258 149.633302,104.353761 C147.470508,103.495719 145.302702,102.668034 143.129882,101.870703 Z M158.819964,108.194181 C158.061552,107.86086 157.716949,106.975835 158.05027,106.217423 C158.383592,105.459012 159.268616,105.114408 160.027028,105.44773 C162.168077,106.38872 164.304098,107.359487 166.43509,108.360031 C167.184975,108.712117 167.507454,109.60544 167.155369,110.355325 C166.803283,111.10521 165.909959,111.427689 165.160074,111.075603 C163.051567,110.085617 160.938197,109.125144 158.819964,108.194181 Z M174.102248,115.466018 C173.365026,115.088134 173.073726,114.184163 173.45161,113.446941 C173.829494,112.70972 174.733465,112.41842 175.470687,112.796303 C177.549031,113.861618 179.622521,114.955634 181.691156,116.078347 C182.419261,116.473513 182.689161,117.384102 182.293996,118.112207 C181.898831,118.840311 180.988241,119.110212 180.260137,118.715047 C178.212191,117.603562 176.159562,116.520553 174.102248,115.466018 Z M188.941635,123.613783 C188.226875,123.194965 187.986966,122.276017 188.405784,121.561257 C188.824602,120.846496 189.74355,120.606587 190.45831,121.025406 C192.472673,122.205734 194.482368,123.413635 196.487394,124.649108 C197.192678,125.083696 197.41212,126.007744 196.977533,126.713028 C196.542945,127.418312 195.618897,127.637754 194.913613,127.203167 C192.927454,125.979319 190.936795,124.782858 188.941635,123.613783 Z M203.31884,132.563577 C202.627251,132.107511 202.436322,131.177153 202.892388,130.485564 C203.348454,129.793975 204.278812,129.603046 204.970401,130.059112 C206.918122,131.343529 208.861378,132.654307 210.800167,133.991444 C211.482132,134.461779 211.653692,135.395903 211.183357,136.077868 C210.713022,136.759833 209.778898,136.931393 209.096933,136.461058 C207.175207,135.135689 205.249176,133.836529 203.31884,132.563577 Z M217.229587,142.245257 C216.561409,141.755533 216.416743,140.816868 216.906468,140.14869 C217.396192,139.480512 218.334857,139.335847 219.003035,139.825571 C220.883651,141.203922 222.76001,142.607397 224.632112,144.035996 C225.29069,144.538556 225.417168,145.479844 224.914608,146.138422 C224.412048,146.797 223.470759,146.923477 222.812181,146.420917 C220.955422,145.004027 219.094557,143.612141 217.229587,142.245257 Z M230.655852,152.574843 C230.010909,152.054902 229.909574,151.110576 230.429516,150.465632 C230.949457,149.820688 231.893783,149.719354 232.538727,150.239296 C234.353058,151.701975 236.163339,153.188555 237.969573,154.699036 C238.605073,155.230479 238.689427,156.176473 238.157984,156.811973 C237.626541,157.447472 236.680547,157.531827 236.045048,157.000384 C234.25256,155.501398 232.456161,154.026218 230.655852,152.574843 Z M243.504331,163.44324 C242.88862,162.888991 242.838795,161.940551 243.393044,161.324841 C243.947293,160.70913 244.895732,160.659305 245.511443,161.213553 L250.714045,165.896814 C251.329756,166.451063 251.379581,167.399503 250.825332,168.015213 C250.271084,168.630924 249.322644,168.680749 248.706933,168.126501 L243.504331,163.44324 Z" id="Path-Copy-2" fill="#3EA2CB" fill-rule="nonzero" opacity="0.424293155" transform="translate(123.772529, 128.028032) rotate(-47.000000) translate(-123.772529, -128.028032) "></path>
        </g>
        <g id="Group-5" transform="translate(213.374192, 535.196985) rotate(12.000000) translate(-213.374192, -535.196985) translate(36.874192, 444.196985)">
            <text id="Close" transform="translate(68.000000, 57.500000) rotate(-315.000000) translate(-68.000000, -57.500000) " font-family="IndieFlower, Indie Flower" font-size="40" font-weight="normal" fill="#3EB5E6">
                <tspan x="17" y="67">Close </tspan>
            </text>
            <path d="M344.908352,146.062572 L344.247758,133.448558 C344.204433,132.621265 344.839965,131.915489 345.667258,131.872164 C346.494552,131.828838 347.200328,132.46437 347.243653,133.291664 L348.20372,151.624101 C348.264893,152.792196 347.024967,153.577729 345.994948,153.02343 L329.829506,144.324091 C329.100003,143.931513 328.826872,143.021887 329.219449,142.292385 C329.612027,141.562882 330.521653,141.28975 331.251156,141.682328 L342.374123,147.668089 L341.127413,145.700218 C340.684062,145.00041 340.891962,144.073697 341.59177,143.630346 C342.291578,143.186995 343.218291,143.394894 343.661643,144.094702 L344.908352,146.062572 L344.908352,146.062572 Z M138.046014,99.1137404 C137.224406,99.2198148 136.472371,98.6397602 136.366297,97.8181522 C136.260222,96.9965442 136.840277,96.244509 137.661885,96.1384346 C140.003954,95.8360598 142.327424,95.5475651 144.632297,95.272951 C145.454907,95.1749412 146.201215,95.762345 146.299225,96.584954 C146.397235,97.407563 145.809831,98.153872 144.987222,98.2518817 C142.692132,98.5253302 140.378396,98.8126163 138.046014,99.1137404 Z M154.886393,97.1462099 C154.062415,97.2319543 153.32494,96.6334978 153.239195,95.80952 C153.153451,94.9855423 153.751907,94.2480667 154.575885,94.1623223 C156.923855,93.917989 159.251593,93.6887615 161.559102,93.4746404 C162.383986,93.3980969 163.114736,94.0047462 163.19128,94.8296296 C163.267823,95.6545129 162.661174,96.3852638 161.836291,96.4618074 C159.539946,96.6748925 157.223313,96.9030264 154.886393,97.1462099 Z M171.784619,95.6232085 C170.958548,95.6856368 170.238276,95.0665816 170.175848,94.24051 C170.11342,93.4144385 170.732475,92.694167 171.558546,92.6317387 C173.914235,92.4537135 176.247725,92.2922727 178.559019,92.1474175 C179.385824,92.0955994 180.098088,92.7238503 180.149907,93.5506552 C180.201725,94.3774602 179.573474,95.0897249 178.746669,95.141543 C176.448253,95.2855911 174.127569,95.4461459 171.784619,95.6232085 Z M188.699045,94.6149772 C187.871378,94.6504507 187.171664,94.0082507 187.136191,93.1805834 C187.100717,92.3529162 187.742917,91.6532023 188.570584,91.6177288 C190.935209,91.5163819 193.275249,91.4334155 195.590708,91.3688314 C196.418813,91.3457335 197.10885,91.9983206 197.131948,92.8264257 C197.155046,93.6545307 196.502458,94.3445671 195.674353,94.3676651 C193.373918,94.4318302 191.048815,94.5142669 188.699045,94.6149772 Z M205.657367,94.2031511 C204.828949,94.2070408 204.154231,93.5386285 204.150324,92.7102105 C204.146451,91.8817925 204.814864,91.2070738 205.643282,91.2031842 C208.013954,91.1920531 210.35719,91.2014559 212.672991,91.2313952 C213.501349,91.2421044 214.164185,91.9223027 214.153475,92.7506606 C214.142766,93.5790185 213.462568,94.2418537 212.63421,94.2311445 C210.336135,94.2014344 208.01052,94.1921023 205.657367,94.2031511 Z M222.57606,94.4936919 C221.748307,94.460268 221.104377,93.7621466 221.137801,92.934394 C221.171225,92.1066414 221.869346,91.4627107 222.697099,91.4961346 C225.067559,91.5918516 227.407188,91.7106703 229.71599,91.8525952 C230.542856,91.9034236 231.171959,92.6149359 231.121131,93.4418022 C231.070302,94.2686686 230.35879,94.8977716 229.531924,94.8469431 C227.244255,94.7063173 224.925632,94.5885655 222.57606,94.4936919 Z M239.458532,95.6190342 C238.633799,95.5408777 238.02858,94.808942 238.106737,93.9842098 C238.184893,93.1594777 238.916829,92.5542585 239.741561,92.632415 C242.108795,92.8567479 244.440938,93.1074161 246.737993,93.3844266 C247.560461,93.4836111 248.146799,94.2307583 248.047614,95.0532265 C247.94843,95.8756947 247.201282,96.4620319 246.378814,96.3628474 C244.107283,96.088915 241.800521,95.8409748 239.458532,95.6190342 Z M256.23783,97.7506853 C255.420053,97.6182772 254.864451,96.8479998 254.996859,96.0302226 C255.129267,95.2124454 255.899545,94.6568439 256.717322,94.789252 C259.071528,95.1704266 261.38534,95.5819739 263.658763,96.0239057 C264.471968,96.181985 265.003052,96.9693666 264.844973,97.7825716 C264.686893,98.5957766 263.899512,99.1268609 263.086307,98.9687816 C260.844016,98.5329015 258.561189,98.1268655 256.23783,97.7506853 Z M272.763193,101.097074 C271.958921,100.898484 271.467919,100.085503 271.666509,99.2812311 C271.8651,98.4769591 272.67808,97.985957 273.482352,98.1845472 C275.802842,98.7575206 278.076497,99.3657889 280.303317,100.00937 C281.099172,100.239383 281.557878,101.071014 281.327865,101.866869 C281.097852,102.662724 280.266221,103.12143 279.470366,102.891417 C277.281572,102.258825 275.045848,101.660705 272.763193,101.097074 Z M288.898353,105.933072 C288.118524,105.653503 287.712984,104.794691 287.992554,104.014862 C288.272123,103.235034 289.130935,102.829494 289.910764,103.109064 C292.165549,103.917407 294.365737,104.766984 296.511311,105.657819 C297.276412,105.975486 297.639128,106.853243 297.321461,107.618344 C297.003794,108.383445 296.126037,108.746161 295.360937,108.428494 C293.261264,107.556717 291.107074,106.724902 288.898353,105.933072 Z M304.344019,112.571263 C303.606319,112.194315 303.313871,111.290715 303.690818,110.553014 C304.067766,109.815313 304.971366,109.522865 305.709067,109.899813 C307.844217,110.990824 309.916046,112.129695 311.924512,113.316448 C312.637738,113.737875 312.874287,114.657693 312.45286,115.370918 C312.031433,116.084144 311.111615,116.320693 310.39839,115.899266 C308.443071,114.743917 306.424961,113.634575 304.344019,112.571263 Z M318.660682,121.326268 C317.991476,120.837948 317.84484,119.899589 318.33316,119.230384 C318.821479,118.561179 319.759838,118.414542 320.429043,118.902862 C322.363208,120.314224 324.225717,121.779602 326.016494,123.298987 C326.648188,123.834948 326.725795,124.78152 326.189834,125.413214 C325.653873,126.044908 324.707302,126.122515 324.075608,125.586554 C322.340941,124.114775 320.53599,122.694683 318.660682,121.326268 Z M331.237724,132.377796 C330.669625,131.77484 330.697883,130.825513 331.300838,130.257414 C331.903794,129.689316 332.853121,129.717573 333.42122,130.320529 C335.055091,132.054651 336.612035,133.846316 338.091976,135.695459 C338.609624,136.342245 338.504937,137.286205 337.858151,137.803853 C337.211365,138.321501 336.267405,138.216814 335.749757,137.570028 C334.320321,135.783991 332.816335,134.053268 331.237724,132.377796 Z" id="Path-Copy" fill="#3EA2CB" fill-rule="nonzero" opacity="0.424293155" transform="translate(242.279840, 122.201829) rotate(164.000000) translate(-242.279840, -122.201829) "></path>
            <text id="Deals" transform="translate(57.000000, 93.500000) rotate(-330.000000) translate(-57.000000, -93.500000) " font-family="IndieFlower, Indie Flower" font-size="40" font-weight="normal" fill="#3EB5E6">
                <tspan x="9" y="103">Deals</tspan>
            </text>
        </g>
        <g id="Group-7" transform="translate(712.000000, 70.000000)" fill="#3EA2CB">
            <g transform="translate(191.500000, 165.500000) rotate(-345.000000) translate(-191.500000, -165.500000) translate(-11.000000, 49.000000)">
                <g id="Group-4" opacity="0.749697731" transform="translate(256.727756, 96.038695)" font-family="IndieFlower, Indie Flower" font-weight="normal">
                    <text id="Meadia" transform="translate(79.030059, 60.937304) rotate(-325.000000) translate(-79.030059, -60.937304) " font-size="40">
                        <tspan x="16.0300589" y="70.4373036">Meadia </tspan>
                    </text>
                    <text id="Mix" transform="translate(43.200685, 93.215864) rotate(-315.000000) translate(-43.200685, -93.215864) " font-size="46">
                        <tspan x="16.2006853" y="104.715864">Mix</tspan>
                    </text>
                </g>
                <path d="M245.407901,81.4246196 L245.578634,68.7944738 C245.589832,67.9661223 246.270421,67.3036882 247.098772,67.314746 C247.927124,67.3260835 248.589558,68.0066725 248.5785,68.8350239 L248.330226,87.1909066 C248.314416,88.3604947 247.025495,89.0627494 246.034176,88.4418849 L230.476102,78.6978432 C229.774008,78.2581209 229.561314,77.3324961 230.001036,76.6304022 C230.440759,75.9283083 231.366384,75.7156141 232.068477,76.1553364 L242.773533,82.8599265 L240.96241,79.5357843 C240.566061,78.8083237 240.83448,77.897296 241.56194,77.5009469 C242.289401,77.1045979 243.200429,77.3730169 243.596778,78.1004775 L245.407901,81.4246196 L245.407901,81.4246196 Z M0.527838152,15.6597476 C-0.275151478,15.863461 -1.09124554,15.3776517 -1.29495895,14.574662 C-1.49867236,13.7716724 -1.012863,12.9555783 -0.209873372,12.7518649 C2.07758295,12.1715517 4.35078351,11.6098659 6.6097293,11.0668082 C7.41520758,10.8731687 8.22515256,11.3691621 8.41879205,12.1746403 C8.61243155,12.9801186 8.11643822,13.7900636 7.31095995,13.9837031 C5.06424132,14.5238213 2.80320039,15.0825025 0.527838152,15.6597476 Z M17.0269148,11.7439822 C16.2179125,11.9223268 15.4175096,11.4110778 15.239165,10.6020756 C15.0608203,9.79307329 15.5720693,8.99267045 16.3810715,8.81432577 C18.6863258,8.30613211 20.9761811,7.81807081 23.2506386,7.35014288 C24.0620715,7.18320543 24.8551974,7.70567225 25.0221349,8.51710517 C25.1890723,9.3285381 24.6666055,10.121664 23.8551726,10.2886014 C21.5945627,10.7536805 19.3184764,11.238807 17.0269148,11.7439822 Z M33.6398947,8.38301462 C32.8250794,8.53257205 32.0433008,7.99327395 31.8937433,7.17845858 C31.7441859,6.36364322 32.283484,5.58186461 33.0982994,5.43230717 C35.4198675,5.00618882 37.7247493,4.60189999 40.0129462,4.2194421 C40.8300383,4.08287022 41.6031358,4.63454092 41.7397077,5.45163309 C41.8762796,6.26872527 41.3246089,7.04182273 40.5075167,7.17839462 C38.2350851,7.55821743 35.9458774,7.95975695 33.6398947,8.38301462 Z M50.3491804,5.65425237 C49.5290178,5.77097709 48.7695204,5.20072795 48.6527957,4.38056526 C48.536071,3.56040257 49.1063201,2.80090525 49.9264828,2.68418053 C52.2661422,2.35120258 54.5876006,2.04205337 56.8908594,1.75673498 C57.7130025,1.6548912 58.4620419,2.23880922 58.5638857,3.06095236 C58.6657294,3.8830955 58.0818114,4.63213489 57.2596683,4.73397866 C54.9744763,5.01705902 52.6709798,5.32381623 50.3491804,5.65425237 Z M67.1736225,3.64339307 C66.348971,3.72239631 65.6164142,3.11792902 65.5374109,2.29327759 C65.4584077,1.46862615 66.062875,0.736069295 66.8875264,0.657066051 C69.2405772,0.431639115 71.5737343,0.232278667 73.8869992,0.0589876561 C74.7131116,-0.00289797247 75.4329762,0.61663022 75.4948618,1.4427426 C75.5567474,2.26885499 74.9372192,2.98871961 74.1111069,3.05060524 C71.8186214,3.22233962 69.5061261,3.41993458 67.1736225,3.64339307 Z M84.041775,2.46301745 C83.2141132,2.49861899 82.5143,1.85652729 82.4786985,1.02886551 C82.4430969,0.20120372 83.0851886,-0.498609472 83.9128504,-0.534211008 C86.2809118,-0.636072209 88.6270499,-0.709181491 90.9512658,-0.753534687 C91.7795421,-0.76934075 92.4638061,-0.110703469 92.4796121,0.717572855 C92.4954182,1.54584918 91.8367809,2.23011315 91.0085046,2.24591922 C88.7083102,2.28981401 86.3860666,2.3621787 84.041775,2.46301745 Z M100.960083,2.23601802 C100.131785,2.22142859 99.4721431,1.53813279 99.4867325,0.709834143 C99.501322,-0.118464504 100.184618,-0.778106155 101.012916,-0.763516721 C103.382879,-0.721772819 105.728748,-0.64840132 108.050523,-0.543396559 C108.878104,-0.505968308 109.51865,0.195260394 109.481221,1.02284158 C109.443793,1.85042277 108.742564,2.49096829 107.914983,2.45354004 C105.620902,2.34978776 103.302602,2.27727853 100.960083,2.23601802 Z M117.845526,3.11102827 C117.020278,3.03852238 116.41006,2.310749 116.482566,1.48550091 C116.555072,0.660252832 117.282845,0.0500347146 118.108093,0.122540602 C120.472775,0.330300357 122.810879,0.572975501 125.122402,0.850573322 C125.944919,0.949351879 126.531625,1.69620953 126.432846,2.51872658 C126.334068,3.34124363 125.58721,3.92794961 124.764693,3.82917105 C122.484986,3.55539413 120.178598,3.31601077 117.845526,3.11102827 Z M134.557074,5.24447259 C133.740341,5.10576777 133.190691,4.33123254 133.329396,3.51449974 C133.468101,2.69776694 134.242636,2.14811665 135.059369,2.28682148 C137.400443,2.68440354 139.712328,3.12034694 141.995018,3.59466002 C142.80612,3.76319648 143.327023,4.55735062 143.158486,5.36845294 C142.98995,6.17955525 142.195796,6.70045779 141.384693,6.53192132 C139.138054,6.06509905 136.862183,5.63594669 134.557074,5.24447259 Z M151.052539,8.82133283 C150.252144,8.60765062 149.77652,7.785579 149.990202,6.98518446 C150.203884,6.18478992 151.025956,5.7091656 151.82635,5.92284781 C154.119395,6.53502447 156.380624,7.18900063 158.610025,7.88478387 C159.400833,8.13159063 159.841834,8.97274391 159.595027,9.76355231 C159.34822,10.5543607 158.507067,10.9953612 157.716258,10.7485544 C155.526761,10.0652247 153.305525,9.42281499 151.052539,8.82133283 Z M167.08926,13.9978004 C166.315567,13.7016722 165.928425,12.8344114 166.224554,12.0607192 C166.520682,11.2870271 167.387943,10.899885 168.161635,11.1960132 C170.377005,12.043939 172.55811,12.9368166 174.704931,13.8746494 C175.464082,14.2062826 175.810654,15.0905382 175.479021,15.8496897 C175.147388,16.6088411 174.263133,16.9554132 173.503981,16.62378 C171.399741,15.7045486 169.261506,14.829221 167.08926,13.9978004 Z M182.448967,20.9024276 C181.714528,20.5191636 181.429845,19.6130865 181.813109,18.8786478 C182.196373,18.1442091 183.10245,17.8595258 183.836889,18.2427899 C185.936665,19.3385502 188.000305,20.4815855 190.027785,21.6718912 C190.742193,22.0913104 190.981329,23.0104591 190.56191,23.7248673 C190.14249,24.4392754 189.223342,24.6784112 188.508933,24.2589919 C186.524568,23.0939981 184.504587,21.9751448 182.448967,20.9024276 Z M196.873032,29.5878657 C196.191127,29.1174431 196.019687,28.1832972 196.49011,27.5013925 C196.960532,26.8194877 197.894678,26.6480475 198.576583,27.1184701 C200.519843,28.4590581 202.426096,29.8478708 204.295321,31.2848943 C204.952095,31.7898094 205.075201,32.7315446 204.570286,33.3883187 C204.065371,34.0450928 203.123635,34.1681989 202.466861,33.6632838 C200.638498,32.2576736 198.773895,30.8992056 196.873032,29.5878657 Z M210.105084,39.9975988 C209.487309,39.4456512 209.433946,38.4974041 209.985893,37.8796295 C210.537841,37.261855 211.486088,37.2084917 212.103863,37.7604393 C213.85933,39.3288533 215.578012,40.9450041 217.259892,42.6088716 C217.848824,43.1914958 217.853937,44.1412295 217.271313,44.7301612 C216.688689,45.3190929 215.738955,45.3242061 215.150023,44.7415819 C213.504236,43.1134211 211.822594,41.5321001 210.105084,39.9975988 Z M221.8707,51.8771445 C221.324105,51.254629 221.385651,50.3068778 222.008166,49.7602829 C222.630682,49.2136879 223.578433,49.2752337 224.125028,49.8977492 C225.672487,51.6601459 227.184531,53.4683379 228.661157,55.322305 C229.177274,55.9703129 229.070356,56.914023 228.422348,57.4301404 C227.77434,57.9462579 226.83063,57.8393396 226.314512,57.1913316 C224.867693,55.3747872 223.386424,53.6033982 221.8707,51.8771445 Z M232.226732,65.1412792 C231.754245,64.4608029 231.922854,63.5261418 232.60333,63.0536553 C233.283807,62.5811688 234.218468,62.7497778 234.690954,63.4302542 C236.024654,65.3510515 237.325098,67.3147543 238.592289,69.3213468 C239.03463,70.0217933 238.825395,70.9482062 238.124948,71.3905479 C237.424502,71.8328896 236.498089,71.6236542 236.055747,70.9232077 C234.811779,68.9533878 233.535439,67.0260836 232.226732,65.1412792 Z" id="Path" fill-rule="nonzero" opacity="0.424293155"></path>
            </g>
        </g>
        <g id="Group-9" transform="translate(793.000000, 481.145542)" fill-rule="nonzero">
            <path d="M128.042335,124.767959 C130.278057,124.714101 132.652619,125.058955 134.773247,125.69225 C135.044518,123.781918 135.315788,121.871586 135.587058,119.961255 C135.753297,118.790572 137.588272,119.04778 137.422309,120.216529 C137.135722,122.234718 136.849136,124.252908 136.56255,126.271097 C136.560314,126.286838 136.557778,126.302321 136.554948,126.317547 C137.201753,126.581818 137.807549,126.874605 138.357757,127.191814 C139.376209,127.778976 138.651099,129.469225 137.62116,128.87544 C134.181768,126.892539 128.051714,125.803917 124.221325,127.264631 C123.10628,127.689853 122.404638,125.991891 123.517752,125.567409 C124.32324,125.260236 125.211835,125.046609 126.149668,124.917018 C126.437448,122.890428 126.725227,120.863837 127.013006,118.837247 C127.179245,117.666564 129.01422,117.923775 128.848257,119.092521 C128.579616,120.984334 128.310975,122.876146 128.042335,124.767959 Z M133.550172,90.3845969 C133.61317,89.9217293 133.676168,89.4588616 133.739167,88.9959939 C133.808768,88.4846066 133.838708,87.9330866 134.075917,87.4633381 C134.546587,86.5312587 135.574848,86.437347 136.504948,86.5761548 C137.571326,86.7353005 138.437676,87.2053706 138.918329,88.1910977 C139.370509,89.1184303 139.277652,90.1493159 139.083573,91.1297454 C139.9858,91.1953963 141.111095,91.1867833 141.656802,91.9017332 C142.360294,92.8233999 141.643891,95.3267925 141.607607,96.3933767 C141.52617,98.7874024 141.570774,101.177469 141.693632,103.568993 C141.723856,104.157275 141.278813,104.682422 140.64554,104.595531 C137.972279,104.228737 135.299017,103.861945 132.625757,103.495151 C131.505117,103.341389 128.966372,103.539333 128.179157,102.542949 C127.378677,101.529773 128.112258,99.3037191 128.38609,98.2413608 C129.003497,95.8460749 130.044294,93.6033081 130.469775,91.155504 C130.671926,89.9925271 132.507377,90.2466408 132.305025,91.4107783 C132.02581,93.0171038 131.541534,94.5289959 131.011566,96.0704818 C130.658542,97.0972987 129.196088,100.327014 129.994259,101.17648 C130.705873,101.933828 134.442452,101.892656 135.556945,102.045574 C137.339119,102.290103 139.121292,102.534632 140.903467,102.779161 C140.554101,103.12134 140.204738,103.463521 139.855371,103.8057 C139.691497,100.615731 139.875781,97.4676636 139.857047,94.2838855 C139.849366,92.9785615 140.103122,93.2300269 138.83877,92.9642318 C138.129815,92.8151929 137.387004,92.7644527 136.66975,92.6657499 C135.079137,92.4468642 133.488522,92.2279774 131.897909,92.0090917 C130.714741,91.8462742 130.974775,90.0301936 132.155837,90.1927211 C132.620615,90.2566797 133.085394,90.3206384 133.550172,90.384597 Z M135.385786,90.6371979 C136.006061,90.7225547 136.626336,90.8079116 137.246612,90.8932684 C137.467666,89.8322658 137.60543,88.5999344 136.24702,88.3925249 C136.080893,88.3671604 135.811529,88.2764197 135.695062,88.3990124 C135.60522,88.4935786 135.589999,89.1367806 135.574416,89.251268 C135.511539,89.7132447 135.448663,90.1752213 135.385786,90.637198 Z M149.521527,78.3143844 C141.112144,76.4608206 132.560955,74.7297107 123.874853,74.7599481 C122.854853,74.6190949 123.227342,72.0077776 124.245605,72.1483908 C131.245954,73.1150758 138.246304,74.0817607 145.246653,75.0484454 C148.495224,75.497044 153.903565,74.6612645 154.796908,80.8762767 C155.213343,83.7734342 154.373808,87.7144212 153.988612,90.6590784 C153.290113,95.9988067 152.553089,101.334264 151.77931,106.664327 C150.918747,112.592214 150.856887,118.834224 146.345097,118.80308 C139.751756,118.757566 133.143077,117.146485 126.655197,116.1995 C123.78317,115.780289 119.59336,116.352939 117.039128,114.73663 C116.069474,114.123037 115.642155,114.219751 115.289119,112.362899 C114.71123,109.323388 115.926826,104.33001 116.356569,101.220813 C117.083406,95.9621345 117.829307,90.7059103 118.59422,85.4525195 C119.475777,79.3980163 119.428516,71.5434384 124.312577,72.7216825 C125.31193,72.9627692 124.944691,75.575174 123.941825,75.33324 C121.095095,74.646487 120.99259,80.1011748 120.505529,83.4212781 C120.010176,86.797913 119.523233,90.1758203 119.043734,93.5547603 C118.564234,96.9337002 118.092311,100.313692 117.628561,103.69472 C117.446231,105.024013 116.754303,108.020452 116.905651,109.396325 C117.18215,111.909907 118.556302,112.829161 120.153137,113.275158 C128.103892,115.495801 136.751589,115.198355 144.928487,115.996578 C146.565569,116.156389 147.249023,116.78329 148.457337,114.708617 C149.478511,112.955263 149.54249,110.902286 149.862827,108.72822 C150.367533,105.302853 150.856051,101.875011 151.329482,98.4452427 C152.266984,91.6535183 155.287965,79.5854006 149.521527,78.3143844 Z" id="Combined-Shape" fill="#3EB5E6"></path>
            <path d="M18.6601163,91.4748724 C18.9338873,92.5181352 19.1899972,93.5656968 19.4285276,94.6178853 C19.7483644,96.0287238 17.5755749,96.6134643 17.2551955,95.2002279 C17.0152389,94.141751 16.757492,93.0879542 16.4818711,92.0385036 C15.7292903,92.1745861 14.9848632,92.2267646 14.3211149,92.1085104 C12.8553965,91.8473745 12.1824942,90.003113 11.9072993,88.7222059 C11.6062896,87.3211424 11.9661236,86.1235534 13.1367734,85.2184723 C14.2450853,84.3615901 15.9832039,84.1714358 17.3846002,83.8675969 C17.5889788,83.1386258 18.084242,82.4413797 18.977079,81.4582062 C20.9593328,79.2753853 23.2712435,77.1222333 26.1544173,76.3055492 C27.5504563,75.9103246 28.1287871,78.084794 26.7367965,78.4790178 C24.445193,79.128018 22.485508,80.9800354 20.8845031,82.7050696 C19.8182031,83.8539767 19.521329,84.1070289 19.6171623,85.5638336 C19.6709806,86.3819715 20.0794314,87.2839086 20.2908683,88.0706514 C20.6236281,89.3088209 20.6478386,89.7001137 21.9035313,90.1143794 C22.9298323,90.4529663 24.125181,90.4726087 25.2102357,90.5540558 C27.055382,90.6925576 28.9116377,90.7029719 30.756103,90.808666 C30.3911788,91.2808099 30.0262537,91.75295 29.6613295,92.2250939 C28.3526033,87.6281364 27.0834735,83.0205415 25.8538059,78.4018079 C25.4807444,77.000555 27.654643,76.4203373 28.027139,77.8194649 C28.2018934,78.4758571 28.3774449,79.1320243 28.553794,79.7879679 C30.6876594,79.550308 32.4886163,80.5664204 33.2709825,82.8474837 C34.0006971,84.9750375 33.1578296,87.8625423 31.0194801,88.759558 C31.2895135,89.7210807 31.5612787,90.6821332 31.8347779,91.6427199 C32.0272145,92.3191011 31.4679055,93.1008933 30.7398862,93.0591755 C27.545774,92.8761416 23.9564373,93.1494972 20.8596784,92.1853333 C20.16771,91.9698919 19.6649469,91.6605893 19.286188,91.2765648 C19.08494,91.3408475 18.8755396,91.4077969 18.6601163,91.4748724 Z M17.4656717,86.1615558 C16.7022915,86.3365695 15.9332829,86.5074737 15.1913858,86.7383666 C14.3103264,87.0125679 13.8999017,87.404864 14.1229138,88.3365001 C14.2094782,88.6981235 14.4331282,89.6939992 14.7893193,89.9021815 C14.8012027,89.9091272 15.6813328,89.798862 15.6056451,89.8095142 C16.4961828,89.6841643 17.3717305,89.4853702 18.2349941,89.2394722 C18.0528558,88.5960178 17.9123116,87.889372 17.7133107,87.1489037 C17.616453,86.788503 17.5330669,86.4618873 17.4656717,86.1615558 Z M29.1488981,81.9895086 C29.559165,83.4990732 29.9736676,85.0074597 30.3924146,86.5146845 C31.3126946,85.8686435 31.498391,84.3966042 31.0555193,83.3672404 C30.6195719,82.3539767 29.9859489,81.9733817 29.1488981,81.9895086 Z M39.8896649,73.8896449 C39.3177456,74.1048272 39.279389,75.1302281 39.5716121,75.6421847 C40.0423246,76.4668372 40.9163391,75.8777056 41.656387,75.9468269 C42.4473881,76.0207088 42.8797424,76.6576214 42.8617761,77.4386734 C42.8447219,78.1801783 42.3883234,78.8331465 41.7082848,79.073033 C41.7177771,79.0937011 41.7258605,79.1160866 41.7323332,79.1402431 C41.7673819,79.2710468 41.8024302,79.4018487 41.8374784,79.5326505 C41.9625887,79.9995683 41.2379375,80.1929106 41.1130341,79.7267648 C41.0779858,79.595963 41.0429376,79.4651611 41.0078888,79.3343574 C40.9920429,79.2752195 40.9898286,79.2204702 40.9983008,79.1708936 C40.2110252,79.1257629 39.6566733,78.5592356 39.3247059,77.8187532 C39.128742,77.3816376 39.7747432,76.9997247 39.9716695,77.4389876 C40.295176,78.1605964 40.7691551,78.6346427 41.5538319,78.1808379 C42.3418998,77.7250682 42.2995178,76.7314686 41.2717925,76.7188664 C40.8088591,76.7131896 40.3957715,76.9971106 39.9218878,76.922268 C39.01862,76.7796118 38.6065781,75.6273452 38.6237021,74.8142909 C38.6353158,74.2627921 38.969684,73.5202276 39.4769089,73.1376995 C39.4343555,72.9788881 39.3918021,72.8200766 39.3492486,72.661265 C39.2241384,72.1943472 39.9487901,72.0010067 40.073693,72.4671507 C40.1111142,72.6068086 40.1485354,72.7464665 40.1859566,72.8861242 C41.0408407,72.8920695 41.5922272,73.9367597 41.8887504,74.5906182 C42.0867272,75.0271688 41.4406622,75.4089171 41.2417875,74.9703858 C40.9943673,74.4248023 40.8308226,73.9197394 40.2068183,73.8540902 C40.1855105,73.8518484 40.1646618,73.8504358 40.1442674,73.8498218 C40.0661051,73.8885687 39.9750841,73.9034814 39.8896649,73.8896449 Z M40.7666862,96.0604635 C39.5327526,91.5177249 38.2041499,86.9974216 36.9363297,82.4652561 C36.9255223,82.4266224 36.9166764,82.3886144 36.9097,82.3512566 C36.4072877,81.98869 35.9348096,81.5581 35.5036523,81.0629771 C33.128704,78.3356819 32.7044703,74.4330074 34.6360256,71.6132866 C34.3751234,70.4911267 34.1340631,69.3237593 33.8551125,68.1760568 C33.7739519,68.2197496 33.6828323,68.2556014 33.5813129,68.2819606 C23.7028945,70.846864 13.8244761,73.4117673 3.94605935,75.9766702 C4.3475711,77.2824455 4.77656731,78.574276 5.10296955,79.8099463 C6.46077358,84.9502257 7.83281312,90.0867311 9.20920225,95.2220611 C9.70539706,97.0733718 10.2474238,100.644741 11.0974901,104.010301 C20.9872222,101.360355 30.8769542,98.7104092 40.7666862,96.0604635 Z M41.3487054,98.2338833 C31.4673804,100.881576 21.5860553,103.529269 11.7047303,106.176963 C12.4895191,108.67951 13.5004007,110.793302 14.8648866,111.581789 C17.0259571,112.830594 20.9754402,110.815205 23.4495666,110.150389 C26.011248,109.462046 28.5729295,108.773706 31.1346119,108.085362 C33.9152143,107.338197 37.1728384,106.953784 39.780288,105.762209 C43.1344044,104.229417 42.2682445,101.74131 41.447957,98.6114489 C41.4149666,98.4855719 41.3818817,98.3597169 41.3487054,98.2338833 Z M33.2752021,66.0680954 C33.0979962,65.5100175 32.9017023,64.9674692 32.6787394,64.4489691 C30.1445775,58.5557939 27.4506786,60.151988 23.0754405,61.3257204 C17.9821916,62.6920713 12.8889427,64.0584222 7.79569284,65.4247734 C6.82160351,65.6860894 5.01734936,65.8154347 4.20045798,66.3892565 C2.68814199,67.4515756 2.62078461,69.1555715 2.82685469,71.1317866 C2.91859996,72.0116257 3.10024688,72.9097595 3.32908846,73.8123281 C13.2190478,71.2444282 23.1090089,68.6765279 32.9989701,66.1086275 C33.0950245,66.0836873 33.187226,66.0706415 33.2752021,66.0680954 Z M39.5826907,83.5730536 C40.6800117,87.4921799 41.7797902,91.4106386 42.871684,95.331275 C43.587082,97.9000381 45.2524707,101.874148 44.537406,104.671292 C43.4004865,109.118621 35.2821563,109.3007 31.7169546,110.258694 C27.2383154,111.462134 22.7717288,112.765037 18.2681251,113.87249 C16.4449959,114.320804 15.0423628,115.056681 13.4014294,113.920599 C11.8004357,112.812167 11.1955492,110.306663 10.5862539,108.563842 C9.13490674,104.412425 8.1739173,100.05064 7.03586909,95.8044022 C4.73067206,87.2033476 1.84489064,78.5254695 0.152307619,69.7844468 C-1.04081966,63.6227714 5.01680524,63.8407002 9.90977637,62.5280773 C13.8046138,61.4832208 17.699451,60.4383642 21.5942902,59.3935072 C24.0731434,58.7285125 27.4914899,57.0814994 30.0770948,57.4548689 C34.4670689,58.0887919 35.7215513,65.0635513 36.5869291,69.7022582 C39.8216143,67.5782238 44.799996,68.3866881 46.4148805,72.1517485 C46.979879,73.4690223 45.0425582,74.6166454 44.4739904,73.2910473 C43.270546,70.4852528 39.1805846,70.0178993 37.127176,72.1848804 C37.1182548,72.194295 37.1093783,72.2037229 37.1005464,72.2131639 C37.1199843,72.2910223 37.1395236,72.3665677 37.1592006,72.4396855 C37.3816601,73.2663141 36.7153287,73.8070546 36.0545862,73.8238767 C35.2370485,75.8369022 35.9080747,78.1042265 37.5419055,79.813674 C42.2291062,84.7178063 48.9541339,76.9921303 43.9053202,72.7884976 C42.7891957,71.8592164 44.3839084,70.269466 45.4880074,71.1887394 C48.5748044,73.7587985 48.7469145,78.9683698 45.8730564,81.7257986 C44.0199682,83.5038143 41.7224794,84.0580452 39.5826907,83.5730536 Z M25.9070653,106.771382 C24.5063136,107.146712 23.9262866,104.972759 25.3247224,104.598049 C26.5321297,104.274525 27.739537,103.951001 28.9469443,103.627478 C30.3476977,103.252147 30.9277248,105.4261 29.5292871,105.800811 C28.3218798,106.124334 27.1144726,106.447858 25.9070653,106.771382 Z M17.8010103,68.3088034 C19.1994479,67.9340932 18.6194209,65.7601396 17.2186674,66.1354703 C15.8202316,66.5101801 16.4002586,68.6841337 17.8010103,68.3088034 Z" id="Combined-Shape" fill="#3EB5E6"></path>
            <path d="M61.2193516,28.1100954 C60.9170478,27.6980511 60.9274177,27.0633877 61.2491954,26.6560278 C61.5307318,21.731355 63.6318265,16.7890905 67.1522464,12.9192455 C70.9194707,8.77809886 75.1276006,5.15052576 80.8729219,4.44645476 C85.4722776,3.88281846 91.2890787,4.04485636 95.0169725,7.07710196 C95.5145387,7.48182176 95.3840494,8.24583316 95.0169725,8.66809246 C90.4297838,13.9448287 87.8868933,20.1522615 87.4442644,27.1238992 C87.2859117,27.0032712 87.1275593,26.8826432 86.969207,26.7620153 C86.8798101,26.4021057 86.5670254,26.099905 86.2144405,25.9767181 C87.7447584,25.4332558 89.5526635,23.6084176 90.9573812,22.8139588 C92.6019372,21.8838536 94.4114847,21.2867142 96.051156,20.3387505 C99.0728158,18.5918022 101.163926,16.6184479 104.804669,16.8520218 C106.244889,16.9444214 106.250489,19.19478 104.804669,19.1020218 C100.884889,18.8505455 96.8066682,22.4474465 93.360711,24.1357857 C91.0678809,25.2591504 89.292909,27.3229058 86.8987046,28.1218884 C86.3584878,34.784762 86.3957192,41.4512322 86.4961944,48.1330988 C89.9417893,48.0487786 93.7808038,47.4615844 96.3840685,46.0723678 C105.919454,40.9838821 108.42851,28.4097072 103.96473,19.1389076 C103.338807,17.8389389 105.279584,16.699094 105.907536,18.003289 C110.988187,28.5552604 108.276608,42.0772045 97.5196886,48.0151775 C93.4533739,50.2598408 85.7599859,50.9421757 81.2796411,50.2158802 C76.2221583,49.3960255 71.3423671,44.6640652 67.5093049,41.4362858 C63.2617062,37.8594288 61.3006975,33.0479532 61.2193517,28.1101015 Z M85.822937,28.1241513 C85.8374078,28.1386221 85.8518786,28.1530929 85.8663494,28.1675637 C78.4283253,28.2760691 70.9903022,28.3845728 63.5522791,28.493078 C63.5565623,28.6892662 63.5629081,28.886732 63.5712766,29.0855075 C63.7935142,34.3642874 66.2777037,37.5833007 70.1976461,40.7284003 C73.8396291,43.6504852 78.1365518,47.6409904 82.9616594,48.0391494 C83.3720121,48.073011 83.8015834,48.0992112 84.2459515,48.1169379 C84.1402379,41.0795907 84.105142,34.0594377 84.7413494,27.0425637 C84.92066,27.2218743 85.0999706,27.4011849 85.2792812,27.5804955 C85.3873545,27.8168535 85.5866785,28.0080848 85.8229353,28.1241496 Z M85.289878,25.9258854 C85.9745359,18.8186176 88.697517,12.5163509 93.4259805,7.07710226 C93.4259805,7.60743236 93.4259805,8.13776206 93.4259805,8.66809276 C89.9683999,5.85571726 82.3432416,5.91824486 78.2790212,7.26742656 C74.2113856,8.61774166 70.9994659,11.9015066 68.2382249,15.0610868 C65.2759517,18.4506996 63.8798311,22.0570642 63.5994331,26.2423901 C70.8295811,26.136917 78.0597291,26.0314403 85.289878,25.9258854 Z M102.409787,2.63525836 C101.090562,2.04015386 102.235936,0.101745363 103.545404,0.692449463 C106.267869,1.92056116 108.26875,3.92199596 110.12861,6.21987566 C111.049585,7.35775406 112.638364,9.01128706 111.761537,10.6212534 C111.436242,11.2185367 110.83896,11.4350284 110.282438,11.709391 C108.476625,12.5996469 106.470834,13.1698116 104.637685,14.045668 C101.89647,15.3553861 98.1433423,16.13668 95.855119,18.0996965 C95.1900647,18.6702302 93.8328373,18.3615888 93.9346211,17.3042024 C94.5658428,10.7467569 97.6901524,5.69598796 101.494142,0.487111363 C102.340509,-0.671837637 104.291917,0.452007363 103.436948,1.62272946 C99.9161769,6.44379726 96.77308,11.191004 96.184621,17.3042023 C95.5444576,17.039037 94.9042941,16.7738716 94.2641269,16.5087063 C95.6319362,15.335294 97.0564815,14.7248738 98.7338954,14.124964 C101.138417,13.265011 103.362657,12.0893595 105.692864,11.0623438 C106.352719,10.7715198 107.639222,10.5366718 108.214589,10.0548479 C109.602754,10.0108139 109.815,9.39285296 108.851331,8.20096506 C108.543099,7.80601606 108.226396,7.41803656 107.901212,7.03702796 C106.325326,5.17531986 104.659799,3.65024486 102.409787,2.63525836 Z" id="Combined-Shape" fill="#032A50"></path>
        </g>
        <g id="iconfinder_email__mail__message__send__online__e-mail__envelope_2528119" transform="translate(956.000000, 484.145542) rotate(34.000000) translate(-956.000000, -484.145542) translate(930.000000, 470.145542)" fill="#3EB5E6" fill-rule="nonzero">
            <path d="M48.4085662,4.82296366 C45.9855359,7.01666256 43.2752589,7.12247069 39.9455794,8.7463532 C36.9906043,10.1874924 34.164524,14.5807438 30.8989524,15.1916199 C28.0387535,15.7266655 26.3818588,12.6161633 24.4335403,10.9888077 C20.8868708,8.02641356 16.3605341,5.79534718 12.2382588,3.612215 C12.2660729,3.81550985 12.3124579,4.04538732 12.3774138,4.3018474 C12.249664,5.24106518 12.1219142,6.18028406 11.9941644,7.11950236 C12.664346,7.08788131 13.3344699,7.05419023 14.0045432,7.0184288 C15.4539212,6.9410782 15.4448785,9.1915607 14.0045432,9.2684288 C13.22314,9.31013154 12.4416678,9.34901893 11.6601152,9.38509138 C11.5024738,10.3789624 11.3376877,11.3739723 11.1751573,12.3701283 C12.3970748,12.3591388 13.6189924,12.3481495 14.84091,12.3371601 C16.2915211,12.3241138 16.2880001,14.5741444 14.84091,14.5871601 C13.4991743,14.5992271 12.1574386,14.611294 10.815703,14.6233611 C10.6601693,15.632514 10.5141847,16.6428444 10.3874715,17.6543598 C12.0385695,17.6543598 13.6896675,17.6543598 15.3407655,17.6543598 C16.7909303,17.6543598 16.7885328,19.9043598 15.3407655,19.9043598 C13.6076899,19.9043598 11.8746146,19.9043598 10.1415393,19.9043598 C9.9348261,22.1608531 9.85940261,24.4232497 10.0226401,26.6916314 C9.6476401,26.3166314 9.2726401,25.9416314 8.8976401,25.5666314 C17.2517947,25.6056405 25.6056403,25.5586777 33.9585036,25.4023171 C37.2549209,25.3406105 45.7712211,26.5833397 47.4521369,23.1328316 C48.1151847,21.7717552 47.7385024,18.9179154 47.8375892,17.4595051 C47.9660759,15.5683975 48.0945587,13.67729 48.2230415,11.7861824 C48.3428192,10.0232353 48.8350868,7.8818569 48.6084976,6.1128578 C48.5443048,5.61170539 48.4814047,5.18550146 48.4085662,4.82296366 Z M47.1514433,2.96418767 C46.5722127,2.76994545 45.7301244,2.75054728 44.461792,2.7418632 C40.211319,2.7127599 35.9607506,2.6969194 31.7101746,2.6954488 C27.7865658,2.6940908 23.8629551,2.7040357 19.9394074,2.7258567 C18.8305557,2.73202358 16.3673285,2.34985227 14.684937,2.39412256 C17.0526667,3.70469535 19.3953172,5.06527745 21.7190608,6.4491119 C23.1734428,7.3152275 24.666006,8.147028 25.9643268,9.2464161 C26.9293308,10.0635605 27.8626766,11.7330532 28.9374275,12.2660885 C31.5908165,13.5820695 35.1584358,8.854229 37.5007324,7.5031777 C40.5758081,5.7294546 44.6238629,5.51302286 47.1514433,2.96418767 Z M9.72707827,7.21856449 C9.9355556,5.29157773 9.57999613,1.7369613 11.4068663,0.6679581 C12.4944775,0.0315359 14.8402063,0.5104435 16.0158846,0.5015715 C18.3045924,0.4842986 20.5933268,0.4712457 22.8820803,0.4619254 C27.7865526,0.4419526 32.691086,0.4399938 37.5955736,0.4565343 C41.4594919,0.4695662 46.4663202,-0.3466836 50.1817781,0.7197379 C50.540352,0.8226575 50.8897516,1.1257915 50.9675218,1.5054826 C51.5027009,4.1183509 50.7819101,7.2401142 50.6015283,9.8950729 C50.3873865,13.0469207 50.1732484,16.1987667 49.9591066,19.3506145 C49.7963029,21.7468262 50.6212121,26.0089149 48.0275308,27.2171707 C45.9780351,28.1719208 42.0076143,27.4725075 39.7406999,27.5278435 C36.5285912,27.6062508 33.3160668,27.6693954 30.1033574,27.7172699 C23.0351487,27.8225937 15.9665042,27.8496399 8.8976403,27.8166313 C8.2526007,27.8136215 7.8164573,27.3005218 7.7726403,26.6916313 C7.60962476,24.4263349 7.68057339,22.1630401 7.88268003,19.9043598 C6.09093048,19.9043598 4.299181,19.9043598 2.5074315,19.9043598 C1.0572659,19.9043598 1.0596638,17.6543598 2.5074315,17.6543598 C4.37956447,17.6543598 6.25169722,17.6543598 8.12382987,17.6543598 C8.24763607,16.6496724 8.39069088,15.6460731 8.54390593,14.6437929 C7.08738944,14.6568924 5.63087298,14.6699921 4.1743565,14.6830921 C2.7237451,14.6961384 2.727267,12.446106 4.1743565,12.4330921 C5.75024388,12.4189184 7.32613124,12.4047452 8.90201864,12.3905721 C9.06057808,11.4196981 9.2222873,10.4502304 9.37883344,9.48238016 C6.89513232,9.57958957 4.41050966,9.64838655 1.9246043,9.6887836 C0.4738044,9.7123585 0.4782323,7.462286 1.9246043,7.4387836 C4.52669313,7.3964985 7.1273797,7.32309743 9.72707827,7.21856449 Z M9.74562387,7.21781825 C10.3896381,7.19188595 11.0335918,7.16404312 11.6774913,7.13428953 C11.1915948,6.44752084 10.0184566,6.32457349 9.74562387,7.21781825 Z" id="Combined-Shape"></path>
        </g>
    </g>
</svg>