<?xml version="1.0" encoding="UTF-8"?>
<svg width="53px" height="53px" viewBox="0 0 53 53" version="1.1" xmlns="http://www.w3.org/2000/svg" xmlns:xlink="http://www.w3.org/1999/xlink">
    <!-- Generator: Sketch 55.2 (78181) - https://sketchapp.com -->
    <title>Combined Shape</title>
    <desc>Created with Sketch.</desc>
    <g id="Page-1" stroke="none" stroke-width="1" fill="none" fill-rule="evenodd">
        <g id="Adoptomedia-home" transform="translate(-661.000000, -824.000000)" fill="#032A50" fill-rule="nonzero" stroke="#032A50" stroke-width="0.5">
            <path d="M709.005043,848.672123 C714.175912,855.153416 714.802684,863.34889 708.052485,870.311299 C707.893537,870.47534 707.736844,870.676814 707.539569,870.757183 C705.663762,871.516839 705.301903,872.505492 706.899269,874.054529 C707.621861,874.758036 707.223928,875.467048 706.37959,875.794031 C705.976021,875.951466 705.466487,876.067066 705.067427,875.95587 C701.409378,874.939693 697.603655,874.995842 693.915169,874.2527 C691.546738,873.775989 691.665103,873.432492 692.71348,871.119396 C694.342411,867.521491 696.559786,864.307817 698.331883,860.817805 C698.643014,860.205677 698.831271,859.632082 699.607972,859.720158 C700.306891,859.799426 700.447802,860.327882 700.551512,860.957626 C700.673259,861.711777 701.014827,862.67731 701.654,862.778597 C702.532157,862.918418 702.850052,861.858203 703.171329,861.141484 C704.117123,859.03867 705.589361,857.194578 706.051549,854.846251 C706.160896,854.295776 706.554319,853.908242 707.172073,854.065678 C707.735717,854.208801 707.730081,854.715238 707.726699,855.189748 C707.725571,855.304247 707.718808,855.428654 707.68048,855.534345 C706.376208,859.052982 705.24892,862.687218 702.063205,864.998113 C700.689041,865.992271 700.356491,865.864561 699.910085,864.221943 C699.819902,863.889456 699.837939,863.4766 699.462552,863.353293 C699.013892,863.204665 698.9192,863.675872 698.759125,863.933494 C697.242923,866.3732 695.61061,868.739142 694.67947,871.531151 C694.385248,872.411912 694.709907,872.548429 695.347952,872.655222 C698.216899,873.134135 701.152357,872.976699 703.928866,873.880579 C704.152069,873.189182 703.821774,872.887522 703.660572,872.542925 C702.806088,870.698833 702.816233,870.685622 704.764187,870.215516 C705.077572,870.13955 705.361649,869.909452 705.64798,869.7333 C710.832376,866.571371 712.734111,858.380301 709.575451,852.748941 C708.289215,850.454561 706.676067,848.459639 704.50491,846.998678 C704.129524,846.74546 703.764282,846.466919 703.426096,846.164158 C702.894016,845.687447 702.352918,845.06541 702.862452,844.374013 C703.472315,843.547199 704.024686,844.290341 704.548875,844.700995 C706.114677,845.926353 707.730081,847.071341 709.005043,848.672123 Z M690.639728,865.79605 C691.37423,866.361479 690.822789,867.079933 690.420507,867.603037 C689.107443,869.33297 687.499448,870.66135 685.273342,870.876235 C676.887586,871.684767 670.437526,868.554826 666.644104,860.809199 C666.101702,859.698959 665.580771,859.267019 664.403307,859.375547 C663.607785,859.450431 662.594171,859.676169 662.12861,858.715698 C661.713899,857.861584 662.395291,857.133363 662.854072,856.551654 C665.059839,853.745126 666.520934,850.521851 668.073558,847.335475 C668.46341,846.536711 668.050958,845.111741 669.386622,845.005384 C670.690646,844.900112 670.539226,846.365237 671.109878,847.064156 C673.304345,849.750218 675.00048,852.828066 677.341847,855.407771 C677.571238,855.660641 677.813058,855.924363 677.952049,856.229326 C679.208613,858.950118 679.199573,859.558959 676.186983,859.363609 C674.687469,859.267019 674.608369,859.767332 675.12252,861.027339 C675.860412,862.832156 677.005106,864.122551 678.802942,864.818214 C679.434613,865.062402 680.217706,865.350001 679.828985,866.249696 C679.503544,867.008305 678.778081,866.714195 678.18822,866.536209 C675.261511,865.650623 672.373222,861.464706 672.602612,858.392285 C672.668153,857.520807 673.147274,857.00313 674.093087,857.282046 C674.689729,857.458946 675.277331,857.644529 676.231054,857.233208 C674.116817,854.337687 672.113321,851.586508 670.104175,848.845097 C669.752744,848.364319 669.480413,848.516258 669.255542,848.990524 C667.902928,851.864339 666.708514,854.827148 664.088036,857.583753 C666.723204,857.290728 667.554887,858.455231 668.391089,860.194931 C671.471479,866.585047 676.772325,869.328629 683.638226,869.224442 C685.881283,869.190798 687.656519,868.301956 689.001223,866.487372 C689.420454,865.919771 689.919916,865.239302 690.639728,865.79605 Z M674.798711,843.987952 C673.822607,843.863765 673.996186,842.853637 674.040145,842.119604 C674.40083,836.239575 678.884596,831.029268 684.924944,829.611098 C687.936664,828.904785 690.997979,828.333746 694.086344,829.206381 C694.816732,829.411511 695.135713,828.996816 695.393828,828.446845 C695.811997,827.553143 696.189589,826.636156 696.590851,825.734692 C696.793737,825.280079 697.09581,824.934129 697.623312,825.010637 C698.096711,825.079384 698.176738,825.477447 698.28269,825.898796 C699.328676,830.043534 701.402616,833.648281 703.696347,837.137712 C704.036744,837.654418 704.363614,838.028088 705.024119,838.015891 C705.578672,838.005912 706.022766,838.27868 705.999096,838.956164 C705.978807,839.541616 705.555002,839.72457 705.08273,839.802187 C700.31267,840.57392 695.573043,841.553001 690.745499,841.873447 C690.143606,841.913365 689.427871,842.023137 689.089729,841.33013 C688.762858,840.655972 689.237385,840.104893 689.573273,839.56601 C689.788556,839.223387 689.986933,838.865241 690.215743,838.533706 C690.74888,837.763082 690.622641,837.378324 689.698385,837.062313 C687.976114,836.479078 686.273004,836.591068 684.539462,836.871597 C683.876703,836.980261 683.2038,837.044572 682.534278,837.065639 C682.123999,837.078945 681.754297,836.893774 681.679905,836.394808 C681.597624,835.824879 681.886172,835.485583 682.37986,835.370266 C685.555015,834.646212 688.721154,834.331309 691.77796,835.87034 C693.502485,836.739649 693.568987,837.350604 692.197256,838.795386 C692.082288,838.915138 692.011278,839.088112 691.945904,839.246672 C691.905327,839.346465 691.916598,839.468435 691.879403,839.825472 C695.115424,839.643627 698.208298,839.114724 701.296664,838.524836 C702.256988,838.339664 702.040577,837.940492 701.670875,837.360583 C700.029758,834.782596 698.494592,832.141406 697.302077,828.961334 C696.169301,831.35415 694.462809,830.944998 692.51511,830.828573 C687.05524,830.497038 681.891808,831.345279 678.101233,836.234031 C676.672019,838.073549 676.081397,840.101566 675.817646,842.345801 C675.735365,843.055441 675.878511,844.125444 674.798711,843.987952 Z M691.900672,860.684522 C692.106304,859.54493 691.576716,859.148893 690.648501,858.809273 C689.596217,858.423391 689.043654,857.517359 689,856.278476 C689.072373,855.742529 688.983917,855.032823 689.755898,854.915479 C690.401513,854.813931 690.666881,855.30813 690.749593,855.885824 C690.964415,857.39663 692.063799,857.410169 693.091958,857.279286 C694.349873,857.116809 695.600895,856.743339 696.104061,855.304745 C696.379769,854.519442 695.952422,854.103096 695.232137,853.888717 C693.86279,853.476885 692.481955,853.104543 691.230933,852.338421 C688.269375,850.520715 688.856402,847.474281 691.371084,845.583236 C691.990277,845.116116 692.43945,844.822755 692.29815,843.955086 C692.225777,843.524072 692.450938,843.13142 692.919641,843.026488 C693.368814,842.927196 693.807648,843.107726 693.873129,843.556793 C694.055785,844.822755 694.881758,845.276336 695.905322,845.641908 C696.514176,845.858543 697.100054,846.353871 696.792181,847.126762 C696.452142,847.978635 695.76632,847.62209 695.179293,847.377247 C693.767441,846.790526 692.445194,846.437365 691.488259,848.223478 C690.913869,849.294244 691.158559,850.002822 692.074138,850.623391 C693.201092,851.388385 694.496917,851.665949 695.747939,852.071012 C696.822049,852.420788 697.849059,852.788616 697.973128,854.194489 C698.107535,855.714321 697.757157,857.042341 696.480861,857.944988 C696.10521,858.211269 695.697393,858.465138 695.268897,858.606177 C694.240739,858.942413 693.583636,859.491899 693.64567,860.754477 C693.676687,861.356994 693.454972,862.029466 692.711711,861.999002 C691.965004,861.969666 691.793835,861.280269 691.900672,860.684522 Z M679.310977,853.533221 C679.754722,853.501565 680.150695,853.501565 680.137956,852.806216 C680.125217,852.128333 679.792939,851.923112 679.256836,851.836876 C678.687823,851.746273 677.956387,851.697151 678.002036,850.843521 C678.055115,849.849074 678.833261,849.93531 679.456415,850.042287 C680.186789,850.162363 680.346028,849.590365 680.583824,849.090413 C681.837563,846.465117 683.839723,845.637685 686.422574,846.138729 C687.003264,846.252255 687.697544,846.240248 687.634911,847.130992 C687.573338,847.990081 686.882243,848.018463 686.298368,847.95515 C684.714474,847.780494 683.191091,847.706265 682.348188,849.608922 C682.307848,849.701708 682.318464,849.823967 682.291924,850.035738 C682.52972,850.097959 682.772825,850.182012 683.021237,850.223493 C683.535047,850.309729 683.985161,850.518224 683.980915,851.158993 C683.975607,851.833601 683.478783,851.956952 682.977712,852.004982 C682.428869,852.058471 681.714419,851.858708 681.852425,852.920834 C681.97557,853.855243 682.610401,853.481916 683.087056,853.497198 C683.349268,853.503748 683.617851,853.445893 683.876879,853.475366 C684.420414,853.537587 684.992611,853.664213 684.984118,854.423966 C684.974564,855.085475 684.472432,855.2121 683.971361,855.278688 C683.518061,855.337634 682.833335,855.131322 682.703821,855.691312 C682.566876,856.27641 683.160305,856.675935 683.588126,857.006689 C684.506402,857.719503 685.483066,858.277311 686.672048,858.121212 C687.263354,858.042617 687.966127,857.932365 687.999036,858.842759 C688.029822,859.724771 687.317495,859.996579 686.667801,859.999854 C684.336548,860.014045 682.426746,858.994491 681.196362,856.818934 C680.717585,855.972945 680.326919,855.315802 679.331147,855.304886 C678.85237,855.30052 678.357669,855.092025 678.347053,854.414141 C678.335375,853.723159 678.806721,853.570335 679.310977,853.533221 Z" id="Combined-Shape"></path>
        </g>
    </g>
</svg>