<?xml version="1.0" encoding="UTF-8"?>
<svg width="47px" height="47px" viewBox="0 0 47 47" version="1.1" xmlns="http://www.w3.org/2000/svg" xmlns:xlink="http://www.w3.org/1999/xlink">
    <!-- Generator: Sketch 55.2 (78181) - https://sketchapp.com -->
    <title>Combined Shape</title>
    <desc>Created with Sketch.</desc>
    <g id="Page-1" stroke="none" stroke-width="1" fill="none" fill-rule="evenodd">
        <g id="Adoptomedia-home" transform="translate(-89.000000, -829.000000)" fill="#032A50" fill-rule="nonzero">
            <path d="M127.385959,874.91897 C123.903273,874.887884 120.420548,874.865118 116.937796,874.85067 C116.575534,875.051392 116.086333,875.0497 115.725894,874.845978 C113.89389,874.839394 112.061879,874.835111 110.229862,874.83313 C109.83126,875.056013 109.277562,875.055579 108.883283,874.832089 C103.104212,874.829399 97.325087,874.849615 91.5459525,874.892737 C91.2312345,875.033097 90.8520036,875.035757 90.5479106,874.900412 C90.3734973,874.901793 90.1990839,874.903195 90.0246706,874.904617 C88.6567564,874.915773 88.6601309,873.083893 90.0246706,873.072765 C90.0303598,873.072719 90.036049,873.072672 90.0417383,873.072626 C90.3487387,865.74081 90.2301582,858.209657 91.0868887,850.937527 C91.4541286,847.820309 93.5404044,847.64899 96.6749825,848.319918 C97.0479892,848.399755 97.3192874,848.717994 97.4298806,849.058587 C98.4843922,852.306156 97.7510605,856.56952 97.7614826,859.964581 C97.774845,864.317437 97.7882082,868.670297 97.8015715,873.023154 C99.2021877,873.016709 100.602803,873.01161 102.003416,873.007856 C102.043343,865.156288 102.083262,857.304723 102.12318,849.453157 C102.157997,842.605014 102.304784,843.00719 109.83222,843.003382 C110.460852,843.003064 111.00502,843.484642 111,844.050427 C110.913746,853.700916 110.827524,863.351403 110.741304,873.001891 C112.240524,873.003863 113.739751,873.007376 115.238974,873.01243 C115.239673,869.304322 115.24037,865.596215 115.241069,861.88811 C115.241648,858.816646 114.54053,854.942262 115.526996,852.005355 C115.639698,851.669822 115.914144,851.353606 116.29313,851.275801 C117.933774,850.938977 120.26777,850.897179 121.910898,851.225313 C122.278763,851.298776 122.579722,851.62065 122.677031,851.954869 C123.474103,854.692503 122.553871,858.384194 122.481955,861.266184 C122.383932,865.194327 122.41332,869.1215 122.519692,873.049097 C124.141823,873.059966 125.763947,873.07264 127.386062,873.087119 C127.386562,864.259983 127.387064,855.432845 127.387563,846.605707 C127.387673,844.611054 126.220603,839.369926 127.93639,837.806938 C129.33481,836.533054 132.106636,837.146065 133.853974,837.15653 C134.442077,837.160052 134.93132,837.635363 134.934574,838.20439 C135.001255,849.858908 135.016965,861.513489 134.981708,873.168122 C136.341797,873.190567 136.339143,875.01679 134.975451,874.999883 C134.939129,874.999433 134.902808,874.998984 134.866486,874.998535 C134.49021,875.720883 133.266041,875.712395 132.912559,874.975284 C131.790763,874.962436 130.668962,874.950451 129.547157,874.939329 C129.547156,874.955482 129.547156,874.971636 129.547155,874.987789 C129.547078,876.338517 127.385878,876.33629 127.385955,874.987789 C127.385956,874.964849 127.385957,874.94191 127.385959,874.91897 Z M132.820586,873.14238 C132.855742,861.496328 132.840006,849.850329 132.773374,838.20439 C133.133574,838.553676 133.493774,838.902963 133.853974,839.25225 C132.996213,839.247112 130.289089,838.818032 129.549162,839.510186 C128.972983,840.049168 129.548921,843.802757 129.548862,844.831826 C129.548679,848.08394 129.548496,851.336054 129.548309,854.588168 C129.54796,860.76127 129.54761,866.934375 129.547261,873.107478 C130.638373,873.118295 131.729482,873.12993 132.820586,873.14238 Z M117.432815,873.020927 C118.397039,873.025146 119.361262,873.030001 120.325481,873.035495 C120.219453,869.112297 120.191743,865.189927 120.288112,861.266184 C120.330856,859.525788 121.904932,852.291661 118.510873,853.213378 C116.432064,853.777914 117.434877,862.07134 117.43461,863.501825 C117.43401,866.674861 117.433413,869.847893 117.432815,873.020927 Z M108.405831,873.000067 C108.492046,863.350187 108.578261,853.700308 108.664476,844.050427 C109.053724,844.399442 109.442972,844.748457 109.83222,845.097472 C105.138724,845.099847 104.475756,846.092435 104.454108,850.350398 C104.441942,852.743039 104.429778,855.135678 104.417614,857.528319 C104.391389,862.686492 104.365165,867.844669 104.338939,873.002843 C105.694572,873.000657 107.050203,872.999732 108.405831,873.000067 Z M92.1913068,873.056165 C93.3422061,873.047917 94.4931051,873.040577 95.6440032,873.034146 C95.7043959,869.614525 96.5932433,850.403908 94.4868855,850.266621 C92.5493826,850.140339 92.3069036,868.267519 92.1913068,873.056165 Z M130.232594,829.328462 C131.166232,828.320195 132.633977,829.86264 131.701904,830.869216 C128.199912,834.651135 124.625845,838.356671 120.949451,841.952471 C119.669197,843.204659 117.641189,846.428263 115.628618,846.031062 C111.577434,845.23152 109.011861,837.873128 104.692648,838.445952 C101.064411,838.927135 96.4734308,845.172457 93.7996803,847.707204 C92.8094102,848.645993 91.3362699,847.10887 92.3303689,846.166452 C95.4839354,843.176833 98.9447057,838.524936 102.697389,836.395871 C104.779653,835.214509 106.227203,835.853889 108.105663,837.244658 C109.758015,838.468025 111.295119,839.914919 112.874658,841.240349 C115.830532,843.720697 117.002345,842.834113 119.480138,840.411719 C123.157399,836.816673 126.730518,833.11047 130.232594,829.328462 Z" id="Combined-Shape"></path>
        </g>
    </g>
</svg>