<?xml version="1.0" encoding="UTF-8"?>
<svg width="51px" height="40px" viewBox="0 0 51 40" version="1.1" xmlns="http://www.w3.org/2000/svg" xmlns:xlink="http://www.w3.org/1999/xlink">
    <!-- Generator: Sketch 55.2 (78181) - https://sketchapp.com -->
    <title>Combined Shape</title>
    <desc>Created with Sketch.</desc>
    <g id="Page-1" stroke="none" stroke-width="1" fill="none" fill-rule="evenodd">
        <g id="Adoptomedia-home" transform="translate(-376.000000, -832.000000)" fill="#113C66" fill-rule="nonzero">
            <path d="M389.321888,855.120218 C387.798507,855.155395 386.638821,859.542608 386.131358,860.664491 C385.77401,861.454508 384.573773,861.340606 384.183747,860.664491 C383.364381,859.244117 383.306804,857.897201 382.551607,856.360422 C381.180503,853.570313 381.06424,854.933252 378.707908,854.42595 C378.155211,854.306958 377.650672,854.087049 377.120833,853.878102 C376.653378,853.693754 376.290388,853.331732 376.292861,852.792904 C376.317866,847.344407 375.559286,841.21839 376.39,835.83274 C376.701679,833.812077 377.556623,832.852953 379.585826,832.389728 C382.665926,831.686605 388.621282,831.995418 391.602156,832.832773 C393.465089,833.356088 394.278008,834.341497 394.427243,835.98559 C395.640527,835.987042 396.072801,837.894392 394.751832,838.186886 C391.86454,838.826201 391.892474,838.498079 391.628118,841.466736 C391.453147,843.431635 391.637835,845.49622 391.642582,847.464861 C391.650774,850.861838 390.375893,858.152708 392.515659,860.741518 C394.489529,863.12961 396.744749,860.698938 398.992939,862.179774 C400.904675,863.438996 401.027464,867.938698 402.441438,869.666417 C402.410283,869.674624 402.379129,869.682832 402.347974,869.69104 C401.809591,869.693665 401.271207,869.69629 400.732824,869.698915 C401.540441,867.546368 402.20545,865.392709 402.754569,863.152728 C402.871767,862.674642 403.358861,862.326745 403.842062,862.326505 C404.982235,862.325936 408.17602,862.928574 409.226985,862.323818 C411.491376,861.020825 411.080091,857.618367 411.127988,855.520629 C411.199809,852.375339 411.211048,849.228765 411.206509,846.082788 C411.204968,845.015492 411.648505,841.366173 411.181477,840.419362 C410.198936,838.427446 406.64516,838.360377 404.871603,838.37013 C401.33827,838.389558 397.804935,838.408988 394.271602,838.428416 C393.911381,838.430397 393.640589,838.293747 393.459086,838.086912 C393.953753,838.011725 394.410741,837.654922 394.442022,837.01746 C394.456591,836.720553 394.456886,836.440538 394.441448,836.176675 C398.239216,836.155268 402.037427,836.116677 405.835241,836.114035 C406.521085,836.113558 407.29215,836.058084 408.066871,836.054046 C408.756473,831.788947 410.152303,832.475743 415.051403,832.438888 C418.086665,832.416054 424.639136,830.731993 426.399082,834.126404 C427.390659,836.03885 426.72655,840.578282 426.737487,842.660086 C426.752875,845.588622 427.465677,850.03969 426.475255,852.845094 C426.177249,853.689211 425.865598,854.326312 425.099056,854.783491 C424.256727,855.28587 423.104881,854.772964 422.283566,855.063913 C420.122381,855.829504 419.520185,858.04874 418.773409,859.921327 C418.36032,860.957174 416.991413,861.013911 416.598419,859.921327 C416.005033,858.271635 415.510338,855.51482 413.387409,855.275956 C413.365638,856.300956 413.338095,857.325847 413.303446,858.350582 C413.256141,859.749578 413.520771,862.160953 412.538823,863.388853 C411.522964,864.659158 409.741709,864.528943 408.329498,864.57506 C406.769067,864.626023 405.603114,864.263281 404.491793,865.536825 C403.980643,866.122591 403.453175,868.255892 403.059272,869.687572 C406.310703,869.671718 409.562133,869.655863 412.813564,869.640004 C414.267588,869.632935 414.264571,871.883745 412.813564,871.890816 C405.350764,871.927198 397.887962,871.963581 390.425161,871.999983 C388.971139,872.007053 388.974155,869.756242 390.425161,869.749171 C393.559707,869.733888 396.694253,869.718606 399.828799,869.703323 C399.23538,868.552788 398.93185,867.424574 398.203695,866.123199 C396.575322,863.212934 394.472219,865.06831 391.869638,864.101462 C389.78074,863.325442 389.540953,861.439709 389.415949,859.461108 C389.325293,858.02617 389.310405,856.574513 389.321888,855.120218 Z M389.354089,852.86042 C389.374081,851.723261 389.394555,850.58895 389.391843,849.464234 C389.384259,846.318987 388.815734,842.543282 389.367736,839.467361 C389.740913,837.387913 390.606968,836.838012 392.131358,836.454282 C391.520117,834.162172 386.228563,834.779895 384.797061,834.721318 C382.112357,834.611458 379.544106,834.09095 378.620044,837.186749 C378.086792,838.973254 378.599138,841.742081 378.590553,843.612813 C378.581953,845.486522 378.04657,848.24371 378.561061,850.038878 C379.610669,853.701177 382.481628,850.96748 384.636497,852.995471 C386.328269,854.587633 385.07123,857.690732 386.131358,859.528473 C385.482155,859.528473 384.832951,859.528473 384.183747,859.528473 C385.529004,856.554414 385.604305,852.571129 389.354089,852.86042 Z M413.426208,853.043498 C416.748236,853.18007 417.553105,855.930367 418.773409,859.322979 C418.048413,859.322979 417.323416,859.322979 416.598419,859.322979 C417.312513,857.532336 417.874174,854.085046 419.741058,853.062164 C420.694849,852.539576 421.39027,853.075147 422.283566,852.813118 C425.436168,851.888368 424.445084,848.987442 424.472729,846.304407 C424.499567,843.699658 425.753463,836.306453 423.504242,834.626093 C422.455036,833.842246 417.375439,834.672199 415.990609,834.682617 C413.984068,834.697712 410.97359,834.072289 410.316009,836.301378 C410.508067,836.357452 410.694287,836.425366 410.872988,836.507311 C414.970428,838.38623 413.469436,844.349581 413.462759,847.970657 C413.459642,849.661677 413.449456,851.352692 413.426208,853.043498 Z M403.243418,844.612998 C403.166655,843.163059 405.422692,843.172039 405.498979,844.612999 C405.597787,846.479306 404.478116,848.832999 402.384143,849.008793 C401.484124,849.084351 400.529809,848.607757 399.857624,848.032044 C399.039431,847.331277 398.91825,846.403514 398.836158,845.380466 C398.748234,844.284731 398.62267,843.189594 399.337851,842.277266 C399.917148,841.538277 400.734651,840.910835 401.705887,840.868725 C402.67741,840.826603 403.832743,841.377532 404.534627,842.028952 C405.221403,842.66635 405.285392,843.694612 405.296031,844.572674 C405.313612,846.023897 403.058004,846.019988 403.04047,844.572674 C403.035015,844.122484 403.062044,843.817343 402.815822,843.562512 C402.498123,843.233706 401.881911,843.073262 401.503457,843.275692 C400.789093,843.657796 401.038135,844.744696 401.091719,845.380466 C401.153511,846.113639 401.692617,847.109145 402.568049,846.578594 C403.1809,846.207178 403.276371,845.235403 403.243418,844.612998 Z M402.744712,852.377726 C401.295747,852.320243 401.293174,850.069346 402.744712,850.126931 C405.850955,850.250159 409.028394,852.079067 409.298213,855.326284 C409.403602,856.59463 409.574116,857.648361 408.199408,858.104313 C407.163565,858.447876 405.636393,858.203561 404.5422,858.20329 C403.244191,858.202973 401.946179,858.202653 400.64817,858.202332 C399.339453,858.202012 396.244854,858.870114 395.222365,857.72099 C394.479837,856.886499 394.856295,855.189057 395.240511,854.297109 C395.881004,852.810218 397.223241,851.476046 398.605188,850.659416 C400.168628,849.735534 402.036605,849.931923 403.791507,849.893562 C405.245935,849.861771 405.240788,852.112679 403.791507,852.144358 C401.957411,852.184449 400.431826,851.987259 398.92757,853.217745 C398.404835,853.645344 397.816684,854.199945 397.49345,854.804306 C396.143626,857.328101 397.053928,855.805024 397.727645,855.950817 C399.335743,856.298818 401.428358,855.951729 403.081939,855.952136 C404.355376,855.952449 406.507655,856.408062 407.661901,855.902029 C407.47571,856.225945 407.289521,856.54986 407.103332,856.873778 C407.457008,854.160689 405.337758,852.480595 402.744712,852.377726 Z" id="Combined-Shape"></path>
        </g>
    </g>
</svg>