<?xml version="1.0" encoding="UTF-8"?>
<svg width="40px" height="40px" viewBox="0 0 40 40" version="1.1" xmlns="http://www.w3.org/2000/svg" xmlns:xlink="http://www.w3.org/1999/xlink">
    <!-- Generator: Sketch 55.2 (78181) - https://sketchapp.com -->
    <title>Combined Shape</title>
    <desc>Created with Sketch.</desc>
    <g id="Page-1" stroke="none" stroke-width="1" fill="none" fill-rule="evenodd">
        <g id="Adoptomedia-home" transform="translate(-958.000000, -836.000000)" fill="#032A50" fill-rule="nonzero">
            <path d="M977.322391,858.931312 C975.937017,858.446834 974.651192,857.403062 974.217531,856.17601 C973.483578,854.099277 973.906052,850.779868 976.280539,850.106326 C978.941256,849.351592 980.873635,850.482881 982.213331,852.762671 C982.793272,853.749571 981.273209,854.642898 980.69569,853.660118 C979.862589,852.242412 978.854723,851.334091 977.114732,851.73693 C976.019066,851.990596 975.834909,852.574278 975.770208,853.616426 C975.735107,854.18182 975.676388,854.850047 975.855439,855.396511 C976.213029,856.487877 978.002605,857.676055 979.170691,857.445128 C980.944032,857.094544 981.267567,855.063202 980.932306,853.588067 C980.678757,852.472454 982.373776,852.000625 982.62713,853.115374 C983.144226,855.39058 982.485464,858.089304 980.172859,858.983609 C982.103468,858.976786 984.017283,859.041866 985.878966,859.251819 C988.693645,859.569247 987.871622,862.445168 987.750851,864.8889 C987.825394,864.888299 987.899937,864.887697 987.97448,864.887095 C988.604082,864.882016 989.490603,864.702391 989.945196,865.271569 C990.422124,865.868707 990.216908,867.025431 990.21987,867.729656 C990.224146,868.74725 990.198311,869.763998 990.153639,870.780519 C990.132324,871.265534 989.76556,871.664775 989.274836,871.669575 C987.41703,871.687735 985.559239,871.693219 983.701362,871.686023 C983.190005,871.684042 982.866005,871.277197 982.822558,870.796967 C982.695091,869.388086 982.462174,867.596604 982.828107,866.209314 C983.107694,865.149373 983.985926,865.225954 984.905345,865.235396 C986.037543,865.247026 986.036661,867.025129 984.905345,867.013508 C984.642156,867.010807 984.288143,866.961969 984.027751,867.011355 C984.20282,866.875163 984.377885,866.738973 984.552953,866.60278 C984.28044,866.990455 984.462481,868.139961 984.465342,868.621934 C984.469659,869.349125 984.514664,870.073005 984.580165,870.796967 C984.287231,870.500615 983.994296,870.204263 983.701362,869.907911 C985.559236,869.915107 987.41703,869.909623 989.274836,869.891463 C988.981901,870.187815 988.688967,870.484167 988.396032,870.780519 C988.431129,869.981815 988.45546,869.183141 988.460976,868.383638 C988.465824,867.681002 988.611508,866.724903 988.407672,866.046608 C988.612267,866.25359 988.816866,866.460573 989.021462,866.667559 C988.378451,866.505705 987.53087,866.668786 986.864956,866.674161 C986.125271,866.68013 985.385589,866.686099 984.645908,866.692068 C983.51278,866.701214 983.515432,864.923078 984.645908,864.913956 C985.095956,864.910324 985.546005,864.906692 985.996054,864.903061 C986.076164,863.520872 986.378015,861.845579 985.225519,861.024698 C984.424136,860.4539 981.019369,861.005663 979.99784,861.005431 C979.691891,861.005362 979.385944,861.005502 979.079998,861.005844 C979.079998,862.304553 979.079998,863.603261 979.079998,864.901969 C979.345768,864.901826 979.611538,864.901684 979.877308,864.901541 C980.680802,864.901113 981.435666,864.936231 981.64964,865.857173 C981.895974,866.917395 981.68463,868.246007 981.684438,869.334295 C981.684317,870.028723 981.912828,871.148203 981.353881,871.697822 C980.710856,872.330117 979.275876,872.015334 978.473562,872.015304 C977.614789,872.015274 976.091651,872.314393 975.324377,871.834063 C974.566949,871.359895 974.77848,870.233212 974.781834,869.488338 C974.787284,868.278122 974.792734,867.067904 974.798185,865.857688 C974.803344,864.711911 976.560946,864.713355 976.555792,865.857688 C976.551855,866.731732 976.547919,867.605778 976.543984,868.479824 C976.541737,868.978609 976.404257,870.407727 976.526747,870.617664 C976.35168,870.481475 976.176614,870.345282 976.001547,870.209089 C976.6979,870.364304 977.556324,870.237159 978.27044,870.237186 C978.958228,870.23721 979.828618,870.380125 980.498852,870.211869 C980.323785,870.348059 980.148719,870.484251 979.973652,870.620441 C979.908455,870.948706 979.892787,870.871441 979.926646,870.388648 C979.926683,870.177776 979.92672,869.966904 979.926757,869.756036 C979.926831,869.334296 979.926905,868.912555 979.926979,868.490812 C979.927066,867.998782 979.927152,867.506752 979.927239,867.01472 C979.927275,866.816033 979.815721,866.110473 979.926726,866.274681 C980.101793,866.410873 980.27686,866.547063 980.451926,866.683256 C979.765987,866.557165 978.939829,866.680157 978.239733,866.680534 C977.489178,866.680938 976.738624,866.681339 975.988069,866.681743 C974.855233,866.682349 974.857158,864.904237 975.988069,864.903631 C976.432843,864.903392 976.877617,864.903153 977.322391,864.902914 C977.322391,863.605277 977.322391,862.30764 977.322391,861.010002 C974.729078,861.019304 972.135866,861.042344 969.542699,861.075398 C969.835633,860.779046 970.128568,860.482693 970.421502,860.186341 C970.421764,861.758605 970.422027,863.330867 970.422289,864.90313 C970.554673,864.90315 970.687057,864.903172 970.819441,864.903193 C971.622018,864.903329 972.6436,864.762521 972.994397,865.685881 C973.324386,866.554473 973.090327,867.835216 973.091154,868.751775 C973.091878,869.556026 973.34918,870.848668 972.698691,871.454648 C971.984669,872.119815 970.556837,871.816415 969.670548,871.818287 C968.811396,871.820099 967.565359,872.08073 966.777863,871.633975 C966.029853,871.209621 966.126087,870.340042 966.126011,869.6001 C966.12589,868.418539 966.125768,867.23698 966.125647,866.055419 C966.12553,864.909389 967.883137,864.911294 967.883254,866.055419 C967.883335,866.843126 967.883416,867.630832 967.883497,868.418539 C967.883537,868.812393 967.883578,869.206248 967.883618,869.6001 C967.883631,869.731385 967.883645,869.86267 967.883658,869.993955 C967.958943,870.433723 967.918695,870.50778 967.762918,870.216131 C967.278945,870.021873 968.538841,870.042563 968.656343,870.042316 C968.994411,870.041601 969.33248,870.040887 969.670548,870.040175 C970.183594,870.03909 971.341114,870.254396 971.722664,869.988809 C971.588044,870.165919 971.453421,870.343027 971.318801,870.520138 C971.449571,869.786517 971.333694,868.916532 971.333025,868.172739 C971.3326,867.701776 971.44703,866.501961 971.331021,866.304318 C971.506088,866.440511 971.681155,866.576703 971.856223,866.712893 C971.114823,866.54772 970.193817,866.681203 969.437908,866.681076 C968.648461,866.680947 967.859014,866.680817 967.069567,866.680685 C965.936766,866.680498 965.938622,864.902386 967.069567,864.902573 C967.601272,864.902661 968.132977,864.902749 968.664681,864.902838 C968.664419,863.330672 968.664157,861.758507 968.663895,860.186341 C968.663895,859.699712 969.067753,859.30334 969.542699,859.297285 C972.076538,859.264989 974.698961,859.11794 977.322391,859.036984 C977.322391,859.00176 977.322391,858.966536 977.322391,858.931312 Z M959.945061,845.738743 C972.042678,845.738743 984.140295,845.738743 996.23791,845.738743 C996.384202,843.358516 996.475638,840.644688 995.243033,839.194856 C993.969416,837.696786 993.189815,838.032303 991.35769,838.032418 C989.853206,838.032513 988.34872,838.032608 986.844233,838.032702 C984.336756,838.03286 981.829279,838.033018 979.321802,838.033175 C973.805352,838.033522 968.288902,838.033869 962.772452,838.034216 C961.63964,838.034287 961.641519,836.256175 962.772453,836.256105 C970.294885,836.255632 977.817316,836.255159 985.339747,836.254686 C988.426958,836.254492 992.173188,835.657028 995.193482,836.292955 C996.412526,836.549626 997.114244,837.050269 997.587744,838.243955 C998.296656,840.031112 997.876367,842.444956 997.875798,844.302369 C997.874752,847.721269 997.873703,851.140169 997.872654,854.559069 C997.871605,857.97797 997.870556,861.396869 997.86951,864.81577 C997.868759,867.258871 998.221393,870.002294 997.705432,872.40745 C996.815176,876.557367 992.941005,875.830692 989.544369,875.831005 C983.311343,875.831578 977.078315,875.832151 970.845288,875.832724 C967.79041,875.833004 964.451644,876.22328 961.425918,875.810614 C960.275284,875.653684 959.436494,875.432631 958.801241,874.343608 C957.814727,872.652408 958.279221,869.831581 958.247683,868.001457 C958.193473,864.855699 958.169759,861.709524 958.160993,858.563321 C958.145353,852.95002 957.661391,847.019774 958.451179,841.447402 C958.864951,838.528027 960.399633,835.607661 963.722376,836.541896 C964.812405,836.848372 964.346606,838.563374 963.255135,838.256492 C961.085187,837.646381 960.241887,841.453257 959.945061,845.738743 Z M959.851832,847.516855 C959.707252,851.398847 959.913941,855.232149 959.914617,856.203562 C959.916623,859.087649 959.927831,861.971732 959.960715,864.855641 C959.989797,867.406078 959.030685,872.680474 961.869731,874.055437 C963.485637,874.838027 967.523037,874.054915 969.349362,874.054749 C972.091894,874.054496 974.834426,874.054243 977.576958,874.053993 C980.31949,874.05374 983.062022,874.053486 985.804552,874.053236 C987.85645,874.053046 991.37164,874.745478 993.284183,874.052546 C997.252575,872.614766 996.110931,867.977592 996.111902,864.815769 C996.112787,861.922855 996.113675,859.029938 996.114563,856.137023 C996.115367,853.507099 996.116175,850.877176 996.116979,848.247253 C996.11705,848.016946 996.123579,847.772512 996.134259,847.516855 C984.040117,847.516855 971.945974,847.516855 959.851832,847.516855 Z M964.726206,843.038647 C965.857142,843.038647 965.859016,841.260535 964.726206,841.260535 C963.59527,841.260535 963.593397,843.038647 964.726206,843.038647 Z M967.655552,842.972791 C968.786488,842.972791 968.788361,841.194679 967.655552,841.194679 C966.524616,841.194679 966.522742,842.972791 967.655552,842.972791 Z M971.105669,843.038647 C972.236607,843.038647 972.238479,841.260535 971.105669,841.260535 C969.974733,841.260535 969.97286,843.038647 971.105669,843.038647 Z" id="Combined-Shape"></path>
        </g>
    </g>
</svg>