<?xml version="1.0" encoding="UTF-8"?>
<svg width="490px" height="45px" viewBox="0 0 490 45" version="1.1" xmlns="http://www.w3.org/2000/svg" xmlns:xlink="http://www.w3.org/1999/xlink">
    <!-- Generator: Sketch 55.2 (78181) - https://sketchapp.com -->
    <title>Group 6</title>
    <desc>Created with Sketch.</desc>
    <g id="Page-1" stroke="none" stroke-width="1" fill="none" fill-rule="evenodd">
        <g id="Adoptomedia-home" transform="translate(-391.000000, -5110.000000)" fill="#032A50" fill-rule="nonzero">
            <g id="Group-6" transform="translate(391.000000, 5110.000000)">
                <path d="M63,22 L56.4054054,22 L51,10 L57.8108108,10 L63,22 Z M38.9870968,22 L33,22 L37.3354839,10 L44.2516129,10 L49,22 L43.0129032,22 L40.8451613,16.4 L38.9870968,22 Z M18,10 L24,10 L24,22 L18,22 L18,10 Z M0,10 L6,10 L6,22 L0,22 L0,10 Z M119.197605,22 L105.508982,22 C104.538922,20.7777778 104,19.3333333 104,17.3333333 C104,12.8888889 107.772455,10 113.48503,10 C116.287425,10 118.766467,10.5555556 122,12 L122,17 C118.443114,15.3333333 116.287425,14.6666667 114.131737,14.6666667 C111.868263,14.6666667 110.467066,15.4444444 110.467066,16.7777778 C110.467066,19.2222222 115.42515,19.7777778 119.197605,22 Z M71.6666667,22 L65,22 L70.1111111,10 L77,10 L71.6666667,22 Z M85.9870968,22 L80,22 L84.3354839,10 L91.2516129,10 L96,22 L90.0129032,22 L87.9483871,16.4 L85.9870968,22 Z M78.4897959,25 L85,25 L80.8469388,36 L74,36 L78.4897959,25 Z M91,25 L97.407767,25 L102,36 L95.3786408,36 L91,25 Z M58,25 L71,25 L66.0166667,36 L63.3083333,36 L58,25 Z M109.744186,25.1089109 L109.744186,25 L122.226744,25 C122.668605,25.980198 123,27.0693069 123,28.3762376 C123,33.1683168 118.802326,36 113.168605,36 C108.75,36 106.540698,34.9108911 104,33.6039604 L104,28.1584158 C107.645349,30.5544554 109.965116,31.4257426 112.726744,31.4257426 C115.156977,31.4257426 116.482558,30.6633663 116.482558,29.1386139 C116.482558,27.0693069 113.05814,26.4158416 109.744186,25.1089109 Z M18,25 L24,25 L24,36 L18,36 L18,25 Z M0,25 L6,25 L6,36 L0,36 L0,25 Z M31.377551,25 L38,25 L33.8469388,36 L27,36 L31.377551,25 Z M44,25 L50.3009709,25 L55,36 L48.3786408,36 L44,25 Z" id="Combined-Shape"></path>
                <path d="M385,16.1930502 L385,22 L400,20.2702703 L400,14 L385,16.1930502 M390,22.5740181 L390,42 L396,42 L396,22 L390,22.5740181 M402,13.8538381 L402,42 L408,42 L408,13 L402,13.8538381 M409,13.2698413 L409,20 L418,19.015873 L418,12 L409,13.2698413 M409,24.4827586 L409,31 L415,30.6982759 L415,24 L409,24.4827586 M409,35.2837838 L409,42 L418,42 L418,35 L409,35.2837838 M440,9.07936508 L440,42 L448,42 L448,8 L440,9.07936508 M450,7.55882353 L450,15 L461,13.7941176 L461,6 L450,7.55882353 M450,21.6043165 L450,29 L457,28.6258993 L457,21 L450,21.6043165 M450,34.3333333 L450,42 L461,42 L461,34 L450,34.3333333 M420,11.9267117 L420,42 L427,42 L427,11 L420,11.9267117 M428,35.2892562 L428,42 L438,42 L438,35 L428,35.2892562 M486.762012,5.86690081 C484.247429,3.55770088 480.553164,2.58540617 476.548457,3.16270616 L476.548457,11.6702848 C478.193802,11.5791322 479.49766,12.1868164 480.087501,13.3718006 C481.018828,15.2556216 480.056456,18.0813531 477.790227,20.6943951 C474.282228,24.735495 465,33 465,33 L478.349023,32.5746211 C486.513658,24.7658792 489.431817,20.0563267 489.959569,14.1314058 C490.238967,11.0018322 489.059286,7.99379549 486.762012,5.86690081 M490,42 L490,33 L463,33.7986348 M463,34 L463,42 L490,42 M475,3 C467.358745,4.6875 463.583422,10.5 464.036461,20 L472.191159,19.25 C471.828728,13.875 473.399263,12.625 475,11.90625 L475,3" id="Shape"></path>
                <path d="M254.848039,38.9441644 C255.258667,38.23283 255.82965,37.5919821 256.584985,37.0387228 C258.055815,35.966571 259.748277,35.7368242 261.501184,36.2920456 C262.52875,36.6175203 263.072756,37.4790708 262.992162,38.5129315 C262.951866,39.1447352 262.951866,39.1447352 262.28697,39.1447352 C261.843706,39.1638808 261.400442,39.1638808 260.896733,39.1638808 C260.896733,39.0107162 260.896733,38.8766973 260.896733,38.7426783 C260.876585,38.225748 260.574359,37.8811278 260.050502,37.7471088 C259.244568,37.5556531 258.458782,37.6896721 257.87448,38.2448935 C256.726023,39.2978998 256.222314,40.5997983 256.363353,42.1122982 C256.443946,42.9547031 257.068545,43.3950512 257.975221,43.3567601 C259.002788,43.3184689 259.70798,42.8015386 260.151244,41.9591336 C260.231837,41.8059691 260.312431,41.767678 260.473618,41.767678 C261.078068,41.767678 261.682519,41.767678 262.367563,41.767678 C262.085486,42.2271716 261.884003,42.6483741 261.601926,43.0312854 C260.675101,44.2757473 259.365458,44.8884055 257.793886,44.9841333 C257.108842,45.0224244 256.443946,45.0032789 255.77905,44.7926776 C254.731336,44.467203 254.046292,43.8162537 254.005995,42.7249563 C253.97533,41.8580665 254.061344,41.0327541 254.286238,40.2648389 C253.708052,41.1476758 252.777953,41.7390764 251.469545,41.8404255 C250.709371,41.8978723 249.930656,41.8787234 249.151941,41.8787234 C249.059237,41.8787234 248.966533,41.8787234 248.836747,41.8787234 C248.725502,42.3 248.614257,42.7212766 248.521553,43.1425532 C248.391767,43.6787234 248.243441,44.2148936 248.113655,44.7702128 C248.076573,44.9234043 248.020951,45 247.854083,45 C247.242236,44.9425532 246.630388,44.9617021 246,44.9617021 C246.185408,44.2531915 246.352276,43.5829787 246.537684,42.912766 C247.11245,40.7106383 247.687216,38.4893617 248.243441,36.287234 C248.299063,36.0765957 248.373226,36 248.595716,36 C249.819411,36.0191489 251.024565,35.9808511 252.24826,36.0191489 C252.730322,36.0191489 253.212384,36.0765957 253.675904,36.1914894 C254.602946,36.4212766 255.066467,37.0723404 254.992303,38.0489362 C254.966833,38.3587649 254.918898,38.658332 254.848039,38.9441644 Z M246.176716,0 C246.176716,7.14762516 246.176716,14.2952503 246.176716,21.4428755 C246.176716,21.7593068 246.176716,21.7779204 246.520597,21.7779204 C251.774328,21.7779204 257.02806,21.7779204 262.300896,21.7779204 C262.606567,21.7779204 262.606567,21.7779204 262.606567,21.4614891 C262.606567,19.2464698 262.606567,17.0314506 262.606567,14.7978177 C262.606567,14.4813864 262.606567,14.4813864 262.281791,14.4813864 C257.123582,14.4813864 251.984478,14.4813864 246.826269,14.4813864 C246.673433,14.4813864 246.501493,14.4813864 246.310448,14.4813864 C246.348657,14.406932 246.367761,14.3697047 246.40597,14.3324775 C248.755821,12.0430039 251.124776,9.73491656 253.474627,7.44544288 C253.589254,7.33376123 253.703881,7.29653402 253.856716,7.29653402 C259.129552,7.29653402 264.402388,7.29653402 269.675224,7.29653402 C269.770746,7.29653402 269.866269,7.29653402 269.980896,7.29653402 C269.980896,7.38960205 270,7.48267009 270,7.55712452 C270,12.6944801 270,17.8132221 270,22.9505777 C270,23.1367137 269.942687,23.267009 269.808955,23.3973042 C267.936716,25.2028241 266.064478,27.008344 264.192239,28.8324775 C264.077612,28.9441592 263.943881,29 263.77194,29 C255.53791,29 247.303881,29 239.088955,29 C238.974328,29 238.878806,29 238.745075,29 C238.745075,21.796534 238.745075,14.6116816 238.745075,7.44544288 C233.835224,12.2291399 228.925373,17.012837 224.053731,21.7779204 C228.86806,21.7779204 233.739701,21.7779204 238.668657,21.7779204 C238.592239,21.8523748 238.55403,21.9082157 238.515821,21.9454429 C236.127761,24.2535302 233.739701,26.5802311 231.351642,28.8883184 C231.275224,28.9627728 231.160597,29 231.04597,29 C228.447761,29 225.849552,29 223.251343,29 C217.596418,29 211.960597,29 206.305672,29 C206.229254,29 206.133731,29 206,29 C206.076418,28.906932 206.133731,28.8510911 206.191045,28.7952503 C213.164179,22.0012837 220.118209,15.2259307 227.091343,8.43196406 C229.918806,5.67715019 232.746269,2.94094994 235.573731,0.186136072 C235.631045,0.13029525 235.669254,0.0744544288 235.707463,0 C239.203582,0 242.680597,0 246.176716,0 Z M302.962149,23.2483954 C302.867521,23.3228498 302.791819,23.3786906 302.716117,23.4531451 C300.899267,25.2400513 299.082418,27.0269576 297.265568,28.8324775 C297.152015,28.9441592 297.019536,29 296.849206,29 C288.673382,29 280.478632,29 272.302808,29 C272.208181,29 272.132479,29 272,29 C272,28.8883184 272,28.7952503 272,28.6835687 C272,19.2278562 272,9.79075738 272,0.335044929 C272,0.223363286 272,0.111681643 272,0 C274.460317,0 276.901709,0 279.362027,0 C279.362027,0.0744544288 279.343101,0.148908858 279.343101,0.223363286 C279.343101,7.29653402 279.343101,14.3883184 279.343101,21.4614891 C279.343101,21.5545571 279.343101,21.6476252 279.343101,21.7593068 C284.793651,21.7593068 290.206349,21.7593068 295.637973,21.7593068 C295.637973,21.6662388 295.656899,21.5917843 295.656899,21.5173299 C295.656899,19.2650834 295.656899,17.012837 295.656899,14.7419769 C295.656899,14.5186136 295.600122,14.4441592 295.373016,14.4627728 C295.316239,14.4627728 295.259463,14.4627728 295.221612,14.4627728 C290.092796,14.4627728 284.96398,14.4627728 279.85409,14.4627728 C279.740537,14.4627728 279.626984,14.4627728 279.513431,14.4627728 C279.551282,14.3324775 279.626984,14.2766367 279.683761,14.2207959 C281.992674,11.9685494 284.282662,9.71630295 286.591575,7.46405648 C286.724054,7.33376123 286.875458,7.27792041 287.064713,7.27792041 C290.830891,7.27792041 294.59707,7.27792041 298.344322,7.27792041 C299.896215,7.27792041 301.448107,7.27792041 303,7.27792041 C302.962149,12.6200257 302.962149,17.9435173 302.962149,23.2483954 Z M303,36.04119 C302.473684,36.4824161 301.947368,36.9044586 301.439201,37.3456848 C300.568058,38.0938509 299.696915,38.8420171 298.825771,39.5709995 C298.69873,39.6669182 298.680581,39.7436532 298.753176,39.9163069 C299.46098,41.508558 300.168784,43.1199928 300.876588,44.7314275 C300.912886,44.8081625 300.931034,44.8848975 300.985481,45 C300.84029,45 300.731397,45 300.604356,45 C299.987296,45 299.370236,45 298.753176,45 C298.571688,45 298.480944,44.9616325 298.408348,44.769795 C297.954628,43.6379539 297.500907,42.5061128 297.047187,41.355088 C297.010889,41.278353 296.99274,41.201618 296.938294,41.1056993 C296.53902,41.4510067 296.139746,41.7963142 295.758621,42.1224379 C295.704174,42.1608054 295.686025,42.2759079 295.667877,42.3526429 C295.450091,43.177544 295.250454,43.9832614 295.014519,44.8081625 C294.99637,44.8848975 294.923775,44.9808163 294.869328,44.9808163 C294.252269,45 293.635209,44.9808163 293,44.9808163 C293.018149,44.8848975 293.036298,44.8081625 293.054446,44.7506113 C293.780399,41.9306004 294.488203,39.1105895 295.214156,36.2905787 C295.268603,36.0603737 295.341198,35.9836387 295.577132,36.0028225 C296.121597,36.0220062 296.684211,36.0028225 297.264973,36.0028225 C296.956443,37.2113985 296.666062,38.4007909 296.357532,39.5901832 C296.375681,39.5901832 296.375681,39.609367 296.393829,39.609367 C296.593466,39.4367132 296.811252,39.2448758 297.010889,39.072222 C298.117967,38.0938509 299.243194,37.1346636 300.350272,36.1562924 C300.477314,36.04119 300.604356,36.0028225 300.785844,36.0028225 C301.529946,36.0028225 302.274047,36.0028225 303,36.0028225 C303,36.0220062 303,36.04119 303,36.04119 Z M237,36 C236.852459,36.5769231 236.723361,37.0961538 236.57582,37.6346154 C236.557377,37.6923077 236.428279,37.75 236.354508,37.75 C235.413934,37.75 234.473361,37.75 233.514344,37.75 C233.016393,37.75 232.518443,37.75 232.038934,37.75 C231.928279,37.75 231.854508,37.7692308 231.836066,37.9038462 C231.72541,38.3846154 231.596311,38.8461538 231.44877,39.3653846 C231.559426,39.3653846 231.633197,39.3653846 231.72541,39.3653846 C232.57377,39.3846154 233.403689,39.3846154 234.252049,39.4038462 C234.491803,39.4038462 234.713115,39.4807692 234.934426,39.5576923 C235.875,39.8846154 236.317623,40.6538462 236.188525,41.6923077 C235.94877,43.5384615 234.805328,44.7115385 232.997951,44.9423077 C232.665984,44.9807692 232.315574,45 231.983607,45 C230.747951,45 229.512295,45 228.295082,45 C228.202869,45 228.129098,45 228,45 C228.07377,44.6923077 228.147541,44.4230769 228.202869,44.1538462 C228.885246,41.5192308 229.54918,38.8846154 230.231557,36.25 C230.286885,36.0576923 230.342213,36 230.545082,36 C232.610656,36 234.694672,36 236.760246,36 C236.815574,36 236.889344,36 237,36 Z M230.434426,43.2115385 C231.209016,43.2115385 231.946721,43.2115385 232.684426,43.2115385 C232.831967,43.2115385 232.979508,43.1538462 233.127049,43.0961538 C233.55123,42.9423077 233.790984,42.6346154 233.901639,42.1923077 C234.030738,41.5769231 233.827869,41.2115385 233.237705,41.1538462 C232.536885,41.0961538 231.836066,41.1153846 231.135246,41.1153846 C231.098361,41.1153846 231.02459,41.1730769 231.006148,41.2307692 C230.803279,41.8846154 230.618852,42.5384615 230.434426,43.2115385 Z M269.471429,39.3653846 C270.169388,39.3653846 270.84898,39.3653846 271.510204,39.3653846 C271.840816,39.3653846 272.189796,39.3846154 272.520408,39.4615385 C273.861224,39.7115385 274.430612,40.6346154 274.136735,42.0192308 C273.787755,43.6923077 272.685714,44.7307692 270.995918,44.9423077 C270.683673,44.9807692 270.353061,45 270.022449,45 C268.773469,45 267.542857,45 266.293878,45 C266.202041,45 266.128571,45 266,45 C266.128571,44.5192308 266.238776,44.0769231 266.34898,43.6346154 C266.973469,41.1730769 267.597959,38.7307692 268.222449,36.2692308 C268.277551,36.0576923 268.35102,36 268.571429,36 C270.628571,36 272.685714,36 274.742857,36 C274.816327,36 274.889796,36 275,36 C274.926531,36.3269231 274.834694,36.6153846 274.761224,36.9038462 C274.706122,37.1153846 274.632653,37.3269231 274.595918,37.5576923 C274.559184,37.7307692 274.485714,37.75 274.338776,37.75 C272.961224,37.75 271.583673,37.75 270.187755,37.7307692 C269.930612,37.7307692 269.838776,37.8076923 269.783673,38.0576923 C269.710204,38.5 269.6,38.9230769 269.471429,39.3653846 Z M268.479592,43.2884615 C269.306122,43.25 270.095918,43.25 270.885714,43.1730769 C271.344898,43.1346154 271.693878,42.8461538 271.877551,42.3653846 C272.134694,41.7115385 271.895918,41.2692308 271.216327,41.1538462 C271.142857,41.1346154 271.069388,41.1346154 270.995918,41.1346154 C270.389796,41.1346154 269.783673,41.1346154 269.177551,41.1153846 C269.04898,41.1153846 269.012245,41.1730769 268.993878,41.2884615 C268.865306,41.8076923 268.736735,42.3076923 268.608163,42.8269231 C268.553061,42.9615385 268.516327,43.0961538 268.479592,43.2884615 Z M284,45 C284.122093,44.4626866 284.244186,43.9829424 284.366279,43.4840085 C284.959302,41.0660981 285.552326,38.6673774 286.145349,36.249467 C286.197674,36.0575693 286.267442,36 286.44186,36 C286.912791,36.0191898 287.383721,36 287.872093,36 C287.94186,36 288.011628,36 288.116279,36 C287.837209,37.1321962 287.575581,38.2452026 287.296512,39.3773987 C287.366279,39.3773987 287.418605,39.3965885 287.47093,39.3965885 C288.343023,39.3965885 289.215116,39.3965885 290.087209,39.3965885 C290.226744,39.3965885 290.296512,39.3390192 290.331395,39.1855011 C290.575581,38.1876333 290.819767,37.1897655 291.063953,36.1918977 C291.098837,36.0383795 291.151163,36 291.290698,36 C291.848837,36 292.424419,36 293,36 C292.843023,36.652452 292.72093,37.2665245 292.563953,37.880597 C292.005814,40.1449893 291.447674,42.4285714 290.906977,44.6929638 C290.854651,44.9424307 290.767442,45 290.540698,45 C290.087209,44.9808102 289.616279,45 289.162791,45 C289.093023,45 289.005814,45 288.901163,45 C289.215116,43.7142857 289.52907,42.4477612 289.843023,41.1620469 C289.773256,41.1620469 289.738372,41.1428571 289.703488,41.1428571 C288.813953,41.1428571 287.924419,41.1428571 287.052326,41.1428571 C286.912791,41.1428571 286.877907,41.2196162 286.843023,41.3347548 C286.563953,42.466951 286.284884,43.5991471 286.005814,44.7313433 C285.953488,44.9424307 285.866279,45 285.674419,45 C285.203488,44.9808102 284.732558,45 284.27907,45 C284.19186,45 284.104651,45 284,45 Z M223.974453,45 C223.153285,45 222.368613,45 221.60219,45 C221.529197,45 221.456204,44.8848614 221.419708,44.7889126 C220.981752,43.7142857 220.543796,42.6204691 220.105839,41.5266525 C220.051095,41.3923241 219.99635,41.2771855 219.941606,41.1044776 C219.777372,41.238806 219.649635,41.3731343 219.50365,41.4882729 C218.883212,41.8720682 218.572993,42.4477612 218.445255,43.1769723 C218.354015,43.7334755 218.171533,44.2707889 218.025547,44.8081023 C218.007299,44.8656716 217.952555,44.9616205 217.879562,44.9808102 C217.788321,45 217.69708,44.9808102 217.605839,44.9808102 C217.076642,44.9808102 216.565693,44.9808102 216,44.9808102 C216.145985,44.3859275 216.291971,43.8102345 216.437956,43.2537313 C217.021898,40.9317697 217.624088,38.6098081 218.208029,36.2878465 C218.262774,36.0767591 218.335766,36 218.554745,36 C219.047445,36.0191898 219.540146,36 220.014599,36 C220.087591,36 220.160584,36 220.251825,36 C219.941606,37.2089552 219.649635,38.3795309 219.339416,39.5692964 C219.357664,39.5884861 219.375912,39.5884861 219.394161,39.6076759 C219.686131,39.358209 219.978102,39.108742 220.270073,38.8592751 C221.310219,37.9573561 222.350365,37.0554371 223.390511,36.1535181 C223.481752,36.0767591 223.627737,36.0191898 223.737226,36.0191898 C224.467153,36 225.215328,36.0191898 226,36.0191898 C225.927007,36.0959488 225.890511,36.1343284 225.835766,36.1727079 C224.50365,37.3049041 223.153285,38.45629 221.821168,39.5884861 C221.693431,39.7036247 221.675182,39.7803838 221.748175,39.9530917 C222.459854,41.5458422 223.171533,43.1385928 223.883212,44.750533 C223.90146,44.8081023 223.937956,44.8848614 223.974453,45 Z M249.281727,40.1170213 C249.949197,40.1170213 250.598126,40.1361702 251.247055,40.1170213 C252.044311,40.0787234 252.563454,39.5808511 252.711781,38.7765957 C252.823026,38.1638298 252.581995,37.8 251.970148,37.7617021 C251.321219,37.7234043 250.69083,37.7425532 250.041901,37.7425532 C249.986279,37.7425532 249.893575,37.8191489 249.875034,37.8765957 C249.671085,38.6042553 249.485676,39.3510638 249.281727,40.1170213 Z M215,44.9530361 C214.509804,44.9530361 214.039216,44.9530361 213.568627,44.9530361 C213.529412,44.9530361 213.490196,44.9530361 213.45098,44.9530361 C213.215686,44.9338235 212.882353,45.0106736 212.764706,44.8953985 C212.627451,44.7609108 212.686275,44.4535104 212.666667,44.2229602 C212.647059,43.9731973 212.627451,43.7234345 212.607843,43.4736717 C212.607843,43.3391841 212.568627,43.2815465 212.411765,43.2815465 C211.411765,43.2815465 210.411765,43.2815465 209.392157,43.300759 C209.313725,43.300759 209.196078,43.3968216 209.156863,43.4736717 C208.862745,43.9155598 208.607843,44.3766603 208.313725,44.8377609 C208.27451,44.914611 208.176471,44.9914611 208.117647,44.9914611 C207.411765,45.0106736 206.72549,44.9914611 206,44.9914611 C206.039216,44.914611 206.039216,44.876186 206.078431,44.8377609 C207.960784,41.9558824 209.843137,39.0932163 211.72549,36.2113378 C211.823529,36.0576376 211.941176,36 212.117647,36 C212.686275,36.0192125 213.254902,36.0192125 213.803922,36 C213.960784,36 214.039216,36.038425 214.058824,36.2113378 C214.27451,38.2478653 214.509804,40.2843928 214.72549,42.3209203 C214.823529,43.1662713 214.921569,43.9924099 215,44.8377609 C215,44.8377609 215,44.876186 215,44.9530361 Z M212.529412,41.7445446 C212.45098,40.6110057 212.372549,39.4966793 212.294118,38.4015655 C212.27451,38.4015655 212.254902,38.4015655 212.235294,38.3823529 C211.54902,39.4966793 210.843137,40.5917932 210.137255,41.7445446 C210.980392,41.7445446 211.745098,41.7445446 212.529412,41.7445446 Z M242.603896,43.3043787 C242.194805,43.3043787 241.805195,43.3043787 241.435065,43.3043787 C240.772727,43.3043787 240.12987,43.3043787 239.467532,43.3043787 C239.311688,43.3043787 239.233766,43.3427219 239.155844,43.4769231 C238.883117,43.9370414 238.61039,44.3779882 238.318182,44.8381065 C238.279221,44.8956213 238.201299,44.9914793 238.142857,44.9914793 C237.441558,45.0106509 236.74026,44.9914793 236,44.9914793 C236.058442,44.8764497 236.116883,44.7997633 236.155844,44.7230769 C238.025974,41.8665089 239.876623,39.0291124 241.727273,36.1725444 C241.805195,36.0575148 241.883117,36 242.038961,36 C242.623377,36.0191716 243.207792,36 243.792208,36 C243.948052,36 244.006494,36.0575148 244.025974,36.2108876 C244.298701,38.7031953 244.571429,41.2146746 244.863636,43.7069822 C244.902597,44.1095858 244.941558,44.5313609 245,44.9723077 C244.24026,44.9723077 243.5,44.9723077 242.720779,44.9723077 C242.662338,44.4163314 242.642857,43.8795266 242.603896,43.3043787 Z M242.292208,38.3772781 C241.571429,39.5467456 240.87013,40.6586982 240.168831,41.7898225 C240.987013,41.7898225 241.746753,41.7898225 242.525974,41.7898225 C242.448052,40.6586982 242.37013,39.5467456 242.292208,38.3772781 Z M283,44.9914611 C282.375271,44.9914611 281.770065,44.9914611 281.184382,44.9914611 C280.696312,44.9914611 280.696312,44.9914611 280.67679,44.511148 C280.657267,44.1268975 280.637744,43.7234345 280.598698,43.3199715 C280.520607,43.3199715 280.442516,43.300759 280.383948,43.300759 C279.407809,43.300759 278.43167,43.300759 277.455531,43.300759 C277.299349,43.300759 277.221258,43.3583966 277.143167,43.4928843 C276.869848,43.9539848 276.596529,44.3958729 276.303688,44.8569734 C276.264642,44.914611 276.167028,44.9914611 276.088937,44.9914611 C275.425163,45.0106736 274.741866,44.9914611 274.078091,44.9914611 C274.058568,44.9914611 274.039046,44.9722486 274,44.9722486 C274.039046,44.914611 274.058568,44.8569734 274.097614,44.8185484 C275.796095,42.2056452 277.494577,39.5927419 279.193059,36.9798387 C279.368764,36.7108634 279.563991,36.4226755 279.759219,36.1537002 C279.817787,36.0768501 279.934924,36.0192125 280.013015,36.0192125 C280.618221,36 281.223427,36.0192125 281.809111,36 C281.965293,36 282.004338,36.0576376 282.023861,36.1921252 C282.258134,38.3631404 282.492408,40.5341556 282.726681,42.6859583 C282.824295,43.4352467 282.902386,44.1845351 283,44.9914611 Z M280.54013,41.7829696 C280.462039,40.6494307 280.383948,39.5543169 280.305857,38.4399905 C280.286334,38.4399905 280.266811,38.420778 280.247289,38.420778 C279.563991,39.5351044 278.861171,40.6302182 278.158351,41.7829696 C278.978308,41.7829696 279.739696,41.7829696 280.54013,41.7829696 Z" id="Combined-Shape"></path>
            </g>
        </g>
    </g>
</svg>