<?xml version="1.0" encoding="UTF-8"?>
<svg width="490px" height="39px" viewBox="0 0 490 39" version="1.1" xmlns="http://www.w3.org/2000/svg" xmlns:xlink="http://www.w3.org/1999/xlink">
    <!-- Generator: Sketch 55.2 (78181) - https://sketchapp.com -->
    <title>Group 6</title>
    <desc>Created with Sketch.</desc>
    <g id="Page-1" stroke="none" stroke-width="1" fill="none" fill-rule="evenodd" opacity="0.7">
        <g id="Adoptomedia-home" transform="translate(-391.000000, -4994.000000)" fill="#032A50" fill-rule="nonzero">
            <g id="Group-6" transform="translate(391.000000, 4994.000000)">
                <path d="M63,19 L56.4054054,19 L51,7 L57.8108108,7 L63,19 Z M38.9870968,19 L33,19 L37.3354839,7 L44.2516129,7 L49,19 L43.0129032,19 L40.8451613,13.4 L38.9870968,19 Z M18,7 L24,7 L24,19 L18,19 L18,7 Z M0,7 L6,7 L6,19 L0,19 L0,7 Z M119.197605,19 L105.508982,19 C104.538922,17.7777778 104,16.3333333 104,14.3333333 C104,9.88888889 107.772455,7 113.48503,7 C116.287425,7 118.766467,7.55555556 122,9 L122,14 C118.443114,12.3333333 116.287425,11.6666667 114.131737,11.6666667 C111.868263,11.6666667 110.467066,12.4444444 110.467066,13.7777778 C110.467066,16.2222222 115.42515,16.7777778 119.197605,19 Z M71.6666667,19 L65,19 L70.1111111,7 L77,7 L71.6666667,19 Z M85.9870968,19 L80,19 L84.3354839,7 L91.2516129,7 L96,19 L90.0129032,19 L87.9483871,13.4 L85.9870968,19 Z M78.4897959,22 L85,22 L80.8469388,33 L74,33 L78.4897959,22 Z M91,22 L97.407767,22 L102,33 L95.3786408,33 L91,22 Z M58,22 L71,22 L66.0166667,33 L63.3083333,33 L58,22 Z M109.744186,22.1089109 L109.744186,22 L122.226744,22 C122.668605,22.980198 123,24.0693069 123,25.3762376 C123,30.1683168 118.802326,33 113.168605,33 C108.75,33 106.540698,31.9108911 104,30.6039604 L104,25.1584158 C107.645349,27.5544554 109.965116,28.4257426 112.726744,28.4257426 C115.156977,28.4257426 116.482558,27.6633663 116.482558,26.1386139 C116.482558,24.0693069 113.05814,23.4158416 109.744186,22.1089109 Z M18,22 L24,22 L24,33 L18,33 L18,22 Z M0,22 L6,22 L6,33 L0,33 L0,22 Z M31.377551,22 L38,22 L33.8469388,33 L27,33 L31.377551,22 Z M44,22 L50.3009709,22 L55,33 L48.3786408,33 L44,22 Z" id="Combined-Shape"></path>
                <path d="M385,13.1930502 L385,19 L400,17.2702703 L400,11 L385,13.1930502 M390,19.5740181 L390,39 L396,39 L396,19 L390,19.5740181 M402,10.8538381 L402,39 L408,39 L408,10 L402,10.8538381 M409,10.2698413 L409,17 L418,16.015873 L418,9 L409,10.2698413 M409,21.4827586 L409,28 L415,27.6982759 L415,21 L409,21.4827586 M409,32.2837838 L409,39 L418,39 L418,32 L409,32.2837838 M440,6.07936508 L440,39 L448,39 L448,5 L440,6.07936508 M450,4.55882353 L450,12 L461,10.7941176 L461,3 L450,4.55882353 M450,18.6043165 L450,26 L457,25.6258993 L457,18 L450,18.6043165 M450,31.3333333 L450,39 L461,39 L461,31 L450,31.3333333 M420,8.92671167 L420,39 L427,39 L427,8 L420,8.92671167 M428,32.2892562 L428,39 L438,39 L438,32 L428,32.2892562 M486.762012,2.86690081 C484.247429,0.557700882 480.553164,-0.414593826 476.548457,0.162706157 L476.548457,8.67028485 C478.193802,8.57913222 479.49766,9.18681641 480.087501,10.3718006 C481.018828,12.2556216 480.056456,15.0813531 477.790227,17.6943951 C474.282228,21.735495 465,30 465,30 L478.349023,29.5746211 C486.513658,21.7658792 489.431817,17.0563267 489.959569,11.1314058 C490.238967,8.00183224 489.059286,4.99379549 486.762012,2.86690081 M490,39 L490,30 L463,30.7986348 M463,31 L463,39 L490,39 M475,0 C467.358745,1.6875 463.583422,7.5 464.036461,17 L472.191159,16.25 C471.828728,10.875 473.399263,9.625 475,8.90625 L475,0" id="Shape"></path>
                <path d="M245.804478,5 C245.804478,12.394095 245.804478,19.78819 245.804478,27.182285 C245.804478,27.5096277 245.804478,27.5288832 246.153731,27.5288832 C251.489552,27.5288832 256.825373,27.5288832 262.180597,27.5288832 C262.491045,27.5288832 262.491045,27.5288832 262.491045,27.2015404 C262.491045,24.9101412 262.491045,22.618742 262.491045,20.3080873 C262.491045,19.9807445 262.491045,19.9807445 262.161194,19.9807445 C256.922388,19.9807445 251.702985,19.9807445 246.464179,19.9807445 C246.308955,19.9807445 246.134328,19.9807445 245.940299,19.9807445 C245.979104,19.9037227 245.998507,19.8652118 246.037313,19.8267009 C248.423881,17.4582798 250.829851,15.0706033 253.216418,12.7021823 C253.332836,12.5866496 253.449254,12.5481386 253.604478,12.5481386 C258.959701,12.5481386 264.314925,12.5481386 269.670149,12.5481386 C269.767164,12.5481386 269.864179,12.5481386 269.980597,12.5481386 C269.980597,12.6444159 270,12.7406932 270,12.817715 C270,18.1322208 270,23.4274711 270,28.7419769 C270,28.9345315 269.941791,29.0693196 269.80597,29.2041078 C267.904478,31.071887 266.002985,32.9396662 264.101493,34.8267009 C263.985075,34.9422336 263.849254,35 263.674627,35 C255.31194,35 246.949254,35 238.60597,35 C238.489552,35 238.392537,35 238.256716,35 C238.256716,27.5481386 238.256716,20.1155327 238.256716,12.7021823 C233.270149,17.6508344 228.283582,22.5994865 223.335821,27.5288832 C228.225373,27.5288832 233.173134,27.5288832 238.179104,27.5288832 C238.101493,27.605905 238.062687,27.6636714 238.023881,27.7021823 C235.598507,30.0898588 233.173134,32.4967908 230.747761,34.8844673 C230.670149,34.9614891 230.553731,35 230.437313,35 C227.798507,35 225.159701,35 222.520896,35 C216.777612,35 211.053731,35 205.310448,35 C205.232836,35 205.135821,35 205,35 C205.077612,34.9037227 205.135821,34.8459564 205.19403,34.78819 C212.276119,27.7599487 219.338806,20.7509628 226.420896,13.7227214 C229.292537,10.872914 232.164179,8.042362 235.035821,5.19255456 C235.09403,5.13478819 235.132836,5.07702182 235.171642,5 C238.722388,5 242.253731,5 245.804478,5 Z M303.960928,29.0500642 C303.863248,29.127086 303.785104,29.1848524 303.70696,29.2618742 C301.831502,31.1103979 299.956044,32.9589217 298.080586,34.8267009 C297.96337,34.9422336 297.826618,35 297.650794,35 C289.211233,35 280.752137,35 272.312576,35 C272.214896,35 272.136752,35 272,35 C272,34.8844673 272,34.78819 272,34.6726573 C272,24.8908858 272,15.1283697 272,5.3465982 C272,5.23106547 272,5.11553273 272,5 C274.539683,5 277.059829,5 279.599512,5 C279.599512,5.07702182 279.579976,5.15404365 279.579976,5.23106547 C279.579976,12.5481386 279.579976,19.8844673 279.579976,27.2015404 C279.579976,27.2978177 279.579976,27.394095 279.579976,27.5096277 C285.206349,27.5096277 290.793651,27.5096277 296.400488,27.5096277 C296.400488,27.4133504 296.420024,27.3363286 296.420024,27.2593068 C296.420024,24.9293967 296.420024,22.5994865 296.420024,20.2503209 C296.420024,20.0192555 296.361416,19.9422336 296.126984,19.9614891 C296.068376,19.9614891 296.009768,19.9614891 295.970696,19.9614891 C290.676435,19.9614891 285.382173,19.9614891 280.107448,19.9614891 C279.990232,19.9614891 279.873016,19.9614891 279.7558,19.9614891 C279.794872,19.8267009 279.873016,19.7689345 279.931624,19.7111682 C282.315018,17.381258 284.678877,15.0513479 287.062271,12.7214377 C287.199023,12.5866496 287.355311,12.5288832 287.550672,12.5288832 C291.438339,12.5288832 295.326007,12.5288832 299.194139,12.5288832 C300.796093,12.5288832 302.398046,12.5288832 304,12.5288832 C303.960928,18.055199 303.960928,23.5622593 303.960928,29.0500642 Z" id="Combined-Shape"></path>
            </g>
        </g>
    </g>
</svg>