<?xml version="1.0" encoding="UTF-8"?>
<svg width="239px" height="34px" viewBox="0 0 239 34" version="1.1" xmlns="http://www.w3.org/2000/svg" xmlns:xlink="http://www.w3.org/1999/xlink">
    <!-- Generator: Sketch 55.2 (78181) - https://sketchapp.com -->
    <title>Group 5</title>
    <desc>Created with Sketch.</desc>
    <g id="Page-1" stroke="none" stroke-width="1" fill="none" fill-rule="evenodd">
        <g id="Adoptomedia-home" transform="translate(-517.000000, -3431.000000)" fill="#3EB5E6">
            <g id="Group-13" transform="translate(55.000000, 3213.000000)">
                <g id="Group-10" transform="translate(231.000000, 111.000000)">
                    <g id="Group-5" transform="translate(219.000000, 95.000000)">
                        <path d="M11.662259,32.9831117 C14.6807376,35.0192116 17.9466324,37.0553116 20.7176946,39.4886993 C22.152709,40.7302236 23.4392736,42.1207309 24.5279052,43.709882 C25.5670536,45.2990332 26.1608526,47.1861502 27.2989675,48.7256404 C28.8824316,50.8610622 31.7524604,50.1658086 32.2967762,47.7324209 C35.9585371,42.0710699 40.4615132,35.7641262 45.657255,31.5926045 C46.5974368,30.8476899 45.4098387,29.4075216 44.4201736,29.9537923 C39.7192644,32.7348068 35.760604,35.9627701 32.2967762,39.8363261 C32.3957427,36.0124311 32.5441925,32.1388752 32.5936757,28.3149802 C32.643159,24.888373 32.6926423,21.4121049 32.7421255,17.9854977 C32.7916088,15.1548222 33.3359246,12.1255028 32.9895418,9.2948273 C32.643159,5.9178811 27.002068,4.37839091 26.4577522,8.40092978 C25.6165368,14.6085515 26.6062019,21.5114268 26.7051684,27.7687095 C26.7546517,31.0463337 26.9031015,34.323958 27.002068,37.6015823 C26.3587857,37.0553116 25.7155034,36.5587018 25.1217043,36.1117531 C21.3609769,33.3307385 17.3033501,31.4436215 12.8003739,30.3510801 C11.1674265,29.9537923 10.3262112,32.0395532 11.662259,32.9831117 Z" id="Path" transform="translate(28.500000, 28.000000) rotate(45.000000) translate(-28.500000, -28.000000) "></path>
                        <path d="M217.662259,32.9831117 C220.680738,35.0192116 223.946632,37.0553116 226.717695,39.4886993 C228.152709,40.7302236 229.439274,42.1207309 230.527905,43.709882 C231.567054,45.2990332 232.160853,47.1861502 233.298968,48.7256404 C234.882432,50.8610622 237.75246,50.1658086 238.296776,47.7324209 C241.958537,42.0710699 246.461513,35.7641262 251.657255,31.5926045 C252.597437,30.8476899 251.409839,29.4075216 250.420174,29.9537923 C245.719264,32.7348068 241.760604,35.9627701 238.296776,39.8363261 C238.395743,36.0124311 238.544192,32.1388752 238.593676,28.3149802 C238.643159,24.888373 238.692642,21.4121049 238.742126,17.9854977 C238.791609,15.1548222 239.335925,12.1255028 238.989542,9.2948273 C238.643159,5.9178811 233.002068,4.37839091 232.457752,8.40092978 C231.616537,14.6085515 232.606202,21.5114268 232.705168,27.7687095 C232.754652,31.0463337 232.903101,34.323958 233.002068,37.6015823 C232.358786,37.0553116 231.715503,36.5587018 231.121704,36.1117531 C227.360977,33.3307385 223.30335,31.4436215 218.800374,30.3510801 C217.167426,29.9537923 216.326211,32.0395532 217.662259,32.9831117 Z" id="Path-Copy-3" transform="translate(234.500000, 28.000000) scale(-1, 1) rotate(-315.000000) translate(-234.500000, -28.000000) "></path>
                    </g>
                </g>
            </g>
        </g>
    </g>
</svg>